<svg width="24" height="24" viewBox="0 0 24 24" fill="none" xmlns="http://www.w3.org/2000/svg">
<path fill-rule="evenodd" clip-rule="evenodd" d="M2 12.0002C2 6.4774 6.47715 2.00024 12 2.00024C17.5228 2.00024 22 6.4774 22 12.0002C22 17.5231 17.5228 22.0002 12 22.0002C6.47715 22.0002 2 17.5231 2 12.0002ZM12 4.00024C7.58172 4.00024 4 7.58197 4 12.0002C4 16.4185 7.58172 20.0002 12 20.0002C16.4183 20.0002 20 16.4185 20 12.0002C20 7.58197 16.4183 4.00024 12 4.00024Z" fill="#274BF1"/>
<path fill-rule="evenodd" clip-rule="evenodd" d="M13 7.00024C13 6.44796 12.5523 6.00024 12 6.00024C11.4477 6.00024 11 6.44796 11 7.00024V11.0002H7C6.44772 11.0002 6 11.448 6 12.0002C6 12.5525 6.44772 13.0002 7 13.0002H11V17.0002C11 17.5525 11.4477 18.0002 12 18.0002C12.5523 18.0002 13 17.5525 13 17.0002V13.0002H17C17.5523 13.0002 18 12.5525 18 12.0002C18 11.448 17.5523 11.0002 17 11.0002H13V7.00024Z" fill="#274BF1"/>
</svg>
