<svg width="33" height="32" viewBox="0 0 33 32" fill="none" xmlns="http://www.w3.org/2000/svg">
<path fill-rule="evenodd" clip-rule="evenodd" d="M21.8742 3.60559C21.9442 3.00166 21.368 2.52769 20.7864 2.70441C19.741 3.02183 18.6776 3.69353 17.9714 4.51994C17.2952 5.3017 16.6854 6.45319 16.5557 7.65094C16.4944 8.2174 17.0097 8.67128 17.5686 8.56014C18.7082 8.3337 19.7823 7.61482 20.5 6.74554C21.2077 5.88892 21.7387 4.77583 21.8742 3.60559ZM26.7884 21.6674C27.1453 21.8757 27.2983 22.3103 27.1514 22.6966C26.8791 23.4129 26.3712 24.5687 25.564 25.7484C24.4581 27.3647 23.3103 28.9752 21.5021 29.0085C19.7255 29.0413 19.1542 27.955 17.1229 27.955C15.0923 27.955 14.4576 28.9752 12.7758 29.0413C11.0304 29.1073 9.70138 27.2934 8.58626 25.6829C6.30765 22.3886 4.56631 16.374 6.9045 12.3141C8.06604 10.2979 10.1418 9.02119 12.3949 8.98844C14.1088 8.95578 15.7264 10.1415 16.7742 10.1415C17.8212 10.1415 19.787 8.71559 21.8535 8.92498C22.6149 8.95671 24.5865 9.20323 26.1114 10.817C26.4439 11.1688 26.4075 11.731 26.035 12.04C25.1793 12.7497 23.8178 14.2477 23.839 16.6058C23.8666 19.5733 25.7774 21.0775 26.7884 21.6674Z" fill="black"/>
</svg>
