<svg width="22" height="20" viewBox="0 0 22 20" fill="none" xmlns="http://www.w3.org/2000/svg">
<path d="M21.0098 15.5L1.00977 15.5" stroke="#0F121C" stroke-width="1.5" stroke-linecap="round" stroke-linejoin="round"/>
<path d="M21.0098 19L21.0098 14C21.0098 12.1144 21.0098 11.1716 20.424 10.5858C19.8382 10 18.8954 10 17.0098 10L5.00977 10C3.12415 10 2.18134 10 1.59555 10.5858C1.00977 11.1716 1.00977 12.1144 1.00977 14L1.00977 19" stroke="#0F121C" stroke-width="1.5" stroke-linecap="round" stroke-linejoin="round"/>
<path d="M10.0098 10V8.21336C10.0098 7.83272 9.95256 7.70541 9.65951 7.55538C9.04922 7.24292 8.30842 7 7.50977 7C6.71111 7 5.97032 7.24292 5.36002 7.55538C5.06698 7.70541 5.00977 7.83272 5.00977 8.21336L5.00977 10" stroke="#0F121C" stroke-width="1.5" stroke-linecap="round"/>
<path d="M17.0098 10V8.21336C17.0098 7.83272 16.9526 7.70541 16.6595 7.55538C16.0492 7.24292 15.3084 7 14.5098 7C13.7111 7 12.9703 7.24292 12.36 7.55538C12.067 7.70541 12.0098 7.83272 12.0098 8.21336L12.0098 10" stroke="#0F121C" stroke-width="1.5" stroke-linecap="round"/>
<path d="M20.0098 10L20.0098 5.36057C20.0098 4.66893 20.0098 4.32311 19.8176 3.99653C19.6255 3.66995 19.3517 3.50091 18.8042 3.16283C16.5966 1.79978 13.9091 1 11.0098 1C8.11044 1 5.42291 1.79978 3.21535 3.16283C2.66781 3.50091 2.39403 3.66995 2.2019 3.99653C2.00977 4.32311 2.00977 4.66893 2.00977 5.36057L2.00977 10" stroke="#0F121C" stroke-width="1.5" stroke-linecap="round"/>
</svg>
