<?xml version="1.0" encoding="UTF-8" standalone="no"?>
<svg
   xmlns:dc="http://purl.org/dc/elements/1.1/"
   xmlns:cc="http://creativecommons.org/ns#"
   xmlns:rdf="http://www.w3.org/1999/02/22-rdf-syntax-ns#"
   xmlns:svg="http://www.w3.org/2000/svg"
   xmlns="http://www.w3.org/2000/svg"
   viewBox="0 0 1866.6667 1866.6667"
   height="1866.6667"
   width="1866.6667"
   xml:space="preserve"
   id="svg2"
   version="1.1"><metadata
     id="metadata8"><rdf:RDF><cc:Work
         rdf:about=""><dc:format>image/svg+xml</dc:format><dc:type
           rdf:resource="http://purl.org/dc/dcmitype/StillImage" /></cc:Work></rdf:RDF></metadata><defs
     id="defs6"><clipPath
       id="clipPath390"
       clipPathUnits="userSpaceOnUse"><path
         id="path388"
         d="M 0,1400 H 1400 V 0 H 0 Z" /></clipPath></defs><g
     transform="matrix(1.3333333,0,0,-1.3333333,0,1866.6667)"
     id="g10"><g
       transform="translate(698.8444,1239.0153)"
       id="g12"><path
         id="path14"
         style="fill:#96bac3;fill-opacity:1;fill-rule:evenodd;stroke:none"
         d="m 0,0 -0.016,-65.829 v -6.981 l -0.03,-79.968 v -6.965 l -0.014,-79.955 v -6.98 l -0.031,-79.97 v -6.978 l -0.014,-79.956 v -6.979 l -0.031,-113.782 -61.052,-35.604 -6.573,-3.829 -65.497,-38.214 -6.572,-3.83 -65.499,-38.198 -6.587,-3.845 -65.498,-38.199 -6.572,-3.843 -65.499,-38.198 -6.573,-3.828 -65.514,-38.214 -6.572,-3.829 -66.162,-38.592 -1.786,99.246 0.118,435.092 67.83,38.506 6.572,3.828 65.514,38.214 6.573,3.845 65.499,38.198 6.572,3.828 65.498,38.199 6.587,3.844 65.499,38.214 6.572,3.827 65.497,38.199 6.573,3.845 z" /></g><g
       transform="translate(202.8706,950.7877)"
       id="g16"><path
         id="path18"
         style="fill:#878585;fill-opacity:1;fill-rule:evenodd;stroke:none"
         d="m 0,0 -0.146,-534.345 -26.88,15.624 0.147,534.343 z" /></g><g
       transform="translate(1197.0536,417.2044)"
       id="g20"><path
         id="path22"
         style="fill:#cae6ee;fill-opacity:1;fill-rule:evenodd;stroke:none"
         d="m 0,0 -67.744,39.193 -6.574,3.799 -65.497,37.91 -6.574,3.801 -65.498,37.896 -6.586,3.814 -65.5,37.897 -6.571,3.798 -65.498,37.898 -6.573,3.799 -65.499,37.898 -6.586,3.813 -63.465,36.721 -0.028,113.692 v 6.979 l -0.032,79.97 v 6.979 l -0.015,79.954 -0.016,6.98 -0.015,79.971 v 6.962 l -0.03,79.972 v 6.978 l -0.013,65.906 63.614,-36.812 6.586,-3.814 65.499,-37.897 6.573,-3.798 65.498,-37.899 6.571,-3.798 65.5,-37.897 6.586,-3.813 65.498,-37.898 6.574,-3.798 65.497,-37.897 6.574,-3.813 67.594,-39.104 0.016,-67.173 v -6.964 l 0.028,-79.969 v -6.979 l 0.03,-79.955 v -6.979 l 0.013,-79.97 v -6.981 l 0.032,-79.954 v -6.979 z" /></g><g
       transform="translate(1196.9104,951.5462)"
       id="g24"><path
         id="path26"
         style="fill:#b9b5b5;fill-opacity:1;fill-rule:evenodd;stroke:none"
         d="m 0,0 0.148,-534.344 27.097,15.623 -0.147,534.346 z" /></g><g
       transform="translate(1197.9993,469.5015)"
       id="g28"><path
         id="path30"
         style="fill:#b9b5b5;fill-opacity:1;fill-rule:evenodd;stroke:none"
         d="m 0,0 -0.147,-51.963 -495.982,-288.233 0.147,51.964 z" /></g><g
       transform="translate(702.0168,181.2698)"
       id="g32"><path
         id="path34"
         style="fill:#878585;fill-opacity:1;fill-rule:evenodd;stroke:none"
         d="m 0,0 -0.146,-51.964 -499.227,288.228 0.149,51.964 z" /></g><g
       transform="translate(1197.9983,469.5015)"
       id="g36"><path
         id="path38"
         style="fill:#bab1b0;fill-opacity:1;fill-rule:evenodd;stroke:none"
         d="M 0,0 -495.982,-288.232 -995.206,-0.004 -499.227,288.228 Z" /></g><g
       transform="translate(1197.95,478.4688)"
       id="g40"><path
         id="path42"
         style="fill:#7b7469;fill-opacity:1;fill-rule:evenodd;stroke:none"
         d="m 0,0 -0.042,-14.55 -495.989,-288.239 0.041,14.552 z" /></g><g
       transform="translate(701.9602,190.2317)"
       id="g44"><path
         id="path46"
         style="fill:#55524b;fill-opacity:1;fill-rule:evenodd;stroke:none"
         d="m 0,0 -0.042,-14.552 -499.224,288.228 0.041,14.552 z" /></g><g
       transform="translate(1197.95,478.4688)"
       id="g48"><path
         id="path50"
         style="fill:#7b7469;fill-opacity:1;fill-rule:evenodd;stroke:none"
         d="m 0,0 -495.99,-288.237 -499.226,288.228 495.99,288.237 z" /></g><g
       transform="translate(496.7943,439.8201)"
       id="g52"><path
         id="path54"
         style="fill:#648d9a;fill-opacity:1;fill-rule:evenodd;stroke:none"
         d="M 0,0 -62.902,-36.554 -126.214,0 -63.312,36.553 Z" /></g><g
       transform="translate(695.4033,710.3137)"
       id="g56"><path
         id="path58"
         style="fill:#648d9a;fill-opacity:1;fill-rule:evenodd;stroke:none"
         d="m 0,0 -62.903,-36.554 -47.016,27.145 62.901,36.556 z" /></g><g
       transform="translate(696.7151,478.4669)"
       id="g60"><path
         id="path62"
         style="fill:#648d9a;fill-opacity:1;fill-rule:evenodd;stroke:none"
         d="M 0,0 -62.902,-36.553 -126.215,0 -63.313,36.553 Z" /></g><g
       transform="translate(812.647,700.9061)"
       id="g64"><path
         id="path66"
         style="fill:#648d9a;fill-opacity:1;fill-rule:evenodd;stroke:none"
         d="m 0,0 -46.711,-27.144 -63.313,36.553 46.71,27.145 z" /></g><g
       transform="translate(879.573,662.2667)"
       id="g68"><path
         id="path70"
         style="fill:#648d9a;fill-opacity:1;fill-rule:evenodd;stroke:none"
         d="m 0,0 -46.71,-27.146 -63.311,36.555 46.707,27.144 z" /></g><g
       transform="translate(762.3361,671.6704)"
       id="g72"><path
         id="path74"
         style="fill:#648d9a;fill-opacity:1;fill-rule:evenodd;stroke:none"
         d="m 0,0 -62.9,-36.554 -63.312,36.552 62.9,36.555 z" /></g><g
       transform="translate(946.4994,623.6267)"
       id="g76"><path
         id="path78"
         style="fill:#648d9a;fill-opacity:1;fill-rule:evenodd;stroke:none"
         d="m 0,0 -46.708,-27.145 -63.313,36.554 46.709,27.143 z" /></g><g
       transform="translate(829.2625,633.03)"
       id="g80"><path
         id="path82"
         style="fill:#648d9a;fill-opacity:1;fill-rule:evenodd;stroke:none"
         d="m 0,0 -62.901,-36.555 -63.312,36.553 62.902,36.554 z" /></g><g
       transform="translate(695.8441,633.0285)"
       id="g84"><path
         id="path86"
         style="fill:#648d9a;fill-opacity:1;fill-rule:evenodd;stroke:none"
         d="M 0,0 -62.9,-36.554 -126.214,0 -63.312,36.553 Z" /></g><g
       transform="translate(1013.4279,584.9848)"
       id="g88"><path
         id="path90"
         style="fill:#648d9a;fill-opacity:1;fill-rule:evenodd;stroke:none"
         d="m 0,0 -46.711,-27.143 -63.304,36.549 46.711,27.143 z" /></g><g
       transform="translate(896.1909,594.3906)"
       id="g92"><path
         id="path94"
         style="fill:#648d9a;fill-opacity:1;fill-rule:evenodd;stroke:none"
         d="m 0,0 -62.903,-36.556 -63.31,36.554 62.9,36.554 z" /></g><g
       transform="translate(762.7725,594.3886)"
       id="g96"><path
         id="path98"
         style="fill:#648d9a;fill-opacity:1;fill-rule:evenodd;stroke:none"
         d="M 0,0 -62.902,-36.554 -126.215,0 l 62.9,36.554 z" /></g><g
       transform="translate(629.3526,594.3886)"
       id="g100"><path
         id="path102"
         style="fill:#648d9a;fill-opacity:1;fill-rule:evenodd;stroke:none"
         d="m 0,0 -62.901,-36.554 -63.314,36.552 62.903,36.556 z" /></g><g
       transform="translate(495.9254,594.3921)"
       id="g104"><path
         id="path106"
         style="fill:#648d9a;fill-opacity:1;fill-rule:evenodd;stroke:none"
         d="m 0,0 -62.9,-36.554 -47.018,27.145 62.901,36.554 z" /></g><g
       transform="translate(1080.3621,546.34)"
       id="g108"><path
         id="path110"
         style="fill:#99ac9c;fill-opacity:1;fill-rule:evenodd;stroke:none"
         d="m 0,0 -46.71,-27.143 -63.311,36.552 46.709,27.144 z" /></g><g
       transform="translate(963.1183,555.7487)"
       id="g112"><path
         id="path114"
         style="fill:#648d9a;fill-opacity:1;fill-rule:evenodd;stroke:none"
         d="m 0,0 -62.902,-36.554 -63.304,36.549 62.901,36.553 z" /></g><g
       transform="translate(829.699,555.7487)"
       id="g116"><path
         id="path118"
         style="fill:#648d9a;fill-opacity:1;fill-rule:evenodd;stroke:none"
         d="M 0,0 -62.901,-36.554 -126.215,0 -63.313,36.553 Z" /></g><g
       transform="translate(696.2785,555.7487)"
       id="g120"><path
         id="path122"
         style="fill:#648d9a;fill-opacity:1;fill-rule:evenodd;stroke:none"
         d="m 0,0 -62.9,-36.556 -63.312,36.554 62.899,36.553 z" /></g><g
       transform="translate(562.8606,555.7467)"
       id="g124"><path
         id="path126"
         style="fill:#648d9a;fill-opacity:1;fill-rule:evenodd;stroke:none"
         d="M 0,0 -62.902,-36.554 -126.215,0 -63.313,36.553 Z" /></g><g
       transform="translate(429.425,555.7453)"
       id="g128"><path
         id="path130"
         style="fill:#648d9a;fill-opacity:1;fill-rule:evenodd;stroke:none"
         d="m 0,0 -62.893,-36.549 -47.016,27.146 62.891,36.548 z" /></g><g
       transform="translate(1147.2886,507.6996)"
       id="g132"><path
         id="path134"
         style="fill:#99ac9c;fill-opacity:1;fill-rule:evenodd;stroke:none"
         d="m 0,0 -46.708,-27.145 -63.313,36.554 46.71,27.145 z" /></g><g
       transform="translate(1030.0541,517.1034)"
       id="g136"><path
         id="path138"
         style="fill:#99ac9c;fill-opacity:1;fill-rule:evenodd;stroke:none"
         d="M 0,0 -62.901,-36.554 -126.215,0 -63.313,36.554 Z" /></g><g
       transform="translate(896.6269,517.1088)"
       id="g140"><path
         id="path142"
         style="fill:#648d9a;fill-opacity:1;fill-rule:evenodd;stroke:none"
         d="m 0,0 -62.902,-36.554 -63.306,36.549 62.902,36.554 z" /></g><g
       transform="translate(763.2069,517.1073)"
       id="g144"><path
         id="path146"
         style="fill:#648d9a;fill-opacity:1;fill-rule:evenodd;stroke:none"
         d="M 0,0 -62.902,-36.554 -126.214,0 -63.313,36.553 Z" /></g><g
       transform="translate(629.787,517.1073)"
       id="g148"><path
         id="path150"
         style="fill:#648d9a;fill-opacity:1;fill-rule:evenodd;stroke:none"
         d="M 0,0 -62.901,-36.554 -126.215,0 -63.313,36.553 Z" /></g><g
       transform="translate(496.3598,517.102)"
       id="g152"><path
         id="path154"
         style="fill:#648d9a;fill-opacity:1;fill-rule:evenodd;stroke:none"
         d="m 0,0 -62.893,-36.549 -63.313,36.552 62.894,36.551 z" /></g><g
       transform="translate(362.9331,517.1054)"
       id="g156"><path
         id="path158"
         style="fill:#648d9a;fill-opacity:1;fill-rule:evenodd;stroke:none"
         d="m 0,0 -62.9,-36.554 -47.018,27.145 62.9,36.554 z" /></g><g
       transform="translate(1150.9042,505.6137)"
       id="g160"><path
         id="path162"
         style="fill:#99ac9c;fill-opacity:1;fill-rule:evenodd;stroke:none"
         d="M 0,0 47.025,-27.15 0.314,-54.294 -46.71,-27.145 Z" /></g><g
       transform="translate(249.4257,505.6103)"
       id="g164"><path
         id="path166"
         style="fill:#648d9a;fill-opacity:1;fill-rule:evenodd;stroke:none"
         d="M 0,0 47.017,-27.145 0.305,-54.292 -46.713,-27.145 Z" /></g><g
       transform="translate(1096.9816,478.4635)"
       id="g168"><path
         id="path170"
         style="fill:#99ac9c;fill-opacity:1;fill-rule:evenodd;stroke:none"
         d="M 0,0 -62.902,-36.553 -126.214,0 l 62.9,36.554 z" /></g><g
       transform="translate(963.5616,478.4635)"
       id="g172"><path
         id="path174"
         style="fill:#99ac9c;fill-opacity:1;fill-rule:evenodd;stroke:none"
         d="m 0,0 -62.902,-36.553 -63.312,36.551 62.9,36.556 z" /></g><g
       transform="translate(830.1335,478.4669)"
       id="g176"><path
         id="path178"
         style="fill:#648d9a;fill-opacity:1;fill-rule:evenodd;stroke:none"
         d="m 0,0 -62.901,-36.553 -63.304,36.548 62.901,36.554 z" /></g><g
       transform="translate(563.2863,478.4615)"
       id="g180"><path
         id="path182"
         style="fill:#648d9a;fill-opacity:1;fill-rule:evenodd;stroke:none"
         d="m 0,0 -62.892,-36.55 -63.314,36.554 62.894,36.548 z" /></g><g
       transform="translate(429.8664,478.4601)"
       id="g184"><path
         id="path186"
         style="fill:#648d9a;fill-opacity:1;fill-rule:evenodd;stroke:none"
         d="M 0,0 -62.9,-36.554 -126.213,0 -63.312,36.553 Z" /></g><g
       transform="translate(1037.6936,439.8236)"
       id="g188"><path
         id="path190"
         style="fill:#99ac9c;fill-opacity:1;fill-rule:evenodd;stroke:none"
         d="M 0,0 62.901,36.553 109.927,9.403 47.024,-27.15 Z" /></g><g
       transform="translate(1030.4886,439.8236)"
       id="g192"><path
         id="path194"
         style="fill:#99ac9c;fill-opacity:1;fill-rule:evenodd;stroke:none"
         d="m 0,0 -62.901,-36.553 -63.313,36.551 62.903,36.554 z" /></g><g
       transform="translate(300.0636,476.3736)"
       id="g196"><path
         id="path198"
         style="fill:#648d9a;fill-opacity:1;fill-rule:evenodd;stroke:none"
         d="M 0,0 63.313,-36.553 16.602,-63.698 -46.712,-27.145 Z" /></g><g
       transform="translate(897.0681,439.8216)"
       id="g200"><path
         id="path202"
         style="fill:#99ac9c;fill-opacity:1;fill-rule:evenodd;stroke:none"
         d="M 0,0 -62.9,-36.555 -126.213,0 -63.311,36.554 Z" /></g><g
       transform="translate(763.6414,439.8269)"
       id="g204"><path
         id="path206"
         style="fill:#648d9a;fill-opacity:1;fill-rule:evenodd;stroke:none"
         d="m 0,0 -62.9,-36.555 -63.305,36.55 62.901,36.554 z" /></g><g
       transform="translate(630.2147,439.8216)"
       id="g208"><path
         id="path210"
         style="fill:#648d9a;fill-opacity:1;fill-rule:evenodd;stroke:none"
         d="m 0,0 -62.894,-36.551 -63.312,36.555 62.892,36.548 z" /></g><g
       transform="translate(971.2031,401.1816)"
       id="g212"><path
         id="path214"
         style="fill:#99ac9c;fill-opacity:1;fill-rule:evenodd;stroke:none"
         d="M 0,0 62.901,36.554 109.923,9.405 47.023,-27.15 Z" /></g><g
       transform="translate(366.992,437.7337)"
       id="g216"><path
         id="path218"
         style="fill:#648d9a;fill-opacity:1;fill-rule:evenodd;stroke:none"
         d="M 0,0 63.312,-36.553 16.6,-63.7 -46.712,-27.145 Z" /></g><g
       transform="translate(963.9962,401.1816)"
       id="g220"><path
         id="path222"
         style="fill:#99ac9c;fill-opacity:1;fill-rule:evenodd;stroke:none"
         d="M 0,0 -62.902,-36.555 -126.212,0 -63.313,36.554 Z" /></g><g
       transform="translate(830.5763,401.1816)"
       id="g224"><path
         id="path226"
         style="fill:#99ac9c;fill-opacity:1;fill-rule:evenodd;stroke:none"
         d="m 0,0 -62.9,-36.555 -63.313,36.554 62.901,36.555 z" /></g><g
       transform="translate(697.1412,401.1802)"
       id="g228"><path
         id="path230"
         style="fill:#648d9a;fill-opacity:1;fill-rule:evenodd;stroke:none"
         d="M 0,0 -62.894,-36.551 -126.198,0 -63.304,36.549 Z" /></g><g
       transform="translate(904.7097,362.5404)"
       id="g232"><path
         id="path234"
         style="fill:#99ac9c;fill-opacity:1;fill-rule:evenodd;stroke:none"
         d="M 0,0 62.902,36.555 109.925,9.403 47.025,-27.15 Z" /></g><g
       transform="translate(433.918,399.0938)"
       id="g236"><path
         id="path238"
         style="fill:#648d9a;fill-opacity:1;fill-rule:evenodd;stroke:none"
         d="M 0,0 63.313,-36.556 16.602,-63.7 -46.71,-27.147 Z" /></g><g
       transform="translate(897.5046,362.5404)"
       id="g240"><path
         id="path242"
         style="fill:#99ac9c;fill-opacity:1;fill-rule:evenodd;stroke:none"
         d="M 0,0 -62.901,-36.556 -126.215,0 -63.313,36.553 Z" /></g><g
       transform="translate(764.0774,362.5349)"
       id="g244"><path
         id="path246"
         style="fill:#648d9a;fill-opacity:1;fill-rule:evenodd;stroke:none"
         d="m 0,0 -62.893,-36.55 -63.313,36.555 62.892,36.549 z" /></g><g
       transform="translate(630.6493,362.5383)"
       id="g248"><path
         id="path250"
         style="fill:#648d9a;fill-opacity:1;fill-rule:evenodd;stroke:none"
         d="m 0,0 -62.901,-36.553 -63.305,36.548 62.902,36.556 z" /></g><g
       transform="translate(838.2181,323.8985)"
       id="g252"><path
         id="path254"
         style="fill:#99ac9c;fill-opacity:1;fill-rule:evenodd;stroke:none"
         d="M 0,0 62.9,36.555 109.925,9.405 47.022,-27.148 Z" /></g><g
       transform="translate(500.8547,360.449)"
       id="g256"><path
         id="path258"
         style="fill:#648d9a;fill-opacity:1;fill-rule:evenodd;stroke:none"
         d="M 0,0 63.304,-36.551 16.592,-63.695 -46.712,-27.147 Z" /></g><g
       transform="translate(831.0039,323.8936)"
       id="g260"><path
         id="path262"
         style="fill:#648d9a;fill-opacity:1;fill-rule:evenodd;stroke:none"
         d="m 0,0 -62.893,-36.549 -63.313,36.554 62.892,36.549 z" /></g><g
       transform="translate(697.584,323.8936)"
       id="g264"><path
         id="path266"
         style="fill:#648d9a;fill-opacity:1;fill-rule:evenodd;stroke:none"
         d="m 0,0 -62.9,-36.554 -63.313,36.552 62.9,36.557 z" /></g><g
       transform="translate(771.7242,285.2585)"
       id="g268"><path
         id="path270"
         style="fill:#648d9a;fill-opacity:1;fill-rule:evenodd;stroke:none"
         d="M 0,0 62.894,36.549 109.918,9.398 47.026,-27.15 Z" /></g><g
       transform="translate(567.7816,321.8071)"
       id="g272"><path
         id="path274"
         style="fill:#648d9a;fill-opacity:1;fill-rule:evenodd;stroke:none"
         d="M 0,0 63.312,-36.553 16.601,-63.699 -46.713,-27.147 Z" /></g><g
       transform="translate(764.5119,285.2536)"
       id="g276"><path
         id="path278"
         style="fill:#648d9a;fill-opacity:1;fill-rule:evenodd;stroke:none"
         d="m 0,0 -62.902,-36.554 -63.313,36.552 62.901,36.554 z" /></g><g
       transform="translate(705.2253,246.6118)"
       id="g280"><path
         id="path282"
         style="fill:#648d9a;fill-opacity:1;fill-rule:evenodd;stroke:none"
         d="M 0,0 62.901,36.554 109.925,9.405 47.023,-27.148 Z" /></g><g
       transform="translate(634.7078,283.1672)"
       id="g284"><path
         id="path286"
         style="fill:#648d9a;fill-opacity:1;fill-rule:evenodd;stroke:none"
         d="M 0,0 63.314,-36.554 16.602,-63.7 -46.711,-27.147 Z" /></g><g
       transform="translate(654.9237,217.3804)"
       id="g288"><path
         id="path290"
         style="fill:#648d9a;fill-opacity:1;fill-rule:evenodd;stroke:none"
         d="M 0,0 46.712,27.145 93.735,-0.003 47.024,-27.149 Z" /></g><g
       transform="translate(628.9113,671.6734)"
       id="g292"><path
         id="path294"
         style="fill:#648d9a;fill-opacity:1;fill-rule:evenodd;stroke:none"
         d="m 0,0 -62.903,-36.554 -47.017,27.145 62.902,36.554 z" /></g><g
       transform="translate(562.4173,633.0319)"
       id="g296"><path
         id="path298"
         style="fill:#648d9a;fill-opacity:1;fill-rule:evenodd;stroke:none"
         d="m 0,0 -62.9,-36.554 -47.018,27.145 62.902,36.555 z" /></g><g
       transform="translate(745.7117,739.5519)"
       id="g300"><path
         id="path302"
         style="fill:#648d9a;fill-opacity:1;fill-rule:evenodd;stroke:none"
         d="M 0,0 -46.708,-27.146 -93.726,0 -47.017,27.145 Z" /></g><g
       transform="translate(563.7228,401.1802)"
       id="g304"><path
         id="path306"
         style="fill:#648d9a;fill-opacity:1;fill-rule:evenodd;stroke:none"
         d="M 0,0 -62.902,-36.555 -126.215,0 -63.314,36.553 Z" /></g><g
       transform="translate(749.3328,737.4606)"
       id="g308"><path
         id="path310"
         style="fill:#5b7c87;fill-opacity:1;fill-rule:evenodd;stroke:none"
         d="m 0,0 -3.621,2.091 -46.708,-27.145 3.62,-2.091 z" /></g><g
       transform="translate(816.2588,698.8202)"
       id="g312"><path
         id="path314"
         style="fill:#5b7c87;fill-opacity:1;fill-rule:evenodd;stroke:none"
         d="m 0,0 -3.612,2.086 -46.711,-27.144 3.616,-2.087 z" /></g><g
       transform="translate(883.1872,660.1787)"
       id="g316"><path
         id="path318"
         style="fill:#5b7c87;fill-opacity:1;fill-rule:evenodd;stroke:none"
         d="m 0,0 -3.614,2.088 -46.711,-27.145 3.616,-2.086 z" /></g><g
       transform="translate(950.1239,621.5334)"
       id="g320"><path
         id="path322"
         style="fill:#5b7c87;fill-opacity:1;fill-rule:evenodd;stroke:none"
         d="m 0,0 -3.625,2.093 -46.708,-27.145 3.622,-2.091 z" /></g><g
       transform="translate(1083.9778,544.2537)"
       id="g324"><path
         id="path326"
         style="fill:#a5c1ad;fill-opacity:1;fill-rule:evenodd;stroke:none"
         d="m 0,0 -3.616,2.086 -46.71,-27.143 3.616,-2.088 z" /></g><g
       transform="translate(1150.9042,505.6137)"
       id="g328"><path
         id="path330"
         style="fill:#a5c1ad;fill-opacity:1;fill-rule:evenodd;stroke:none"
         d="m 0,0 -3.616,2.086 -46.707,-27.145 3.613,-2.086 z" /></g><g
       transform="translate(1104.1906,478.4688)"
       id="g332"><path
         id="path334"
         style="fill:#5b7c87;fill-opacity:1;fill-rule:evenodd;stroke:none"
         d="m 0,0 -3.612,2.086 -63.315,36.554 -3.613,2.088 -63.313,36.552 -3.623,2.091 -63.305,36.549 -3.621,2.091 -63.314,36.554 -3.613,2.087 -63.313,36.553 -3.614,2.088 -63.313,36.553 -3.622,2.092 -47.017,27.145 -3.599,-2.091 47.016,-27.146 h 0.002 l -62.901,-36.555 3.623,-2.091 62.898,36.554 63.313,-36.552 0.002,-0.002 -62.901,-36.552 3.614,-2.088 62.9,36.553 63.311,-36.553 h 0.002 l -62.901,-36.554 3.616,-2.086 62.899,36.554 63.312,-36.554 H -208 l -62.902,-36.554 3.624,-2.092 62.9,36.554 63.302,-36.548 h 0.002 l -62.9,-36.554 3.622,-2.091 62.902,36.554 63.31,-36.554 h 0.002 l -62.9,-36.554 3.615,-2.086 62.9,36.553 63.311,-36.553 h 0.002 l -62.901,-36.554 3.614,-2.086 62.901,36.552 47.024,-27.149 3.598,2.092 z" /></g><g
       transform="translate(1034.076,441.91)"
       id="g336"><path
         id="path338"
         style="fill:#5b7c87;fill-opacity:1;fill-rule:evenodd;stroke:none"
         d="m 0,0 -63.311,36.553 -3.616,2.086 -63.312,36.554 -3.622,2.092 -63.304,36.548 -3.624,2.092 -63.311,36.554 -3.616,2.086 -63.312,36.553 -3.614,2.086 -63.312,36.555 -3.623,2.091 -47.017,27.145 -3.591,-2.086 47.017,-27.146 0.001,-0.002 -62.901,-36.551 3.622,-2.092 62.9,36.554 63.314,-36.554 -62.9,-36.553 3.614,-2.086 62.9,36.554 63.313,-36.554 -62.901,-36.554 3.614,-2.086 62.901,36.551 63.312,-36.551 -62.899,-36.554 3.621,-2.092 62.902,36.553 63.304,-36.547 -62.9,-36.554 3.622,-2.094 62.9,36.554 L -70.516,36.553 -133.415,0 l 3.612,-2.088 62.902,36.553 63.312,-36.551 v -0.002 l -62.9,-36.552 3.616,-2.088 62.899,36.554 47.023,-27.149 3.591,2.086 -47.024,27.151 z" /></g><g
       transform="translate(967.584,403.2681)"
       id="g340"><path
         id="path342"
         style="fill:#5b7c87;fill-opacity:1;fill-rule:evenodd;stroke:none"
         d="m 0,0 -63.312,36.556 -3.614,2.086 -63.313,36.553 -3.622,2.092 -63.306,36.548 -3.621,2.092 -63.314,36.554 -3.613,2.086 -63.313,36.554 -3.614,2.086 -63.314,36.553 -3.621,2.092 -47.018,27.145 -3.589,-2.088 47.016,-27.144 0.001,-10e-4 -62.9,-36.554 3.621,-2.091 62.9,36.554 63.313,-36.552 0.002,-0.002 -62.901,-36.552 3.614,-2.088 62.9,36.553 63.311,-36.551 0.002,-0.002 -62.901,-36.554 3.615,-2.086 62.9,36.554 63.312,-36.554 -62.9,-36.554 3.624,-2.092 62.899,36.554 63.303,-36.548 h 0.002 l -62.9,-36.554 3.622,-2.092 62.901,36.554 63.311,-36.554 h 10e-4 l -62.9,-36.555 3.616,-2.084 62.898,36.554 63.312,-36.554 h 0.002 l -62.902,-36.556 3.616,-2.086 62.9,36.555 47.023,-27.152 3.591,2.088 -47.024,27.151 z" /></g><g
       transform="translate(901.0924,364.6263)"
       id="g344"><path
         id="path346"
         style="fill:#5b7c87;fill-opacity:1;fill-rule:evenodd;stroke:none"
         d="m 0,0 -63.312,36.555 -3.614,2.087 -63.315,36.553 -3.621,2.092 -63.305,36.548 -3.622,2.092 -63.313,36.554 -3.614,2.086 -63.312,36.553 -3.614,2.087 -63.314,36.554 -3.623,2.091 -47.016,27.145 -3.589,-2.086 47.015,-27.145 0.002,-0.002 -62.9,-36.552 3.62,-2.092 62.901,36.554 63.312,-36.554 h 0.002 l -62.902,-36.553 3.614,-2.086 62.902,36.553 63.311,-36.553 h 0.002 l -62.901,-36.554 3.614,-2.086 62.9,36.552 63.313,-36.552 -62.901,-36.554 3.622,-2.092 62.903,36.552 63.304,-36.546 -62.9,-36.556 3.622,-2.091 62.901,36.553 63.31,-36.552 h 0.002 L -133.417,0 l 3.614,-2.086 62.902,36.553 63.31,-36.553 h 0.001 l -62.899,-36.554 3.615,-2.088 62.9,36.556 47.023,-27.151 3.591,2.087 -47.026,27.15 z" /></g><g
       transform="translate(834.6005,325.9863)"
       id="g348"><path
         id="path350"
         style="fill:#5b7c87;fill-opacity:1;fill-rule:evenodd;stroke:none"
         d="m 0,0 -63.312,36.554 -3.614,2.086 -63.313,36.555 -3.622,2.09 -63.306,36.55 -3.622,2.092 -63.313,36.554 -3.614,2.086 -63.312,36.554 -3.614,2.086 -63.314,36.553 -3.623,2.092 -47.016,27.145 -3.598,-2.091 47.016,-27.146 0.002,-0.001 -62.892,-36.549 3.621,-2.091 62.893,36.55 63.311,-36.553 h 0.001 l -62.893,-36.549 3.614,-2.088 62.894,36.548 63.312,-36.552 -62.892,-36.55 3.614,-2.086 62.892,36.548 63.312,-36.552 0.002,-10e-4 -62.894,-36.55 3.623,-2.09 62.893,36.548 63.303,-36.547 0.002,-10e-4 -62.894,-36.551 3.624,-2.089 62.892,36.549 63.313,-36.552 0.001,-0.002 -62.893,-36.55 3.613,-2.087 62.892,36.549 63.313,-36.552 10e-4,-0.002 -62.893,-36.549 3.614,-2.086 62.894,36.549 47.022,-27.148 3.599,2.091 -47.023,27.148 z" /></g><g
       transform="translate(768.1105,287.3448)"
       id="g352"><path
         id="path354"
         style="fill:#5b7c87;fill-opacity:1;fill-rule:evenodd;stroke:none"
         d="m 0,0 -63.315,36.554 -3.613,2.086 -63.313,36.556 -3.624,2.089 -63.304,36.55 -3.622,2.09 -63.313,36.555 -3.614,2.087 -63.314,36.553 -3.613,2.089 -63.313,36.552 -3.621,2.091 -47.018,27.145 -3.6,-2.091 47.018,-27.145 h 0.002 l -62.901,-36.554 3.621,-2.092 62.901,36.554 63.312,-36.554 -62.9,-36.554 3.615,-2.086 62.901,36.554 63.312,-36.554 -62.902,-36.554 3.615,-2.086 62.901,36.554 63.312,-36.554 h 0.002 l -62.902,-36.555 3.623,-2.09 62.902,36.554 63.302,-36.548 h 0.002 l -62.901,-36.556 3.622,-2.091 62.901,36.553 63.31,-36.553 h 0.003 l -62.901,-36.554 3.614,-2.088 62.9,36.553 L -3.6,-2.091 h 10e-4 l -62.901,-36.554 3.615,-2.088 62.901,36.554 47.022,-27.149 3.6,2.092 -47.026,27.15 z" /></g><g
       transform="translate(701.6082,248.6996)"
       id="g356"><path
         id="path358"
         style="fill:#5b7c87;fill-opacity:1;fill-rule:evenodd;stroke:none"
         d="m 0,0 -63.312,36.554 -3.614,2.086 -63.313,36.554 -3.623,2.091 -63.305,36.549 -3.621,2.091 -63.312,36.556 -3.616,2.086 -63.312,36.553 -3.616,2.086 -63.312,36.555 -3.621,2.091 -47.018,27.145 -3.589,-2.086 47.016,-27.146 0.001,-10e-4 -46.71,-27.145 3.62,-2.09 46.711,27.145 63.312,-36.554 -46.709,-27.144 3.615,-2.087 46.71,27.143 63.311,-36.551 h 0.002 l -46.711,-27.147 3.616,-2.087 46.708,27.146 63.313,-36.554 -46.709,-27.145 3.622,-2.092 46.711,27.146 63.302,-36.549 0.002,-0.002 -46.711,-27.143 3.623,-2.093 46.711,27.145 63.31,-36.552 0.002,-0.002 -46.709,-27.143 3.614,-2.088 46.711,27.145 63.31,-36.552 0.002,-0.002 -46.711,-27.145 3.615,-2.086 46.71,27.145 47.023,-27.149 3.589,2.087 -47.023,27.15 z" /></g><g
       transform="translate(1017.0504,582.8935)"
       id="g360"><path
         id="path362"
         style="fill:#a5c1ad;fill-opacity:1;fill-rule:evenodd;stroke:none"
         d="m 0,0 -3.622,2.091 -46.711,-27.143 3.624,-2.093 z" /></g><g
       transform="translate(698.9563,1270.6941)"
       id="g364"><path
         id="path366"
         style="fill:#f0edea;fill-opacity:1;fill-rule:evenodd;stroke:none"
         d="m 0,0 -26.426,-16.042 -0.562,-0.009 -495.977,-288.231 26.879,-15.624 495.977,288.233 0.588,0.356 497.475,-287.831 27.098,15.625 z" /></g><g
       transform="translate(698.7028,807.6156)"
       id="g368"><path
         id="path370"
         style="fill:#435b62;fill-opacity:1;fill-rule:evenodd;stroke:none"
         d="m 0,0 -0.001,-6.964 -61.042,-35.619 -6.575,-3.822 -65.505,-38.206 -6.574,-3.839 -65.49,-38.19 -6.591,-3.855 -65.488,-38.191 -6.574,-3.837 -65.505,-38.208 -6.575,-3.82 -65.505,-38.223 -6.574,-3.822 -67.952,-35.325 -0.017,-37.234 67.969,35.322 6.574,3.825 65.505,38.222 6.575,3.822 65.505,38.206 6.574,3.838 65.488,38.192 6.591,3.853 65.49,38.192 6.574,3.837 65.505,38.208 6.575,3.822 61.042,35.619 L 0.01,0 Z" /></g><g
       transform="translate(1197.0481,513.1759)"
       id="g372"><path
         id="path374"
         style="fill:#49666e;fill-opacity:1;fill-rule:evenodd;stroke:none"
         d="m 0,0 v -37.235 l -67.747,39.193 -6.559,3.806 -65.506,37.91 -6.572,3.79 -65.49,37.909 -6.59,3.807 -65.505,37.893 -6.574,3.805 -65.49,37.894 -6.575,3.806 -65.506,37.893 -6.589,3.806 -63.463,36.723 v 37.235 l 63.463,-36.724 6.589,-3.806 65.506,-37.893 6.575,-3.806 65.49,-37.893 6.574,-3.806 65.505,-37.893 6.59,-3.806 65.49,-37.909 6.572,-3.791 65.506,-37.91 6.559,-3.804 z" /></g><g
       transform="translate(204.5385,517.9743)"
       id="g376"><path
         id="path378"
         style="fill:#d8d1d2;fill-opacity:1;fill-rule:nonzero;stroke:none"
         d="M 0,0 -0.001,-5.559 H 0.016 L 0.018,0.007 Z" /></g><g
       transform="translate(1025.8051,446.6874)"
       id="g380"><path
         id="path382"
         style="fill:#666159;fill-opacity:1;fill-rule:evenodd;stroke:none"
         d="m 0,0 h -0.005 l -50.102,28.928 -0.002,0.002 z m 84.43,28.291 -6.045,3.49 -3.611,2.086 -11.625,6.711 h 0.002 l 11.625,-6.711 16.836,9.785 -16.836,-9.785 3.613,-2.086 6.041,-3.488 z" /></g><g
       id="g384"><g
         clip-path="url(#clipPath390)"
         id="g386"><g
           transform="translate(1109.3109,526.7125)"
           id="g392"><path
             id="path394"
             style="fill:#434642;fill-opacity:1;fill-rule:evenodd;stroke:none"
             d="M 0,0 -2.049,1.187 -2.144,2.66 C -1.396,1.789 -0.681,0.903 0,0" /></g><g
           transform="translate(1194.4655,561.9356)"
           id="g396"><path
             id="path398"
             style="fill:#a6a8ab;fill-opacity:1;fill-rule:evenodd;stroke:none"
             d="m 0,0 c 1.626,0.94 2.439,2.179 2.436,3.419 l 0.198,-86.323 c 0.004,-1.24 -0.81,-2.481 -2.436,-3.421 l -340.502,-194.537 v 86.323 z" /></g><g
           transform="translate(691.3394,461.7007)"
           id="g400"><path
             id="path402"
             style="fill:#dadddc;fill-opacity:1;fill-rule:evenodd;stroke:none"
             d="M 0,0 0.03,-0.267 0.083,-0.478 0.155,-0.73 0.24,-0.931 0.361,-1.19 l 0.111,-0.186 0.195,-0.288 0.135,-0.167 0.353,-0.381 0.131,-0.13 0.25,-0.206 0.233,-0.186 0.293,-0.194 0.315,-0.203 154.482,-89.777 c 0.359,-0.208 0.752,-0.385 1.156,-0.546 l 0.319,-0.121 c 0.25,-0.091 0.514,-0.163 0.775,-0.236 0.275,-0.078 0.549,-0.151 0.833,-0.207 0.333,-0.069 0.671,-0.131 1.014,-0.175 l 0.244,-0.032 c 0.46,-0.052 0.927,-0.074 1.396,-0.078 l 0.226,-0.002 v -86.323 l -0.027,10e-4 -0.371,0.001 c -0.311,0.01 -0.619,0.031 -0.927,0.064 l -0.099,0.012 -0.244,0.035 c -0.241,0.028 -0.482,0.056 -0.719,0.098 l -0.294,0.074 c -0.285,0.06 -0.559,0.131 -0.833,0.208 l -0.445,0.111 -0.329,0.124 -0.32,0.123 c -0.404,0.16 -0.796,0.337 -1.156,0.546 l -154.482,89.775 -0.1,0.06 -0.216,0.144 -0.293,0.196 -0.232,0.183 -0.251,0.207 -0.048,0.039 -0.084,0.092 -0.354,0.379 -0.074,0.081 -0.058,0.088 -0.195,0.288 -0.081,0.119 -0.031,0.066 -0.121,0.261 -0.069,0.147 -0.017,0.055 -0.071,0.25 -0.047,0.164 -0.006,0.047 -0.03,0.267 -0.019,0.165 -0.001,0.073 -0.199,86.325 z" /></g><g
           transform="translate(693.7549,465.3595)"
           id="g404"><path
             id="path406"
             style="fill:#ffffff;fill-opacity:1;fill-rule:evenodd;stroke:none"
             d="m 0,0 c -3.233,-1.868 -3.25,-4.923 -0.038,-6.79 l 154.482,-89.777 c 3.22,-1.87 8.495,-1.871 11.729,-0.003 L 500.711,96.576 c 3.235,1.867 3.251,4.924 0.032,6.793 l -154.48,89.777 c -3.216,1.867 -8.492,1.867 -11.726,-10e-4 z" /></g><g
           transform="translate(734.2037,457.5387)"
           id="g408"><path
             id="path410"
             style="fill:#e1e4e6;fill-opacity:1;fill-rule:evenodd;stroke:none"
             d="m 0,0 22.621,-13.148 94.733,-55.056 c 1.557,-0.904 3.483,-0.904 5.048,0 l 267.623,154.506 7.167,4.143 22.611,13.052 c 3.354,1.935 3.354,6.779 0.01,8.724 l -117.347,68.194 c -0.903,0.524 -1.926,0.747 -2.937,0.66 -0.739,-0.048 -1.458,-0.271 -2.119,-0.65 L 0.008,8.724 C -3.347,6.789 -3.347,1.946 0,0" /></g><g
           transform="translate(1033.733,638.6138)"
           id="g412"><path
             id="path414"
             style="fill:#c4c5c6;fill-opacity:1;fill-rule:evenodd;stroke:none"
             d="m 0,0 0.117,-40.282 v -0.066 l 0.019,-0.168 0.03,-0.271 0.01,-0.039 0.038,-0.166 0.078,-0.251 0.01,-0.059 0.078,-0.147 0.115,-0.262 0.031,-0.058 0.088,-0.126 0.193,-0.283 0.059,-0.088 0.067,-0.086 0.361,-0.381 0.077,-0.087 0.048,-0.039 0.253,-0.204 0.235,-0.184 0.292,-0.195 0.213,-0.146 0.097,-0.058 87.987,-51.127 29.778,17.195 c 3.353,1.934 3.353,6.779 0.01,8.724 L 2.936,-0.66 C 2.033,-0.136 1.011,0.087 0,0" /></g><g
           transform="translate(756.8243,444.3903)"
           id="g416"><path
             id="path418"
             style="fill:#bae6fb;fill-opacity:1;fill-rule:evenodd;stroke:none"
             d="m 0,0 94.734,-55.056 c 1.556,-0.903 3.482,-0.903 5.048,0 l 267.622,154.506 7.168,4.144 -94.727,55.045 c -0.903,0.526 -1.926,0.749 -2.936,0.662 -0.74,-0.048 -1.459,-0.273 -2.119,-0.652 z" /></g><g
           transform="translate(1073.109,514.3278)"
           id="g420"><path
             id="path422"
             style="fill:#a8dcf7;fill-opacity:1;fill-rule:evenodd;stroke:none"
             d="m 0,0 51.12,29.513 7.167,4.143 -94.727,55.046 c -0.897,0.521 -1.911,0.746 -2.915,0.663 V 22.74 Z" /></g><g
           transform="translate(756.8242,444.3903)"
           id="g424"><path
             id="path426"
             style="fill:#98d4f4;fill-opacity:1;fill-rule:evenodd;stroke:none"
             d="M 0,0 58.101,-33.766 276.93,92.677 v 66.626 l -0.021,-0.002 c -0.74,-0.048 -1.458,-0.273 -2.119,-0.652 z" /></g><g
           transform="translate(838.5987,323.6795)"
           id="g428"><path
             id="path430"
             style="fill:#7b8e81;fill-opacity:1;fill-rule:evenodd;stroke:none"
             d="M 0,0 -0.381,0.219 -0.157,0.35 C -0.105,0.234 -0.052,0.115 0,0" /></g><g
           transform="translate(1091.4982,625.73)"
           id="g432"><path
             id="path434"
             style="fill:#aaacaf;fill-opacity:1;fill-rule:evenodd;stroke:none"
             d="M 0,0 10.935,-7.648 V -23.566 L 0,-17.28 Z" /></g><g
           transform="translate(1113.6312,633.1468)"
           id="g436"><path
             id="path438"
             style="fill:#d2d4d5;fill-opacity:1;fill-rule:evenodd;stroke:none"
             d="m 0,0 v -24.665 l -11.198,-6.465 v 16.065 l -27.794,-16.048 v 8.6 z" /></g><g
           transform="translate(1063.7039,616.9671)"
           id="g440"><path
             id="path442"
             style="fill:#e6e7e8;fill-opacity:1;fill-rule:evenodd;stroke:none"
             d="M 0,0 38.993,22.512 49.927,16.18 10.935,-6.333 Z" /></g><g
           transform="translate(1063.7039,616.9671)"
           id="g444"><path
             id="path446"
             style="fill:#aaacaf;fill-opacity:1;fill-rule:evenodd;stroke:none"
             d="m 0,0 10.935,-6.333 v -8.6 L 0,-8.569 Z" /></g><g
           transform="translate(1135.5363,944.416)"
           id="g448"><path
             id="path450"
             style="fill:#96bac3;fill-opacity:1;fill-rule:evenodd;stroke:none"
             d="m 0,0 -0.506,-72.309 -155.482,89.766 0.508,72.309 z" /></g><g
           transform="translate(973.608,958.4187)"
           id="g452"><path
             id="path454"
             style="fill:#f4fafa;fill-opacity:1;fill-rule:evenodd;stroke:none"
             d="m 0,0 5.94,3.454 155.479,-89.766 -5.939,-3.454 z" /></g><g
           transform="translate(974.1156,1030.73)"
           id="g456"><path
             id="path458"
             style="fill:#96909b;fill-opacity:1;fill-rule:evenodd;stroke:none"
             d="m 0,0 5.939,3.453 -0.506,-72.31 -5.941,-3.454 z" /></g><g
           transform="translate(1139.4594,946.584)"
           id="g460"><path
             id="path462"
             style="fill:#96909b;fill-opacity:1;fill-rule:evenodd;stroke:none"
             d="M 0,0 5.931,3.47 5.362,-91.441 -0.57,-94.91 Z" /></g><g
           transform="translate(964.3144,1047.705)"
           id="g464"><path
             id="path466"
             style="fill:#f4fafa;fill-opacity:1;fill-rule:evenodd;stroke:none"
             d="m 0,0 5.931,3.469 175.145,-101.12 -5.931,-3.47 z" /></g><g
           transform="translate(1129.0875,868.6526)"
           id="g468"><path
             id="path470"
             style="fill:#e5e1e2;fill-opacity:1;fill-rule:evenodd;stroke:none"
             d="m 0,0 0.508,72.311 -155.48,89.766 -0.508,-72.311 z M -164.773,179.052 10.372,77.931 9.802,-16.979 -165.344,84.143 Z" /></g><g
           transform="translate(922.1947,1067.7927)"
           id="g472"><path
             id="path474"
             style="fill:#96bac3;fill-opacity:1;fill-rule:evenodd;stroke:none"
             d="m 0,0 -0.506,-72.309 -155.482,89.766 0.509,72.309 z" /></g><g
           transform="translate(760.2665,1081.7954)"
           id="g476"><path
             id="path478"
             style="fill:#f4fafa;fill-opacity:1;fill-rule:evenodd;stroke:none"
             d="m 0,0 5.941,3.454 155.479,-89.766 -5.941,-3.454 z" /></g><g
           transform="translate(760.7742,1154.1068)"
           id="g480"><path
             id="path482"
             style="fill:#96909b;fill-opacity:1;fill-rule:evenodd;stroke:none"
             d="M 0,0 5.939,3.454 5.433,-68.857 -0.508,-72.311 Z" /></g><g
           transform="translate(926.1179,1069.9609)"
           id="g484"><path
             id="path486"
             style="fill:#96909b;fill-opacity:1;fill-rule:evenodd;stroke:none"
             d="M 0,0 5.931,3.469 5.362,-91.441 -0.57,-94.91 Z" /></g><g
           transform="translate(750.9732,1171.0818)"
           id="g488"><path
             id="path490"
             style="fill:#f4fafa;fill-opacity:1;fill-rule:evenodd;stroke:none"
             d="m 0,0 5.93,3.469 175.146,-101.12 -5.931,-3.47 z" /></g><g
           transform="translate(915.746,992.0294)"
           id="g492"><path
             id="path494"
             style="fill:#e5e1e2;fill-opacity:1;fill-rule:evenodd;stroke:none"
             d="m 0,0 0.508,72.311 -155.48,89.766 -0.507,-72.311 z M -164.773,179.052 10.372,77.932 9.802,-16.979 -165.344,84.143 Z" /></g><g
           transform="translate(245.3972,593.0371)"
           id="g496"><path
             id="path498"
             style="fill:#e4e0df;fill-opacity:1;fill-rule:evenodd;stroke:none"
             d="M 0,0 43.933,25.365 87.867,0 43.933,-25.365 Z" /></g><g
           transform="translate(252.7895,593.0371)"
           id="g500"><path
             id="path502"
             style="fill:#bdbfc1;fill-opacity:1;fill-rule:evenodd;stroke:none"
             d="M 0,0 36.541,-21.097 73.082,0 36.541,21.097 Z" /></g><g
           transform="translate(245.3972,593.0371)"
           id="g504"><path
             id="path506"
             style="fill:#b6b7b9;fill-opacity:1;fill-rule:evenodd;stroke:none"
             d="m 0,0 43.933,-25.365 v -92.406 L 0,-92.406 Z" /></g><g
           transform="translate(251.4189,582.6071)"
           id="g508"><path
             id="path510"
             style="fill:#d2d4d5;fill-opacity:1;fill-rule:evenodd;stroke:none"
             d="m 0,0 v -20.101 l 31.89,-18.411 v 20.101 z" /></g><g
           transform="translate(283.242,564.234)"
           id="g512"><path
             id="path514"
             style="fill:#e6e7e8;fill-opacity:1;fill-rule:evenodd;stroke:none"
             d="M 0,0 -30.192,17.432 V -0.786 L 0,-18.218 Z" /></g><g
           transform="translate(333.2638,593.0371)"
           id="g516"><path
             id="path518"
             style="fill:#8e9193;fill-opacity:1;fill-rule:evenodd;stroke:none"
             d="m 0,0 -43.933,-25.365 v -92.406 L 0,-92.406 Z" /></g><g
           transform="translate(289.3305,614.1341)"
           id="g520"><path
             id="path522"
             style="fill:#aaacaf;fill-opacity:1;fill-rule:evenodd;stroke:none"
             d="m 0,0 -36.541,-21.097 2.712,-1.566 L 0,-3.132 Z" /></g><g
           transform="translate(289.3305,614.1341)"
           id="g524"><path
             id="path526"
             style="fill:#96989b;fill-opacity:1;fill-rule:evenodd;stroke:none"
             d="M 0,0 36.541,-21.097 33.828,-22.663 0,-3.132 Z" /></g><g
           transform="translate(327.2419,582.6071)"
           id="g528"><path
             id="path530"
             style="fill:#d2d4d5;fill-opacity:1;fill-rule:evenodd;stroke:none"
             d="m 0,0 v -20.101 l -31.89,-18.411 v 20.101 z" /></g><g
           transform="translate(295.4188,564.234)"
           id="g532"><path
             id="path534"
             style="fill:#e6e7e8;fill-opacity:1;fill-rule:evenodd;stroke:none"
             d="M 0,0 30.192,17.432 V -0.786 L 0,-18.218 Z" /></g><g
           transform="translate(840.5052,588.3277)"
           id="g536"><path
             id="path538"
             style="fill:#e1e4e6;fill-opacity:1;fill-rule:evenodd;stroke:none"
             d="m 0,0 c -16.64,-9.607 -59.308,-6.105 -53.393,35.391 3.169,22.321 8.144,45.79 12.099,68.144 l 7.555,42.709 33.848,15.594 47.503,-22.052 0.637,-10.003 1.688,-26.498 V 28.831 Z" /></g><g
           transform="translate(840.5052,588.3277)"
           id="g540"><path
             id="path542"
             style="fill:#c8cacc;fill-opacity:1;fill-rule:evenodd;stroke:none"
             d="m 0,0 c -16.64,-9.607 -59.308,-6.105 -53.393,35.391 2.116,14.903 5.037,30.318 7.922,45.571 l 45.471,0 z" /></g><g
           transform="translate(881.3172,703.801)"
           id="g544"><path
             id="path546"
             style="fill:#c8cacc;fill-opacity:1;fill-rule:evenodd;stroke:none"
             d="m 0,0 c -11.272,-12.049 -24.01,-27.572 -39.877,-33.362 -0.183,-0.067 -0.365,-0.132 -0.548,-0.198 -0.309,-0.11 -0.621,-0.221 -0.931,-0.329 -0.182,-0.064 -0.367,-0.128 -0.549,-0.19 -0.328,-0.113 -0.658,-0.225 -0.986,-0.333 -0.163,-0.054 -0.324,-0.11 -0.486,-0.162 -0.425,-0.139 -0.851,-0.276 -1.277,-0.411 l -0.397,-0.124 c -0.395,-0.122 -0.788,-0.243 -1.182,-0.36 l -0.141,-0.043 c -0.139,-0.04 -0.277,-0.082 -0.414,-0.12 -0.344,-0.103 -0.689,-0.202 -1.035,-0.3 -0.184,-0.052 -0.368,-0.104 -0.553,-0.157 -0.318,-0.087 -0.635,-0.175 -0.954,-0.261 -0.19,-0.052 -0.38,-0.102 -0.571,-0.151 l -0.151,-0.04 c -0.499,-0.13 -0.998,-0.259 -1.499,-0.382 -0.206,-0.052 -0.411,-0.103 -0.616,-0.152 -0.421,-0.101 -0.843,-0.202 -1.263,-0.298 -0.215,-0.049 -0.429,-0.099 -0.646,-0.149 -0.447,-0.099 -0.897,-0.197 -1.347,-0.292 -0.17,-0.036 -0.339,-0.074 -0.538,-0.116 -0.544,-0.111 -1.09,-0.221 -1.635,-0.327 l -0.086,-0.016 c -0.23,-0.043 -0.459,-0.085 -0.687,-0.126 -0.396,-0.074 -0.789,-0.146 -1.184,-0.215 -0.261,-0.046 -0.523,-0.091 -0.781,-0.134 -0.384,-0.064 -0.771,-0.128 -1.156,-0.187 -0.262,-0.042 -0.525,-0.082 -0.788,-0.122 -0.388,-0.058 -0.775,-0.113 -1.161,-0.168 -0.257,-0.037 -0.514,-0.071 -0.771,-0.105 -0.407,-0.055 -0.814,-0.106 -1.219,-0.155 -0.194,-0.023 -0.389,-0.047 -0.582,-0.071 l -0.2,-0.022 c -0.454,-0.052 -0.905,-0.1 -1.357,-0.146 l -0.26,-0.028 c -0.19,-0.018 -0.377,-0.036 -0.565,-0.054 -0.424,-0.039 -0.848,-0.077 -1.271,-0.112 -0.205,-0.018 -0.41,-0.033 -0.614,-0.049 l -0.147,-0.012 c -0.404,-0.03 -0.804,-0.058 -1.208,-0.085 l -0.357,-0.022 c -0.192,-0.012 -0.383,-0.022 -0.575,-0.033 -0.402,-0.022 -0.806,-0.044 -1.209,-0.062 -0.252,-0.012 -0.504,-0.019 -0.758,-0.03 -0.382,-0.013 -0.763,-0.027 -1.144,-0.037 -0.258,-0.006 -0.516,-0.01 -0.775,-0.016 -0.377,-0.008 -0.753,-0.012 -1.128,-0.015 -0.257,-0.002 -0.511,-0.003 -0.766,-0.003 -0.385,0 -0.768,0.003 -1.152,0.007 -0.241,0.003 -0.482,0.005 -0.723,0.009 -0.418,0.01 -0.836,0.02 -1.252,0.033 l -0.396,0.014 c -0.151,0.004 -0.302,0.011 -0.451,0.017 -0.419,0.016 -0.839,0.036 -1.257,0.06 l -0.368,0.019 -0.364,0.022 c -0.32,0.021 -0.643,0.043 -0.961,0.067 -0.166,0.011 -0.332,0.024 -0.496,0.035 l -0.282,0.023 -0.292,0.025 c -0.288,0.024 -0.575,0.051 -0.86,0.076 -0.137,0.013 -0.273,0.025 -0.41,0.04 l -0.067,0.006 c -0.194,0.018 -0.389,0.04 -0.583,0.061 -0.349,0.037 -0.697,0.074 -1.041,0.117 l -0.073,0.007 c -0.241,0.029 -0.479,0.06 -0.719,0.09 -0.356,0.046 -0.71,0.094 -1.063,0.144 -0.227,0.031 -0.451,0.065 -0.675,0.098 l -0.055,0.007 -0.097,0.017 c -0.321,0.047 -0.642,0.097 -0.958,0.149 -0.183,0.032 -0.366,0.061 -0.545,0.092 l -0.061,0.011 -0.401,0.071 c -0.266,0.048 -0.53,0.095 -0.793,0.144 -0.147,0.028 -0.294,0.055 -0.447,0.085 -0.193,0.037 -0.385,0.077 -0.578,0.116 -0.297,0.061 -0.595,0.121 -0.891,0.185 l -0.068,0.015 -0.157,0.033 c -0.214,0.049 -0.428,0.098 -0.642,0.145 -0.328,0.076 -0.656,0.152 -0.981,0.229 -0.248,0.061 -0.495,0.123 -0.741,0.185 -0.316,0.083 -0.635,0.165 -0.951,0.25 -0.222,0.06 -0.441,0.12 -0.662,0.181 l -0.154,0.047 c -0.285,0.08 -0.571,0.161 -0.854,0.247 -0.183,0.054 -0.366,0.109 -0.548,0.165 l -0.278,0.086 c -0.275,0.085 -0.548,0.174 -0.823,0.263 -0.144,0.048 -0.291,0.096 -0.436,0.146 l -0.358,0.12 c -0.278,0.094 -0.554,0.193 -0.829,0.291 l -0.334,0.121 -0.309,0.112 -0.175,0.065 c -0.267,0.102 -0.533,0.204 -0.796,0.306 l -0.232,0.093 -0.209,0.083 -0.153,0.061 -0.073,0.03 -0.095,0.038 c -0.294,0.12 -0.585,0.243 -0.876,0.368 l -0.128,0.055 -0.11,0.046 -0.126,0.054 -0.12,0.051 -0.089,0.04 -0.046,0.02 c -0.463,0.206 -0.925,0.416 -1.38,0.633 -12.387,5.917 -18.807,14.986 -19.304,25.05 -0.013,0.425 -0.024,0.834 -0.035,1.223 l 0.008,-0.347 c 0.013,-0.726 0.013,-1.592 0.062,-2.256 0.021,-0.29 0.043,-0.601 0.068,-0.922 0.073,-1.191 0.187,-2.469 0.374,-3.806 l 0.045,-0.313 c 0.025,-0.16 0.049,-0.331 0.077,-0.505 l 0.033,-0.215 0.053,-0.333 0.024,-0.144 c 0.146,-0.888 0.314,-1.834 0.478,-2.596 l 0.027,-0.123 c 0.245,-1.17 0.526,-2.321 0.864,-3.561 l 0.023,-0.091 0.058,-0.199 c 0.042,-0.152 0.084,-0.307 0.129,-0.463 l 0.08,-0.285 c 0.066,-0.23 0.136,-0.468 0.209,-0.709 1.402,-4.664 3.484,-9.451 5.93,-13.638 0.134,-0.23 0.264,-0.453 0.389,-0.658 1.159,-1.922 1.94,-3.112 2.863,-4.369 0.121,-0.163 0.24,-0.325 0.364,-0.49 0.726,-0.993 1.425,-1.887 2.08,-2.683 0.933,-1.167 2.165,-2.523 3.282,-3.629 l 0.072,-0.068 0.129,-0.128 0.204,-0.199 0.058,-0.057 0.22,-0.207 c 1.055,-0.987 1.874,-1.744 2.759,-2.494 0.482,-0.408 0.979,-0.809 1.545,-1.243 0.444,-0.349 0.842,-0.647 1.245,-0.937 0.42,-0.304 0.848,-0.606 1.297,-0.909 0.829,-0.577 1.819,-1.186 2.839,-1.773 l 0.33,-0.205 0.495,-0.258 c 0.738,-0.411 1.518,-0.824 2.355,-1.246 0.15,-0.076 0.295,-0.15 0.438,-0.22 1.165,-0.577 2.775,-1.237 3.991,-1.703 0.504,-0.192 1.089,-0.405 1.683,-0.607 l 0.102,-0.036 0.075,-0.025 c 0.62,-0.212 1.241,-0.41 1.837,-0.572 1.03,-0.284 2.396,-0.695 3.452,-0.9 l 0.207,-0.043 c 0.968,-0.223 1.82,-0.39 2.718,-0.539 0.194,-0.037 0.385,-0.07 0.565,-0.1 1.068,-0.174 2.51,-0.343 3.586,-0.479 0.628,-0.078 2.58,-0.296 5.49,-0.343 0.59,-0.015 1.12,-0.02 1.528,-0.011 0.51,0.004 1.043,0.013 1.594,0.027 0.695,0.009 1.404,0.025 2.005,0.071 0.368,0.02 0.778,0.05 1.199,0.08 0.624,0.042 1.267,0.095 1.925,0.158 0.144,0.01 0.283,0.021 0.419,0.031 l 0.313,0.039 c 0.897,0.092 1.825,0.203 2.78,0.337 0.154,0.021 0.309,0.041 0.455,0.062 0.176,0.027 0.363,0.055 0.555,0.085 2.402,0.367 4.66,0.833 6.703,1.332 0.386,0.089 0.806,0.196 1.238,0.313 0.865,0.225 1.683,0.454 2.45,0.679 0.323,0.092 0.7,0.206 1.111,0.335 3.021,0.935 5.089,1.765 5.75,2.041 1.12,0.465 2.622,1.053 3.723,1.59 l 0.066,0.032 0.348,0.164 c 1.003,0.459 1.882,0.893 2.825,1.386 l 0.262,0.13 0.459,0.253 c 0.871,0.471 1.829,1.003 3.002,1.662 1.101,0.621 1.978,1.164 3.054,1.891 l 0.237,0.158 c 0.206,0.137 0.406,0.272 0.602,0.404 l 0.1,0.067 c 0.17,0.111 0.346,0.233 0.526,0.359 0.999,0.692 1.895,1.35 2.882,2.077 l 0.352,0.276 c 0.14,0.108 0.286,0.222 0.44,0.344 1.368,1.075 2.266,1.809 3.21,2.643 0.179,0.156 0.359,0.314 0.545,0.478 l 0.341,0.297 c 0.322,0.279 0.67,0.604 1.028,0.943 0.722,0.67 1.476,1.395 2.254,2.18 1.323,1.285 2.881,3.029 4.152,4.541 0.165,0.199 0.328,0.394 0.481,0.581 0.172,0.206 0.348,0.423 0.528,0.644 3.005,3.713 5.472,7.306 7.826,11.43 l 0.03,0.048 c 0.665,1.138 1.489,2.694 2.093,3.865 0.103,0.201 0.211,0.41 0.318,0.627 0.336,0.665 0.665,1.338 0.984,2.015 l 0.078,0.16 c 1.293,2.752 2.933,5.707 3.424,8.712 C 1.879,-8.453 0.089,0.095 0,0" /></g><g
           transform="translate(844.9442,677.0875)"
           id="g548"><path
             id="path550"
             style="fill:#e1e4e6;fill-opacity:1;fill-rule:evenodd;stroke:none"
             d="m 0,0 c -0.6,-0.351 -1.215,-0.685 -1.836,-1.016 -0.163,-0.086 -0.328,-0.171 -0.493,-0.257 -0.556,-0.288 -1.12,-0.572 -1.693,-0.845 l -0.227,-0.11 c -0.64,-0.302 -1.291,-0.594 -1.949,-0.877 -0.168,-0.073 -0.34,-0.144 -0.509,-0.216 -0.56,-0.236 -1.126,-0.465 -1.697,-0.687 l -0.375,-0.146 c -0.675,-0.258 -1.358,-0.505 -2.047,-0.742 -0.168,-0.058 -0.337,-0.114 -0.507,-0.171 -0.464,-0.157 -0.935,-0.308 -1.407,-0.456 -0.449,-0.141 -0.897,-0.279 -1.35,-0.411 -0.382,-0.113 -0.764,-0.223 -1.148,-0.33 -0.459,-0.126 -0.921,-0.249 -1.383,-0.368 -0.387,-0.101 -0.775,-0.199 -1.164,-0.292 -0.469,-0.117 -0.94,-0.224 -1.412,-0.328 -0.392,-0.088 -0.783,-0.175 -1.175,-0.258 -0.482,-0.099 -0.968,-0.193 -1.454,-0.285 -0.429,-0.081 -0.858,-0.166 -1.29,-0.24 -0.196,-0.036 -0.394,-0.069 -0.59,-0.101 -0.662,-0.111 -1.327,-0.216 -1.994,-0.314 l -0.34,-0.048 c -0.761,-0.107 -1.527,-0.204 -2.296,-0.292 -0.193,-0.022 -0.386,-0.044 -0.581,-0.064 -0.734,-0.08 -1.473,-0.154 -2.212,-0.216 l -0.086,-0.009 c -0.79,-0.066 -1.585,-0.119 -2.379,-0.165 -0.136,-0.008 -0.269,-0.017 -0.406,-0.024 -0.723,-0.038 -1.444,-0.067 -2.167,-0.089 -0.54,-0.018 -1.082,-0.024 -1.621,-0.033 -0.379,-0.004 -0.756,-0.013 -1.134,-0.015 -0.578,-0.001 -1.156,0.009 -1.735,0.018 -0.34,0.005 -0.681,0.005 -1.02,0.013 -0.533,0.016 -1.063,0.04 -1.594,0.063 -0.366,0.016 -0.735,0.027 -1.104,0.046 -0.572,0.031 -1.142,0.075 -1.714,0.117 -0.325,0.022 -0.649,0.04 -0.973,0.067 -0.69,0.056 -1.379,0.128 -2.068,0.2 -0.199,0.021 -0.4,0.037 -0.6,0.058 -0.888,0.102 -1.77,0.213 -2.651,0.338 -0.136,0.018 -0.273,0.043 -0.41,0.063 -0.758,0.112 -1.518,0.227 -2.27,0.358 -0.311,0.054 -0.618,0.116 -0.928,0.172 -0.575,0.106 -1.148,0.213 -1.719,0.329 -0.711,0.145 -1.418,0.3 -2.12,0.462 -0.141,0.034 -0.281,0.066 -0.422,0.1 -0.729,0.173 -1.455,0.354 -2.176,0.545 l -0.286,0.081 c -0.632,0.171 -1.261,0.352 -1.884,0.537 -0.178,0.054 -0.358,0.106 -0.535,0.159 -0.713,0.22 -1.418,0.445 -2.118,0.683 -0.135,0.048 -0.269,0.095 -0.402,0.141 -0.579,0.203 -1.152,0.41 -1.721,0.622 -0.193,0.073 -0.388,0.147 -0.581,0.221 -0.452,0.176 -0.898,0.358 -1.342,0.541 -0.307,0.128 -0.618,0.253 -0.924,0.383 -0.435,0.188 -0.861,0.38 -1.288,0.577 -0.28,0.128 -0.565,0.252 -0.841,0.384 -0.468,0.222 -0.924,0.453 -1.381,0.685 -0.228,0.116 -0.46,0.225 -0.687,0.343 -0.676,0.356 -1.343,0.72 -1.995,1.097 -10.931,6.312 -16.39,14.595 -16.367,22.866 l -0.018,-6.356 c -0.023,-8.269 5.436,-16.556 16.365,-22.865 0.654,-0.377 1.322,-0.743 1.999,-1.097 0.224,-0.118 0.456,-0.228 0.685,-0.344 0.457,-0.232 0.915,-0.464 1.381,-0.684 0.277,-0.132 0.56,-0.256 0.84,-0.385 0.428,-0.195 0.855,-0.391 1.291,-0.578 0.303,-0.13 0.611,-0.255 0.919,-0.382 0.296,-0.121 0.585,-0.247 0.885,-0.365 0.151,-0.061 0.307,-0.117 0.461,-0.175 0.193,-0.075 0.385,-0.147 0.58,-0.22 0.57,-0.215 1.144,-0.422 1.722,-0.624 0.134,-0.046 0.266,-0.094 0.4,-0.141 0.7,-0.236 1.407,-0.463 2.119,-0.683 0.177,-0.053 0.354,-0.104 0.532,-0.157 0.306,-0.092 0.61,-0.184 0.917,-0.273 0.323,-0.091 0.646,-0.178 0.972,-0.268 l 0.285,-0.077 c 0.72,-0.193 1.445,-0.373 2.174,-0.546 0.141,-0.034 0.282,-0.067 0.423,-0.101 0.64,-0.147 1.283,-0.291 1.929,-0.427 l 0.19,-0.035 c 0.569,-0.117 1.142,-0.221 1.715,-0.327 0.312,-0.056 0.621,-0.12 0.933,-0.173 0.752,-0.129 1.507,-0.247 2.266,-0.359 l 0.394,-0.062 0.021,-10e-4 c 0.88,-0.125 1.764,-0.238 2.649,-0.336 0.2,-0.023 0.402,-0.037 0.602,-0.059 0.688,-0.073 1.375,-0.143 2.067,-0.201 l 0.051,-0.004 c 0.308,-0.025 0.615,-0.04 0.922,-0.064 0.572,-0.04 1.142,-0.083 1.715,-0.116 0.367,-0.02 0.735,-0.028 1.104,-0.044 0.53,-0.024 1.061,-0.05 1.591,-0.063 l 0.131,-0.006 c 0.297,-0.007 0.594,-0.004 0.893,-0.009 0.576,-0.008 1.155,-0.019 1.734,-0.017 0.378,0 0.755,0.01 1.133,0.016 0.541,0.007 1.08,0.015 1.619,0.031 l 0.3,0.006 c 0.624,0.021 1.247,0.051 1.87,0.083 0.135,0.008 0.27,0.016 0.406,0.026 0.793,0.045 1.586,0.097 2.378,0.164 l 0.086,0.008 c 0.471,0.038 0.94,0.083 1.409,0.129 0.271,0.025 0.536,0.058 0.805,0.087 0.193,0.022 0.386,0.042 0.579,0.063 0.768,0.089 1.536,0.184 2.298,0.292 l 0.334,0.049 c 0.668,0.097 1.335,0.202 2,0.314 0.196,0.033 0.392,0.065 0.588,0.099 0.156,0.028 0.313,0.052 0.469,0.08 0.589,0.106 1.165,0.217 1.733,0.333 l 0.231,0.048 c 3.082,0.628 5.882,1.373 8.532,2.233 0.257,0.082 0.504,0.171 0.758,0.257 0.209,0.068 0.42,0.139 0.629,0.212 0.688,0.24 1.368,0.483 2.029,0.735 l 0.354,0.141 c 0.556,0.216 1.1,0.439 1.636,0.663 0.237,0.101 0.475,0.202 0.709,0.304 0.499,0.217 0.987,0.435 1.463,0.658 0.157,0.073 0.314,0.141 0.469,0.215 0.62,0.294 1.214,0.594 1.799,0.897 0.169,0.088 0.337,0.177 0.506,0.266 0.618,0.328 1.222,0.659 1.8,0.994 l 45.515,26.452 0.018,6.354 z" /></g><g
           transform="translate(890.4606,703.5367)"
           id="g552"><path
             id="path554"
             style="fill:#ffffff;fill-opacity:1;fill-rule:evenodd;stroke:none"
             d="m 0,0 -45.516,-26.449 c -21.583,-12.544 -56.691,-12.544 -78.412,-0.002 -21.72,12.541 -21.837,32.875 -0.254,45.419 l 45.516,26.451 z" /></g><g
           transform="translate(918.7417,793.5081)"
           id="g556"><path
             id="path558"
             style="fill:#e1e4e6;fill-opacity:1;fill-rule:evenodd;stroke:none"
             d="m 0,0 -0.209,-95.823 -31.008,-18.021 0.209,95.823 z" /></g><g
           transform="translate(887.7342,775.4876)"
           id="g560"><path
             id="path562"
             style="fill:#c8cacc;fill-opacity:1;fill-rule:evenodd;stroke:none"
             d="m 0,0 -0.21,-73.541 -79.015,45.619 0.209,73.541 z" /></g><g
           transform="translate(918.7417,793.5081)"
           id="g564"><path
             id="path566"
             style="fill:#ffffff;fill-opacity:1;fill-rule:evenodd;stroke:none"
             d="m 0,0 -31.008,-18.021 -79.015,45.62 31.009,18.019 z" /></g><g
           transform="translate(871.0556,803.9847)"
           id="g568"><path
             id="path570"
             style="fill:#a6a9ac;fill-opacity:1;fill-rule:evenodd;stroke:none"
             d="m 0,0 c -0.941,-2.346 -5.407,-2.761 -9.973,-0.925 -4.565,1.835 -7.5,5.225 -6.558,7.57 0.943,2.347 5.408,2.76 9.973,0.925 C -1.992,5.735 0.943,2.346 0,0" /></g><g
           transform="translate(559.5279,1032.8405)"
           id="g572"><path
             id="path574"
             style="fill:#d3d3d3;fill-opacity:1;fill-rule:evenodd;stroke:none"
             d="M 0,0 -11.202,4.687 -217.46,-115.044 v -149.375 l 11.201,-4.833 z" /></g><g
           transform="translate(559.5279,1032.8405)"
           id="g576"><path
             id="path578"
             style="fill:#ffffff;fill-opacity:1;fill-rule:evenodd;stroke:none"
             d="M 0,0 -206.259,-119.794 V -269.252 L 0,-149.54 Z" /></g><g
           transform="translate(553.5406,1017.235)"
           id="g580"><path
             id="path582"
             style="fill:#9cd4e1;fill-opacity:1;fill-rule:evenodd;stroke:none"
             d="m 0,0 -189.069,-109.159 0.448,-130.04 L 0,-130.255 Z" /></g><g
           transform="translate(396.6228,921.6051)"
           id="g584"><path
             id="path586"
             style="fill:#ffffff;fill-opacity:1;fill-rule:evenodd;stroke:none"
             d="M 0,0 43.299,18.216 Z" /></g><g
           transform="translate(530.273,873.5414)"
           id="g588"><path
             id="path590"
             style="fill:#b1dee8;fill-opacity:1;fill-rule:evenodd;stroke:none"
             d="m 0,0 -97.776,73.809 -38.412,-22.177 97.782,-73.814 z m -150.58,43.323 -15.222,-8.788 0.024,-6.829 93.689,-69.343 21.05,12.158 z" /></g><g
           transform="translate(449.0941,674.5451)"
           id="g592"><path
             id="path594"
             style="fill:#c4c3c4;fill-opacity:1;fill-rule:evenodd;stroke:none"
             d="M 0,0 214.71,123.931 V -37.799 L 0,-161.732 Z" /></g><g
           transform="translate(449.0941,674.5451)"
           id="g596"><path
             id="path598"
             style="fill:#d3d3d3;fill-opacity:1;fill-rule:evenodd;stroke:none"
             d="M 0,0 -93.716,54.335 V -107.378 L 0,-161.682 Z" /></g><g
           transform="translate(651.7759,779.1172)"
           id="g600"><path
             id="path602"
             style="fill:#d3d3d3;fill-opacity:1;fill-rule:evenodd;stroke:none"
             d="m 0,0 v -133.914 l -193.013,-111.505 v 133.984 z" /></g><path
           id="path604"
           style="fill:#c4c3c4;fill-opacity:1;fill-rule:evenodd;stroke:none"
           d="m 545.16,579.279 h 12.036 v 164.08 H 545.16 Z" /><g
           transform="translate(663.8038,760.6568)"
           id="g606"><path
             id="path608"
             style="fill:#c4c3c4;fill-opacity:1;fill-rule:evenodd;stroke:none"
             d="m 0,0 -205.04,-118.291 v -13.834 L 0,-13.745 Z" /></g><g
           transform="translate(663.8038,798.4044)"
           id="g610"><path
             id="path612"
             style="fill:#ffffff;fill-opacity:1;fill-rule:evenodd;stroke:none"
             d="m 0,0 -93.94,54.308 -214.486,-123.832 93.716,-54.335 z" /></g><g
           transform="translate(472.1403,700.1556)"
           id="g614"><path
             id="path616"
             style="fill:#d3d3d3;fill-opacity:1;fill-rule:evenodd;stroke:none"
             d="M 0,0 -83.675,48.282 0.551,96.455 83.832,48.373 Z" /></g><g
           transform="translate(388.4654,748.438)"
           id="g618"><path
             id="path620"
             style="fill:#8d8c8d;fill-opacity:1;fill-rule:evenodd;stroke:none"
             d="m 0,0 v -4.192 l 83.675,-48.281 83.832,48.4 v 4.191 l -83.832,-48.4 z" /></g><g
           transform="translate(538.5387,750.0944)"
           id="g622"><path
             id="path624"
             style="fill:#a0a09f;fill-opacity:1;fill-rule:evenodd;stroke:none"
             d="m 0,0 -62.131,36.081 c -2.393,1.01 -5.096,1.01 -7.491,-0.001 l -64.477,-37.284 c -1.776,-0.749 -1.776,-3.267 0,-4.013 l 63.008,-34.475 c 2.393,-1.007 5.09,-1.007 7.477,0 L 0,-4.018 C 1.776,-3.267 1.776,-0.751 0,0" /></g><g
           transform="translate(424.7893,733.7432)"
           id="g626"><path
             id="path628"
             style="fill:#b9b9ba;fill-opacity:1;fill-rule:evenodd;stroke:none"
             d="m 0,0 42.658,-23.341 c 2.393,-1.007 5.09,-1.007 7.478,0 L 93.692,1.085 51.618,25.518 c -2.393,1.01 -5.096,1.01 -7.49,-0.001 z" /></g><g
           transform="translate(432.3743,776.4645)"
           id="g630"><path
             id="path632"
             style="fill:#ffffff;fill-opacity:1;fill-rule:evenodd;stroke:none"
             d="M 0,0 5.555,2.346 21.936,-4.563 16.389,-6.865 Z" /></g><g
           transform="translate(428.7087,763.6511)"
           id="g634"><path
             id="path636"
             style="fill:#b9b9ba;fill-opacity:1;fill-rule:evenodd;stroke:none"
             d="M 0,0 V 11.289 L 3.666,12.813 20.055,5.948 V 2.86 L 7.33,8.25 3.666,6.719 v -8.26 z" /></g><g
           transform="translate(432.3743,770.3697)"
           id="g638"><path
             id="path640"
             style="fill:#a0a09f;fill-opacity:1;fill-rule:evenodd;stroke:none"
             d="M 0,0 3.664,1.532 5.606,0.681 V -5.857 L 0,-8.259 Z" /></g><g
           transform="translate(431.6737,768.2322)"
           id="g642"><path
             id="path644"
             style="fill:#a0a09f;fill-opacity:1;fill-rule:evenodd;stroke:none"
             d="m 0,0 c 0.453,-2.713 -0.21,-5.084 -1.486,-5.3 -1.277,-0.21 -2.677,1.812 -3.13,4.526 -0.458,2.709 0.211,5.083 1.488,5.294 C -1.857,4.736 -0.452,2.708 0,0" /></g><g
           transform="translate(428.544,772.7525)"
           id="g646"><path
             id="path648"
             style="fill:#a0a09f;fill-opacity:1;fill-rule:evenodd;stroke:none"
             d="m 0,0 -5.577,-2.357 1.643,-9.818 5.577,2.356 z" /></g><g
           transform="translate(426.0965,765.8754)"
           id="g650"><path
             id="path652"
             style="fill:#d3d3d3;fill-opacity:1;fill-rule:evenodd;stroke:none"
             d="M 0,0 C 0.458,-2.713 -0.21,-5.084 -1.486,-5.298 -2.76,-5.51 -4.163,-3.486 -4.616,-0.774 -5.07,1.935 -4.406,4.31 -3.13,4.52 -1.853,4.736 -0.453,2.712 0,0" /></g><g
           transform="translate(448.7637,769.5993)"
           id="g654"><path
             id="path656"
             style="fill:#a0a09f;fill-opacity:1;fill-rule:evenodd;stroke:none"
             d="M 0,0 5.546,2.302 V -0.681 L 0,-3.088 Z" /></g><g
           transform="translate(258.0284,827.4138)"
           id="g658"><path
             id="path660"
             style="fill:#485052;fill-opacity:1;fill-rule:evenodd;stroke:none"
             d="M 0,0 -34.454,19.892 V -107.157 L 0,-127.049 Z" /></g><g
           transform="translate(258.0284,827.4138)"
           id="g662"><path
             id="path664"
             style="fill:#485052;fill-opacity:1;fill-rule:evenodd;stroke:none"
             d="M 0,0 58.28,33.648 V -93.401 L 0,-127.049 Z" /></g><g
           transform="translate(258.0284,833.0664)"
           id="g666"><path
             id="path668"
             style="fill:#3f4244;fill-opacity:1;fill-rule:evenodd;stroke:none"
             d="M 0,0 -34.454,19.892 V -107.157 L 0,-127.049 Z" /></g><g
           transform="translate(223.5745,847.3058)"
           id="g670"><path
             id="path672"
             style="fill:#a6a8ab;fill-opacity:1;fill-rule:evenodd;stroke:none"
             d="m 0,0 v -121.396 l 34.454,-19.892 v 121.396 z" /></g><g
           transform="translate(258.0284,833.0664)"
           id="g674"><path
             id="path676"
             style="fill:#485052;fill-opacity:1;fill-rule:evenodd;stroke:none"
             d="M 0,0 58.28,33.648 V -93.401 L 0,-127.049 Z" /></g><g
           transform="translate(316.3083,861.0617)"
           id="g678"><path
             id="path680"
             style="fill:#dadddc;fill-opacity:1;fill-rule:evenodd;stroke:none"
             d="m 0,0 v -121.396 l -58.28,-33.648 v 121.396 z" /></g><g
           transform="translate(223.5745,852.9584)"
           id="g682"><path
             id="path684"
             style="fill:#525a5d;fill-opacity:1;fill-rule:evenodd;stroke:none"
             d="M 0,0 58.28,33.648 92.734,13.756 34.454,-19.892 Z" /></g><g
           transform="translate(304.1171,794.4137)"
           id="g686"><path
             id="path688"
             style="fill:#525a5d;fill-opacity:1;fill-rule:evenodd;stroke:none"
             d="m 0,0 v -61.786 l -33.897,-19.571 v 61.786 z" /></g><g
           transform="translate(289.9819,769.8211)"
           id="g690"><path
             id="path692"
             style="fill:#a6a8ab;fill-opacity:1;fill-rule:evenodd;stroke:none"
             d="m 0,0 c 2.743,0.519 4.733,-0.497 5.871,-2.449 1.095,-1.878 1.366,-4.649 0.603,-7.871 -0.745,-3.149 -2.357,-6.221 -4.368,-8.693 -2.022,-2.485 -4.512,-4.44 -7.039,-5.288 -2.613,-0.877 -4.822,-0.426 -6.27,1.078 -1.507,1.564 -2.191,4.27 -1.62,7.75 0.585,3.575 2.366,7.189 4.752,10.055 C -5.697,-2.566 -2.743,-0.519 0,0" /></g><g
           transform="translate(290.7418,769.0071)"
           id="g694"><path
             id="path696"
             style="fill:#dadddc;fill-opacity:1;fill-rule:evenodd;stroke:none"
             d="m 0,0 c 2.636,0.498 4.547,-0.478 5.641,-2.353 1.052,-1.804 1.312,-4.466 0.578,-7.562 -0.715,-3.025 -2.263,-5.976 -4.196,-8.351 -1.942,-2.388 -4.335,-4.266 -6.762,-5.081 -2.511,-0.842 -4.633,-0.409 -6.024,1.036 -1.448,1.503 -2.104,4.102 -1.557,7.446 0.563,3.435 2.273,6.906 4.566,9.66 2.28,2.74 5.118,4.707 7.754,5.205" /></g></g></g></g></svg>