<svg width="25" height="24" viewBox="0 0 25 24" fill="none" xmlns="http://www.w3.org/2000/svg">
<path d="M9.49219 21.002H15.4922" stroke="#202939" stroke-width="1.5" stroke-linecap="round" stroke-linejoin="round"/>
<path d="M5.76855 9.74994C5.76731 8.86045 5.94213 7.97951 6.28294 7.1579C6.62375 6.33628 7.12381 5.59025 7.75429 4.9628C8.38476 4.33535 9.1332 3.83889 9.95644 3.50204C10.7797 3.16519 11.6615 2.99461 12.5509 3.00013C16.2625 3.02772 19.2312 6.11275 19.2312 9.83468V10.4999C19.2312 13.8577 19.9337 15.8061 20.5524 16.871C20.6191 16.9848 20.6546 17.1142 20.6553 17.246C20.656 17.3779 20.6219 17.5076 20.5565 17.6221C20.491 17.7366 20.3966 17.8318 20.2826 17.8982C20.1686 17.9645 20.0392 17.9996 19.9073 17.9999H5.09173C4.95985 17.9996 4.83038 17.9645 4.7164 17.8981C4.60242 17.8318 4.50795 17.7366 4.44252 17.622C4.3771 17.5075 4.34303 17.3778 4.34376 17.2459C4.34449 17.114 4.37999 16.9846 4.44667 16.8709C5.06573 15.8059 5.76855 13.8575 5.76855 10.4999L5.76855 9.74994Z" stroke="#202939" stroke-width="1.5" stroke-linecap="round" stroke-linejoin="round"/>
</svg>
