<svg width="19" height="20" viewBox="0 0 19 20" fill="none" xmlns="http://www.w3.org/2000/svg">
<path d="M6.19628 7.05793H12.2279M6.19628 10.5141H10.0346M10.6107 16.9268H11.6721C14.5589 16.9268 17.0701 14.8499 17.7476 11.9021C18.0841 10.4382 18.0841 8.91126 17.7476 7.44741L17.6588 7.06088C17.0057 4.21958 14.877 2.01204 12.1641 1.36264L11.783 1.27141C10.2712 0.909529 8.70132 0.909529 7.18953 1.27141L6.96648 1.32481C4.15677 1.99738 1.95212 4.28371 1.27571 7.22642C0.90585 8.83551 0.90923 10.5287 1.27909 12.1378C1.96607 15.1265 3.98688 17.6138 6.69777 18.7728L6.81593 18.8233C7.98904 19.3249 9.33289 18.7208 9.81425 17.4902C9.94672 17.1515 10.2622 16.9268 10.6107 16.9268Z" stroke="#202939" stroke-width="1.5" stroke-linecap="round"/>
</svg>
