<svg width="21" height="22" viewBox="0 0 21 22" fill="none" xmlns="http://www.w3.org/2000/svg">
<circle cx="6" cy="6.5" r="1.5" stroke="#202939" stroke-width="1.5" stroke-linecap="round" stroke-linejoin="round"/>
<path d="M1 11C1 6.52166 1 4.28249 2.39124 2.89124C3.78249 1.5 6.02166 1.5 10.5 1.5C14.9783 1.5 17.2175 1.5 18.6088 2.89124C20 4.28249 20 6.52166 20 11C20 15.4783 20 17.7175 18.6088 19.1088C17.2175 20.5 14.9783 20.5 10.5 20.5C6.02166 20.5 3.78249 20.5 2.39124 19.1088C1 17.7175 1 15.4783 1 11Z" stroke="#202939" stroke-width="1.5"/>
<path d="M3.5 19.9999C7.87246 14.775 12.7741 7.884 19.9975 12.5424" stroke="#202939" stroke-width="1.5"/>
</svg>
