<svg width="14" height="16" viewBox="0 0 14 16" fill="none" xmlns="http://www.w3.org/2000/svg">
<path d="M4.72852 12.833C4.29796 12.833 3.93685 12.6872 3.64518 12.3955C3.35352 12.1038 3.20768 11.7497 3.20768 11.333V1.85384C3.20768 1.42329 3.35352 1.06217 3.64518 0.770508C3.93685 0.478841 4.29796 0.333008 4.72852 0.333008H11.6868C12.1035 0.333008 12.4613 0.482174 12.7602 0.780508C13.0585 1.0794 13.2077 1.43717 13.2077 1.85384V11.333C13.2077 11.7497 13.0585 12.1038 12.7602 12.3955C12.4613 12.6872 12.1035 12.833 11.6868 12.833H4.72852ZM4.72852 11.583H11.6868C11.7702 11.583 11.8363 11.5586 11.8852 11.5097C11.9335 11.4613 11.9577 11.4025 11.9577 11.333V1.85384C11.9577 1.77051 11.9335 1.7044 11.8852 1.65551C11.8363 1.60717 11.7702 1.58301 11.6868 1.58301H4.72852C4.64518 1.58301 4.57935 1.60717 4.53102 1.65551C4.48213 1.7044 4.45768 1.77051 4.45768 1.85384V11.333C4.45768 11.4025 4.48213 11.4613 4.53102 11.5097C4.57935 11.5586 4.64518 11.583 4.72852 11.583ZM1.79102 15.7497C1.37435 15.7497 1.02018 15.6038 0.728516 15.3122C0.436849 15.0205 0.291016 14.6663 0.291016 14.2497V4.29134C0.291016 4.12467 0.349905 3.97884 0.467682 3.85384C0.586016 3.72884 0.73546 3.66634 0.916015 3.66634C1.08268 3.66634 1.22852 3.72884 1.35352 3.85384C1.47852 3.97884 1.54102 4.12467 1.54102 4.29134V14.2497C1.54102 14.3191 1.56518 14.378 1.61352 14.4263C1.6624 14.4752 1.72157 14.4997 1.79102 14.4997H9.24935C9.41602 14.4997 9.56185 14.5622 9.68685 14.6872C9.81185 14.8122 9.87435 14.958 9.87435 15.1247C9.87435 15.3052 9.81185 15.4544 9.68685 15.5722C9.56185 15.6905 9.41602 15.7497 9.24935 15.7497H1.79102Z" fill="#646F86"/>
</svg>
