<svg width="24" height="24" viewBox="0 0 24 24" fill="none" xmlns="http://www.w3.org/2000/svg">
<g clip-path="url(#clip0_4560_9768)">
<path d="M23 12C23 18.0751 18.0751 23 12 23C5.92487 23 1 18.0751 1 12C1 5.92487 5.92487 1 12 1C18.0751 1 23 5.92487 23 12Z" fill="#0F121C" stroke="#0F121C" stroke-width="1.5"/>
<path d="M14.2752 9.94057C14.2752 10.3548 14.611 10.6906 15.0252 10.6906C15.4394 10.6906 15.7752 10.3548 15.7752 9.94057H14.2752ZM9.4502 14.0599C9.4502 13.6457 9.11441 13.3099 8.7002 13.3099C8.28598 13.3099 7.9502 13.6457 7.9502 14.0599H9.4502ZM12.7502 6.5C12.7502 6.08579 12.4144 5.75 12.0002 5.75C11.586 5.75 11.2502 6.08579 11.2502 6.5L12.7502 6.5ZM11.2502 17.5C11.2502 17.9142 11.586 18.25 12.0002 18.25C12.4144 18.25 12.7502 17.9142 12.7502 17.5H11.2502ZM12.0002 11.0918C10.948 11.0918 10.3745 10.9245 10.0799 10.7273C9.84958 10.5731 9.7252 10.3594 9.7252 9.94057H8.2252C8.2252 10.7468 8.51331 11.4836 9.24546 11.9738C9.91339 12.421 10.8524 12.5918 12.0002 12.5918V11.0918ZM9.7252 9.94057C9.7252 9.62442 9.89839 9.27488 10.3047 8.97695C10.7105 8.67936 11.3076 8.47246 12.0002 8.47246V6.97246C11.0222 6.97246 10.1067 7.2621 9.4177 7.7673C8.72917 8.27218 8.2252 9.03169 8.2252 9.94057H9.7252ZM12.0002 8.47246C12.6928 8.47246 13.2898 8.67936 13.6957 8.97695C14.102 9.27488 14.2752 9.62442 14.2752 9.94057H15.7752C15.7752 9.03169 15.2712 8.27218 14.5827 7.7673C13.8937 7.2621 12.9782 6.97246 12.0002 6.97246V8.47246ZM14.5502 14.0599C14.5502 14.5677 14.3377 14.8872 13.9492 15.1191C13.5152 15.3782 12.8439 15.528 12.0002 15.528V17.028C12.9791 17.028 13.9577 16.861 14.7181 16.4071C15.5239 15.926 16.0502 15.1365 16.0502 14.0599H14.5502ZM12.0002 15.528C11.2176 15.528 10.5427 15.3135 10.0851 15.0059C9.62284 14.6952 9.4502 14.3465 9.4502 14.0599H7.9502C7.9502 14.9983 8.51628 15.7587 9.24836 16.2508C9.98513 16.746 10.9603 17.028 12.0002 17.028V15.528ZM12.0002 12.5918C13.0584 12.5918 13.7031 12.7501 14.0673 12.9861C14.3632 13.1779 14.5502 13.4692 14.5502 14.0599H16.0502C16.0502 13.0662 15.6872 12.2485 14.8831 11.7274C14.1473 11.2504 13.142 11.0918 12.0002 11.0918V12.5918ZM12.7502 7.72246L12.7502 6.5L11.2502 6.5L11.2502 7.72246L12.7502 7.72246ZM11.2502 16.278V17.5H12.7502V16.278H11.2502Z" fill="white"/>
</g>
<defs>
<clipPath id="clip0_4560_9768">
<rect width="24" height="24" fill="white"/>
</clipPath>
</defs>
</svg>
