<svg width="30" height="30" viewBox="0 0 30 30" fill="none" xmlns="http://www.w3.org/2000/svg">
<path d="M4.375 4.97253C4.375 3.60699 5.49429 2.5 6.875 2.5C8.25571 2.5 9.375 3.60699 9.375 4.97253C9.375 5.46475 9.22957 5.92337 8.97889 6.30867C8.23176 7.45701 6.875 8.55204 6.875 9.91758V10.5357M6.875 13.75H6.88997" stroke="#475569" stroke-width="1.5" stroke-linecap="round" stroke-linejoin="round"/>
<path d="M13.125 2.5H15.9659C20.0424 2.5 22.0807 2.5 23.4962 3.49729C23.9017 3.78304 24.2618 4.12191 24.5654 4.50361C25.625 5.83584 25.625 7.7542 25.625 11.5909V14.7727C25.625 18.4767 25.625 20.3287 25.0388 21.8078C24.0965 24.1857 22.1036 26.0614 19.577 26.9483C18.0055 27.5 16.0377 27.5 12.1023 27.5C9.85344 27.5 8.72902 27.5 7.83097 27.1847C6.38724 26.6779 5.24844 25.6061 4.70995 24.2473C4.375 23.4021 4.375 22.3438 4.375 20.2273V17.5" stroke="#475569" stroke-width="1.5" stroke-linecap="round" stroke-linejoin="round"/>
<path d="M25.625 15C25.625 17.3012 23.7595 19.1667 21.4583 19.1667C20.6261 19.1667 19.645 19.0208 18.8358 19.2377C18.1169 19.4303 17.5553 19.9919 17.3627 20.7108C17.1458 21.52 17.2917 22.5011 17.2917 23.3333C17.2917 25.6345 15.4262 27.5 13.125 27.5" stroke="#475569" stroke-width="1.5" stroke-linecap="round" stroke-linejoin="round"/>
</svg>
