<svg width="21" height="22" viewBox="0 0 21 22" fill="none" xmlns="http://www.w3.org/2000/svg">
<path d="M19.5 10V9C19.5 5.22876 19.5 3.34315 18.2595 2.17157C17.019 1 15.0225 1 11.0294 1L9.97059 1C5.97752 1 3.98098 1 2.74049 2.17157C1.5 3.34315 1.5 5.22876 1.5 9L1.5 13C1.5 16.7712 1.5 18.6569 2.74049 19.8284C3.98098 21 5.97751 21 9.97059 21H10.5" stroke="#202939" stroke-width="1.5" stroke-linecap="round"/>
<path d="M6.5 6H14.5" stroke="#202939" stroke-width="1.5" stroke-linecap="round"/>
<path d="M6.5 11H11.5" stroke="#202939" stroke-width="1.5" stroke-linecap="round"/>
<path d="M19.5 19.6471L19.5 16C19.5 14.5706 18.1569 13 16.5 13C14.8431 13 13.5 14.5706 13.5 16L13.5 19.5C13.5 20.2797 14.2326 21 15.1364 21C16.0401 21 16.7727 20.2797 16.7727 19.5L16.7727 16.7647" stroke="#202939" stroke-width="1.5" stroke-linecap="round"/>
</svg>
