<svg width="30" height="30" viewBox="0 0 30 30" fill="none" xmlns="http://www.w3.org/2000/svg">
<path d="M25 13.7505V9.77319C25 7.65664 25 6.59836 24.665 5.75314C24.1266 4.39433 22.9878 3.32252 21.544 2.81571C20.646 2.50046 19.5216 2.50046 17.2727 2.50046C13.3373 2.50046 11.3695 2.50046 9.79795 3.05215C7.27142 3.93907 5.27852 5.81474 4.33617 8.19265C3.75 9.67179 3.75 11.5238 3.75 15.2277V18.4096C3.75 22.2463 3.75 24.1646 4.80963 25.4968C5.11323 25.8786 5.47328 26.2174 5.87884 26.5032C7.18496 27.4234 9.02132 27.4945 12.5 27.5" stroke="#6BBBD8" stroke-width="1.5" stroke-linecap="round" stroke-linejoin="round"/>
<path d="M3.75 15C3.75 12.6988 5.61548 10.8333 7.91667 10.8333C8.7489 10.8333 9.73005 10.9792 10.5392 10.7623C11.2581 10.5697 11.8197 10.0081 12.0123 9.28921C12.2292 8.48005 12.0833 7.4989 12.0833 6.66667C12.0833 4.36548 13.9488 2.5 16.25 2.5" stroke="#6BBBD8" stroke-width="1.5" stroke-linecap="round" stroke-linejoin="round"/>
<path d="M17.9346 27.3196L17.7778 26.5862H17.7778L17.9346 27.3196ZM16.4304 25.8154L17.1638 25.9722L16.4304 25.8154ZM17.5258 22.6396L16.9955 22.1093L17.5258 22.6396ZM25.9953 19.3466L26.6448 18.9716L25.9953 19.3466ZM25.9953 21.2476L26.6448 21.6226L25.9953 21.2476ZM24.4034 17.7547L24.7784 17.1052L24.4034 17.7547ZM21.6606 18.5048L22.191 19.0352V19.0352L21.6606 18.5048ZM22.5024 17.7547L22.1274 17.1052L22.5024 17.7547ZM24.7148 21.559L20.58 25.6938L21.6407 26.7545L25.7755 22.6197L24.7148 21.559ZM18.0562 23.17L22.191 19.0352L21.1303 17.9745L16.9955 22.1093L18.0562 23.17ZM17.7778 26.5862C17.3223 26.6836 17.0638 26.7369 16.8864 26.7482C16.7224 26.7586 16.8232 26.7178 16.9277 26.8223L15.867 27.883C16.2152 28.2311 16.6534 28.266 16.9816 28.2451C17.2963 28.2251 17.6846 28.1401 18.0915 28.0531L17.7778 26.5862ZM15.6969 25.6585C15.6099 26.0654 15.5249 26.4537 15.5049 26.7684C15.484 27.0966 15.5189 27.5348 15.867 27.883L16.9277 26.8223C17.0322 26.9268 16.9914 27.0276 17.0018 26.8636C17.0131 26.6862 17.0664 26.4277 17.1638 25.9722L15.6969 25.6585ZM24.7148 19.0352C25.1657 19.486 25.2825 19.6119 25.3458 19.7216L26.6448 18.9716C26.4579 18.6478 26.158 18.3571 25.7755 17.9745L24.7148 19.0352ZM25.7755 22.6197C26.158 22.2371 26.4579 21.9464 26.6448 21.6226L25.3458 20.8726C25.2825 20.9823 25.1657 21.1082 24.7148 21.559L25.7755 22.6197ZM25.3458 19.7216C25.5514 20.0777 25.5514 20.5165 25.3458 20.8726L26.6448 21.6226C27.1184 20.8024 27.1184 19.7918 26.6448 18.9716L25.3458 19.7216ZM25.7755 17.9745C25.3929 17.592 25.1022 17.2921 24.7784 17.1052L24.0284 18.4042C24.1381 18.4675 24.264 18.5843 24.7148 19.0352L25.7755 17.9745ZM22.191 19.0352C22.6418 18.5843 22.7677 18.4675 22.8774 18.4042L22.1274 17.1052C21.8036 17.2921 21.5129 17.592 21.1303 17.9745L22.191 19.0352ZM24.7784 17.1052C23.9582 16.6316 22.9476 16.6316 22.1274 17.1052L22.8774 18.4042C23.2335 18.1986 23.6723 18.1986 24.0284 18.4042L24.7784 17.1052ZM20.58 25.6938C20.3019 25.972 19.9311 26.1414 19.4408 26.2665C19.1953 26.3292 18.9354 26.3772 18.6523 26.4261C18.378 26.4735 18.0723 26.5233 17.7778 26.5862L18.0915 28.0531C18.3484 27.9981 18.6121 27.9553 18.9077 27.9042C19.1943 27.8547 19.5045 27.7984 19.8119 27.7199C20.4272 27.5628 21.0928 27.3024 21.6407 26.7545L20.58 25.6938ZM17.1638 25.9722C17.2267 25.6777 17.2765 25.372 17.3239 25.0977C17.3728 24.8146 17.4208 24.5547 17.4835 24.3092C17.6086 23.8189 17.778 23.4481 18.0562 23.17L16.9955 22.1093C16.4476 22.6572 16.1872 23.3228 16.0301 23.9381C15.9516 24.2455 15.8953 24.5557 15.8458 24.8423C15.7947 25.1379 15.7519 25.4016 15.6969 25.6585L17.1638 25.9722Z" fill="#6BBBD8"/>
</svg>
