<svg width="30" height="30" viewBox="0 0 30 30" fill="none" xmlns="http://www.w3.org/2000/svg">
<path d="M16.25 22.5C16.25 22.5 17.5 22.5 18.75 25C18.75 25 22.7206 18.75 26.25 17.5" stroke="#5CC485" stroke-width="1.5" stroke-linecap="round" stroke-linejoin="round"/>
<path d="M13.75 27.5H13.4091C9.33258 27.5 7.29433 27.5 5.87884 26.5027C5.47328 26.217 5.11323 25.8781 4.80963 25.4964C3.75 24.1642 3.75 22.2458 3.75 18.4091V15.2273C3.75 11.5233 3.75 9.67133 4.33617 8.19219C5.27852 5.81428 7.27142 3.93861 9.79795 3.05169C11.3695 2.5 13.3373 2.5 17.2727 2.5C19.5216 2.5 20.646 2.5 21.544 2.81525C22.9878 3.32206 24.1266 4.39387 24.665 5.75268C25 6.5979 25 7.65618 25 9.77273V12.5" stroke="#5CC485" stroke-width="1.5" stroke-linecap="round" stroke-linejoin="round"/>
<path d="M3.75 15C3.75 12.6988 5.61548 10.8333 7.91667 10.8333C8.7489 10.8333 9.73005 10.9792 10.5392 10.7623C11.2581 10.5697 11.8197 10.0081 12.0123 9.28921C12.2292 8.48005 12.0833 7.4989 12.0833 6.66667C12.0833 4.36548 13.9488 2.5 16.25 2.5" stroke="#5CC485" stroke-width="1.5" stroke-linecap="round" stroke-linejoin="round"/>
</svg>
