<svg width="14" height="14" viewBox="0 0 14 14" fill="none" xmlns="http://www.w3.org/2000/svg">
<path fill-rule="evenodd" clip-rule="evenodd" d="M9.56733 0.668075C9.988 0.668075 10.408 0.727409 10.8073 0.861409C13.268 1.66141 14.1547 4.36141 13.414 6.72141C12.994 7.92741 12.3073 9.02808 11.408 9.92741C10.1207 11.1741 8.708 12.2807 7.18733 13.2341L7.02066 13.3347L6.84733 13.2274C5.32133 12.2807 3.90066 11.1741 2.60133 9.92074C1.708 9.02141 1.02066 7.92741 0.593995 6.72141C-0.159338 4.36141 0.727329 1.66141 3.21466 0.847409C3.408 0.780742 3.60733 0.734075 3.80733 0.708075H3.88733C4.07466 0.680742 4.26066 0.668075 4.44733 0.668075H4.52066C4.94066 0.680742 5.34733 0.754075 5.74133 0.888075H5.78066C5.80733 0.900742 5.82733 0.914742 5.84066 0.927409C5.988 0.974742 6.12733 1.02808 6.26066 1.10141L6.514 1.21474C6.57521 1.24739 6.64392 1.29728 6.7033 1.34039C6.74093 1.3677 6.77481 1.3923 6.80066 1.40808C6.81154 1.41449 6.8226 1.42095 6.83375 1.42746C6.89091 1.46082 6.95045 1.49558 7.00066 1.53408C7.74133 0.968075 8.64066 0.661409 9.56733 0.668075ZM11.3405 5.46775C11.6138 5.46041 11.8472 5.24108 11.8672 4.96041V4.88108C11.8872 3.94708 11.3212 3.10108 10.4605 2.77441C10.1872 2.68041 9.88718 2.82775 9.78718 3.10775C9.69384 3.38775 9.84051 3.69441 10.1205 3.79375C10.5478 3.95375 10.8338 4.37441 10.8338 4.84041V4.86108C10.8212 5.01375 10.8672 5.16108 10.9605 5.27441C11.0538 5.38775 11.1938 5.45375 11.3405 5.46775Z" fill="#274BF1"/>
</svg>
