<svg width="50" height="50" viewBox="0 0 50 50" fill="none" xmlns="http://www.w3.org/2000/svg">
<path d="M15.4675 11.6473C18.0438 10.7689 19.0788 7.91981 18.0419 4.55794C17.0519 1.34513 14.1607 0.103876 12.071 0.815439C9.9991 1.52138 8.37254 4.26169 9.35785 7.45763C10.2766 10.4379 12.6147 12.6214 15.4675 11.6473ZM12.6757 2.592C13.7979 2.2095 15.5829 2.94731 16.2504 5.11106C16.8457 7.04325 16.6479 9.26513 14.8629 9.87356C13.045 10.4886 11.7185 8.75325 11.1504 6.90731C10.4594 4.66575 11.5929 2.96044 12.6757 2.592Z" fill="#202939"/>
<path d="M34.5317 11.6487C35.6023 12.0124 36.6907 11.9384 37.6788 11.434C39.0073 10.7562 40.0592 9.3443 40.6404 7.45898C41.6248 4.26305 39.9982 1.52273 37.9263 0.816796C35.8338 0.103358 32.9445 1.35023 31.9554 4.5593C30.9204 7.92117 31.9554 10.7702 34.5317 11.6487ZM33.7488 5.11148C34.4098 2.96367 36.1985 2.20898 37.3235 2.59148C38.4063 2.96086 39.5398 4.66523 38.8488 6.9068C38.2798 8.75367 36.9523 10.4871 35.1363 9.87398C33.3513 9.26461 33.1526 7.04367 33.7488 5.11148Z" fill="#202939"/>
<path d="M48.5685 20.3369L44.6995 14.8206C43.8313 13.5634 42.3969 12.8125 40.8632 12.8125H36.4757C35.2935 12.8125 34.2098 13.3563 33.5048 14.3022L28.8932 20.4353L25.0016 21.5491L21.1045 20.4353L16.5013 14.2984C15.8029 13.3675 14.692 12.8125 13.5304 12.8125H9.14102C7.61289 12.8125 6.17758 13.5597 5.30102 14.8122L1.43664 20.3322C0.382891 21.8359 0.295704 24.2453 1.52758 25.8897L5.3132 30.9372V46.5625C5.3132 48.1131 6.57508 49.375 8.1257 49.375H9.0632C9.78602 49.375 10.4395 49.0928 10.9382 48.6438C11.437 49.0938 12.0904 49.375 12.8132 49.375H13.7507C15.3013 49.375 16.5632 48.1131 16.5632 46.5625V24.22L18.006 25.6628C18.126 25.7828 18.277 25.8681 18.441 25.9094L23.2466 27.1112C23.8279 27.2566 24.4204 27.2425 24.9885 27.1094C25.5791 27.2481 26.1248 27.2669 26.7548 27.1094L31.5548 25.9094C31.7198 25.8681 31.8707 25.7828 31.9907 25.6628L33.4382 24.2162V46.5625C33.4382 48.1131 34.7001 49.375 36.2507 49.375H37.1882C37.911 49.375 38.5645 49.0928 39.0632 48.6438C39.562 49.0938 40.2154 49.375 40.9382 49.375H41.8757C43.4263 49.375 44.6882 48.1131 44.6882 46.5625V30.9372L48.4795 25.8859C49.686 24.2575 49.6345 21.8716 48.5685 20.3369ZM23.7023 25.2925L19.1488 24.1534L16.297 21.3016C16.2904 21.295 16.2838 21.2884 16.2773 21.2819L13.7066 18.7112C12.8291 17.8337 11.5045 19.1603 12.381 20.0369L14.6882 22.345V46.5625C14.6882 47.0791 14.2673 47.5 13.7507 47.5H12.8132C12.2966 47.5 11.8757 47.0791 11.8757 46.5625V36.25C11.8757 35.0106 10.0007 35.0088 10.0007 36.25V46.5625C10.0007 47.0791 9.57977 47.5 9.0632 47.5H8.1257C7.60914 47.5 7.1882 47.0791 7.1882 46.5625V21.25C7.1882 20.0106 5.3132 20.0087 5.3132 21.25V27.8125L3.02758 24.7647C2.31789 23.8169 2.34977 22.2962 2.97227 21.4075L6.83664 15.8866C7.36258 15.1366 8.2232 14.6875 9.14102 14.6875H13.5304C14.106 14.6875 14.6563 14.9631 15.0023 15.4234L19.7938 21.8125C19.9166 21.9756 20.0891 22.0947 20.286 22.1509C25.7432 23.7897 26.0179 23.6153 25.9316 23.9528C25.686 24.9409 24.6895 25.5372 23.7023 25.2925ZM46.9757 24.7656L43.0373 30.0138C42.4935 30.5519 41.6066 30.6016 41.0076 30.1253L40.3635 29.5525L44.5166 23.665C44.7398 23.3491 44.7454 22.9272 44.5307 22.6047L42.6557 19.7922C41.9676 18.7609 40.4066 19.7997 41.0957 20.8319L42.6135 23.1091L38.8345 28.4688C38.2438 29.2966 38.406 30.4403 39.1898 31.06L39.8301 31.585C40.6298 32.2187 41.6845 32.4878 42.8132 32.2V46.5625C42.8132 47.0791 42.3932 47.5 41.8757 47.5H40.9382C40.4207 47.5 40.0007 47.0791 40.0007 46.5625V36.25C40.0007 35.0097 38.1257 35.0088 38.1257 36.25V46.5625C38.1257 47.0791 37.7057 47.5 37.1882 47.5H36.2507C35.7332 47.5 35.3132 47.0791 35.3132 46.5625V20.3125C35.3132 19.0722 33.4382 19.0712 33.4382 20.3125V21.565L30.8488 24.1534L27.5479 24.9784C27.8657 24.2397 27.9595 23.5319 27.4795 22.7894L29.7116 22.15C29.9076 22.0937 30.081 21.9747 30.202 21.8125L35.0048 15.4253C35.3554 14.9566 35.8916 14.6875 36.4757 14.6875H40.8632C41.781 14.6875 42.6388 15.1356 43.161 15.8913L47.031 21.4094C47.6432 22.2916 47.6891 23.8028 46.9757 24.7656Z" fill="#202939"/>
</svg>
