<svg width="46" height="54" viewBox="0 0 46 54" fill="none" xmlns="http://www.w3.org/2000/svg">
<path d="M43.3062 6.47665C38.6009 6.20384 33.2684 3.1011 31.1943 1.78091C30.1378 1.10663 28.9104 0.748902 27.6571 0.750027H18.3421C17.0962 0.746425 15.8753 1.09971 14.8237 1.7681C12.7469 3.09284 7.40704 6.20291 2.69209 6.47665C1.97701 6.51979 1.3054 6.83436 0.814479 7.35608C0.323559 7.8778 0.0503871 8.56728 0.0507817 9.28366L0.0512689 27.2701C0.0402402 29.3573 0.405891 31.4294 1.13065 33.3867C2.79764 37.9163 5.45074 42.0186 8.89795 45.3967C12.3452 48.7749 16.5003 51.3445 21.0626 52.9196C22.3166 53.359 23.6827 53.359 24.9367 52.9196C29.4982 51.345 33.6527 48.7761 37.0995 45.3987C40.5463 42.0213 43.1993 37.9199 44.8663 33.3914C45.5924 31.4311 45.9587 29.3559 45.9475 27.2655L45.948 9.28732C45.9488 8.5704 45.6758 7.88023 45.1848 7.35783C44.6938 6.83543 44.0218 6.52024 43.3062 6.47665ZM44.0725 27.2655C43.8128 35.3513 37.4087 46.3653 24.3149 51.151C23.4635 51.4493 22.536 51.4492 21.6847 51.1508C17.3819 49.6651 13.4631 47.2416 10.2119 44.0555C6.96074 40.8694 4.45848 37.0004 2.88618 32.7285C2.24064 30.9815 1.91546 29.1325 1.92627 27.2701L1.92578 9.28366C1.92494 9.04553 2.01507 8.81607 2.17775 8.64217C2.34043 8.46827 2.56338 8.36306 2.80103 8.34803C7.77005 8.06056 13.0984 5.09242 15.8317 3.34835C16.5824 2.87276 17.4535 2.62178 18.3421 2.62503H27.6571C28.5534 2.62417 29.4312 2.87991 30.1867 3.36202C32.9168 5.10062 38.2379 8.06051 43.1977 8.34799C43.4359 8.36355 43.659 8.46944 43.8217 8.64403C43.9844 8.81862 44.0743 9.04874 44.073 9.28736L44.0725 27.2655Z" fill="#202939"/>
<path d="M22.9998 12.1133C19.053 12.1177 15.2691 13.6875 12.4783 16.4783C9.68749 19.2691 8.11768 23.053 8.11328 26.9998C8.93072 46.7487 37.0718 46.743 37.8863 26.9996C37.8818 23.0529 36.312 19.269 33.5212 16.4782C30.7304 13.6875 26.9465 12.1177 22.9998 12.1133ZM22.9998 40.0112C19.5501 40.0074 16.2428 38.6353 13.8035 36.196C11.3642 33.7567 9.99211 30.4494 9.98828 26.9998C10.7027 9.73822 35.2995 9.7432 36.0113 26.9999C36.0074 30.4495 34.6353 33.7568 32.196 36.1961C29.7567 38.6353 26.4494 40.0074 22.9998 40.0112Z" fill="#202939"/>
<path d="M25.7614 23.2995C25.7614 23.5481 25.8602 23.7866 26.036 23.9624C26.2118 24.1382 26.4503 24.237 26.6989 24.237C26.9475 24.237 27.186 24.1382 27.3618 23.9624C27.5376 23.7866 27.6364 23.5481 27.6364 23.2995C27.635 22.2323 27.2663 21.1982 26.5924 20.3708C25.9184 19.5435 24.9802 18.9733 23.9354 18.7561V16.9229C23.9354 16.6742 23.8366 16.4358 23.6608 16.2599C23.485 16.0841 23.2465 15.9854 22.9979 15.9854C22.7492 15.9854 22.5108 16.0841 22.335 16.2599C22.1592 16.4358 22.0604 16.6742 22.0604 16.9229V18.7561C21.0228 18.9812 20.0935 19.5547 19.4271 20.3812C18.7606 21.2076 18.3972 22.2374 18.3972 23.2991C18.3973 24.3608 18.7607 25.3905 19.4272 26.217C20.0936 27.0435 21.0229 27.6169 22.0605 27.8419L22.0604 33.2898C21.527 33.098 21.0655 32.7466 20.7388 32.2833C20.4121 31.8201 20.236 31.2675 20.2344 30.7006C20.2296 30.4551 20.1287 30.2213 19.9534 30.0494C19.7781 29.8775 19.5424 29.7812 19.2968 29.7812C19.0513 29.7812 18.8156 29.8775 18.6403 30.0495C18.465 30.2214 18.3642 30.4552 18.3594 30.7007C18.3608 31.7678 18.7295 32.8019 19.4034 33.6293C20.0774 34.4566 21.0156 35.0268 22.0604 35.244V37.0772C22.0604 37.3259 22.1592 37.5643 22.335 37.7401C22.5108 37.916 22.7492 38.0147 22.9979 38.0147C23.2465 38.0147 23.485 37.916 23.6608 37.7401C23.8366 37.5643 23.9354 37.3259 23.9354 37.0772V35.2439C24.973 35.0189 25.9023 34.4454 26.5687 33.6189C27.2351 32.7924 27.5986 31.7627 27.5985 30.701C27.5985 29.6393 27.2351 28.6096 26.5686 27.7831C25.9022 26.9566 24.9729 26.3832 23.9353 26.1581L23.9354 20.7104C24.4688 20.9021 24.9302 21.2535 25.2569 21.7168C25.5836 22.18 25.7598 22.7326 25.7614 23.2995ZM20.2344 23.2995C20.236 22.7326 20.4121 22.18 20.7388 21.7168C21.0655 21.2535 21.527 20.9021 22.0604 20.7104V25.8878C21.5271 25.6961 21.0657 25.3448 20.739 24.8818C20.4123 24.4187 20.2361 23.8662 20.2344 23.2995ZM25.7614 30.7006C25.7598 31.2675 25.5837 31.8201 25.257 32.2833C24.9303 32.7466 24.4688 33.098 23.9354 33.2898V28.1123C24.4687 28.304 24.9301 28.6553 25.2568 29.1184C25.5835 29.5814 25.7597 30.1339 25.7614 30.7006Z" fill="#202939"/>
</svg>
