<svg width="60" height="60" viewBox="0 0 60 60" fill="none" xmlns="http://www.w3.org/2000/svg">
<path d="M12.1641 17.7988V15.9238C13.7147 15.9238 14.9766 14.662 14.9766 13.1113C14.9766 11.5607 13.7147 10.2988 12.1641 10.2988H10.2891C9.77156 10.2988 9.35156 9.87789 9.35156 9.36133C9.35156 8.84477 9.77156 8.42383 10.2891 8.42383H12.1641C12.6816 8.42383 13.1016 8.84477 13.1016 9.36133H14.9766C14.9766 7.8107 13.7147 6.54883 12.1641 6.54883V4.67383H10.2891V6.54883C8.73844 6.54883 7.47656 7.8107 7.47656 9.36133C7.47656 10.912 8.73844 12.1738 10.2891 12.1738H12.1641C12.6816 12.1738 13.1016 12.5948 13.1016 13.1113C13.1016 13.6279 12.6816 14.0488 12.1641 14.0488H10.2891C9.77156 14.0488 9.35156 13.6279 9.35156 13.1113H7.47656C7.47656 14.662 8.73844 15.9238 10.2891 15.9238V17.7988H12.1641Z" fill="#202939"/>
<path d="M53.6914 46.1992L47.7917 52.0989L45.642 49.9492L44.3164 51.2748L47.7917 54.7502L55.017 47.5248L53.6914 46.1992Z" fill="#202939"/>
<path d="M21.5391 17.7988H46.8516V19.6738H21.5391V17.7988Z" fill="#202939"/>
<path d="M21.5391 21.5488H23.4141V23.4238H21.5391V21.5488Z" fill="#202939"/>
<path d="M25.2891 21.5488H46.8516V23.4238H25.2891V21.5488Z" fill="#202939"/>
<path d="M50.6025 40.3457V5.61133C50.6025 4.0607 49.3406 2.79883 47.79 2.79883H17.1375C15.4622 1.62133 13.4259 0.923828 11.2266 0.923828C5.54063 0.923828 0.914062 5.55039 0.914062 11.2363C0.914062 16.282 4.55906 20.4848 9.35156 21.3698V54.3613C9.35156 55.912 10.6134 57.1738 12.1641 57.1738H44.0634C45.6281 58.3457 47.5641 59.0488 49.665 59.0488C54.8344 59.0488 59.04 54.8432 59.04 49.6738C59.04 44.8204 55.3331 40.8182 50.6025 40.3457ZM2.79 11.2363C2.79 6.58445 6.57469 2.79883 11.2275 2.79883C15.8803 2.79883 19.665 6.58445 19.665 11.2363C19.665 15.8882 15.8803 19.6738 11.2275 19.6738C6.57469 19.6738 2.79 15.8882 2.79 11.2363ZM11.2275 54.3604V21.5479C15.225 21.5479 18.6909 19.2566 20.4019 15.9229H46.8534V6.54789H20.4009C20.0578 5.87852 19.6509 5.24758 19.1756 4.67289H47.7891C48.3066 4.67289 48.7266 5.09383 48.7266 5.61039V40.3457C48.0797 40.4104 47.4534 40.5407 46.8516 40.731V25.2979H13.1016V53.4229H41.0775C41.3719 54.0941 41.7459 54.7195 42.1819 55.2979H12.165C11.6475 55.2979 11.2275 54.8779 11.2275 54.3604ZM21.1397 8.42383H44.9775V14.0488H21.1397C21.3938 13.1535 21.5391 12.2123 21.5391 11.2363C21.5391 10.2604 21.3947 9.31914 21.1397 8.42383ZM40.4784 51.5479H39.3525V32.7979H44.9775V41.5663C42.18 43.1901 40.29 46.2116 40.29 49.6729C40.29 50.3151 40.3547 50.9423 40.4784 51.5479ZM44.9775 30.9238H39.3525V27.1738H44.9775V30.9238ZM37.4775 30.9238H33.7275V27.1738H37.4775V30.9238ZM31.8525 30.9238H22.4775V27.1738H31.8525V30.9238ZM20.6025 30.9238H14.9775V27.1738H20.6025V30.9238ZM14.9775 32.7988H20.6025V51.5488H14.9775V32.7988ZM22.4775 32.7988H26.2275V51.5488H22.4775V32.7988ZM28.1025 32.7988H31.8525V51.5488H28.1025V32.7988ZM33.7275 32.7988H37.4775V51.5488H33.7275V32.7988ZM49.665 57.1738C45.5297 57.1738 42.165 53.8091 42.165 49.6738C42.165 45.5385 45.5297 42.1738 49.665 42.1738C53.8003 42.1738 57.165 45.5385 57.165 49.6738C57.165 53.8091 53.8003 57.1738 49.665 57.1738Z" fill="black"/>
</svg>
