<svg width="60" height="60" viewBox="0 0 60 60" fill="none" xmlns="http://www.w3.org/2000/svg">
<path d="M33.2953 18.9146C33.2953 18.5652 33.0094 18.2793 32.66 18.2793H22.8306C22.4812 18.2793 22.1953 18.5652 22.1953 18.9146C22.1953 19.264 22.4812 19.5499 22.8306 19.5499H32.66C33.0094 19.5499 33.2953 19.2675 33.2953 18.9146Z" fill="#202939"/>
<path d="M24.2798 17.5831H31.2151C31.5645 17.5831 31.8504 17.2972 31.8504 16.9478C31.8504 16.5984 31.5645 16.3125 31.2151 16.3125H24.2798C23.9304 16.3125 23.6445 16.5984 23.6445 16.9478C23.6445 17.2972 23.9269 17.5831 24.2798 17.5831Z" fill="#202939"/>
<path d="M33.1931 33.1719H24.2955C23.946 33.1719 23.6602 33.4578 23.6602 33.8072C23.6602 34.1566 23.946 34.4425 24.2955 34.4425H33.1931C33.5425 34.4425 33.8284 34.1566 33.8284 33.8072C33.8284 33.4578 33.5425 33.1719 33.1931 33.1719Z" fill="#202939"/>
<path d="M35.1378 31.207H24.2955C23.946 31.207 23.6602 31.4929 23.6602 31.8423C23.6602 32.1917 23.946 32.4776 24.2955 32.4776H35.1378C35.4872 32.4776 35.7731 32.1917 35.7731 31.8423C35.7731 31.4929 35.4872 31.207 35.1378 31.207Z" fill="#202939"/>
<path d="M26.6562 40.5957H24.2915C23.9421 40.5957 23.6562 40.8816 23.6562 41.231C23.6562 41.5804 23.9421 41.8663 24.2915 41.8663H26.6562C27.0057 41.8663 27.2915 41.5804 27.2915 41.231C27.2915 40.8816 27.0092 40.5957 26.6562 40.5957Z" fill="#202939"/>
<path d="M27.9554 38.6289H24.2955C23.946 38.6289 23.6602 38.9148 23.6602 39.2642C23.6602 39.6136 23.946 39.8995 24.2955 39.8995H27.9554C28.3049 39.8995 28.5907 39.6136 28.5907 39.2642C28.5907 38.9148 28.3084 38.6289 27.9554 38.6289Z" fill="black"/>
<path d="M19.5511 35.6178C19.7276 35.6178 19.8829 35.5578 20.017 35.4378C20.1547 35.3143 20.2288 35.1414 20.2288 34.9331C20.2288 34.7461 20.1617 34.5802 20.0311 34.4496C19.9006 34.319 19.7347 34.252 19.5476 34.252C19.3606 34.252 19.1911 34.319 19.0606 34.4461C18.93 34.5767 18.8594 34.7425 18.8594 34.9296C18.8594 35.1943 18.9758 35.3496 19.0747 35.4378C19.2123 35.5578 19.3711 35.6178 19.5511 35.6178Z" fill="black"/>
<path d="M20.5046 30.2144C20.2504 30.0909 19.954 30.0273 19.6257 30.0273C19.2728 30.0273 18.9551 30.1015 18.6834 30.2497C18.4116 30.3979 18.2034 30.5885 18.0587 30.8215C17.914 31.0544 17.8398 31.2944 17.8398 31.5273C17.8398 31.6791 17.9034 31.8238 18.0198 31.9438C18.1398 32.0673 18.2951 32.1309 18.4681 32.1309C18.6375 32.1309 18.9446 32.0673 19.0751 31.6297C19.1387 31.4426 19.2128 31.305 19.294 31.2168C19.354 31.1532 19.4669 31.1179 19.6257 31.1179C19.7598 31.1179 19.8622 31.1532 19.9434 31.2273C20.0175 31.2979 20.0528 31.3756 20.0528 31.4744C20.0528 31.5203 20.0422 31.5591 20.021 31.5979C19.9928 31.6509 19.954 31.7003 19.9116 31.7426C19.8587 31.7956 19.7669 31.8803 19.6398 31.9897C19.4846 32.1238 19.361 32.2438 19.2693 32.3426C19.1634 32.4556 19.0787 32.5897 19.0151 32.7379C18.9516 32.8897 18.9163 33.0697 18.9163 33.2709C18.9163 33.4685 18.9763 33.6273 19.0928 33.7403C19.2057 33.8497 19.354 33.9062 19.5163 33.9062C19.8269 33.9062 20.0387 33.7262 20.0987 33.4085C20.1234 33.292 20.1375 33.2391 20.1446 33.2144C20.1516 33.1897 20.1622 33.165 20.1763 33.1368C20.1834 33.1226 20.201 33.0944 20.2398 33.052C20.2751 33.0097 20.3245 32.9603 20.3881 32.9038C20.6422 32.6744 20.8151 32.5156 20.9175 32.4203C21.0304 32.3109 21.1293 32.1803 21.2069 32.0285C21.2951 31.8662 21.3375 31.6756 21.3375 31.4673C21.3375 31.2026 21.2634 30.9556 21.1151 30.7332C20.9704 30.5179 20.7657 30.3415 20.5046 30.2144Z" fill="black"/>
<path d="M19.5515 41.6777C19.3645 41.6777 19.195 41.7448 19.0645 41.8719C18.9339 42.0024 18.8633 42.1683 18.8633 42.3554C18.8633 42.6201 18.9798 42.7754 19.0786 42.8636C19.2127 42.9801 19.3715 43.0401 19.5515 43.0401C19.728 43.0401 19.8833 42.9801 20.0174 42.8601C20.155 42.7366 20.2292 42.5636 20.2292 42.3554C20.2292 42.1683 20.1621 42.0024 20.0315 41.8719C19.9045 41.7448 19.7386 41.6777 19.5515 41.6777Z" fill="black"/>
<path d="M20.5046 37.6363C20.2504 37.5127 19.954 37.4492 19.6257 37.4492C19.2728 37.4492 18.9551 37.5233 18.6834 37.6716C18.4116 37.8198 18.2034 38.0104 18.0587 38.2433C17.914 38.4763 17.8398 38.7163 17.8398 38.9492C17.8398 39.101 17.9034 39.2457 18.0198 39.3657C18.1398 39.4892 18.2951 39.5527 18.4681 39.5527C18.6375 39.5527 18.9446 39.4892 19.0751 39.0516C19.1387 38.8645 19.2128 38.7269 19.294 38.6386C19.354 38.5751 19.4669 38.5398 19.6257 38.5398C19.7598 38.5398 19.8622 38.5751 19.9434 38.6492C20.0175 38.7198 20.0528 38.7975 20.0528 38.8963C20.0528 38.9422 20.0422 38.981 20.021 39.0198C19.9928 39.0727 19.954 39.1222 19.9116 39.1645C19.8587 39.2175 19.7669 39.3022 19.6398 39.4116C19.4846 39.5457 19.361 39.6657 19.2693 39.7645C19.1634 39.8775 19.0787 40.0116 19.0151 40.1598C18.9516 40.3116 18.9163 40.4916 18.9163 40.6927C18.9163 40.8904 18.9763 41.0492 19.0928 41.1622C19.2057 41.2716 19.354 41.328 19.5163 41.328C19.8269 41.328 20.0387 41.148 20.0987 40.8304C20.1234 40.7139 20.1375 40.661 20.1446 40.6363C20.1516 40.6116 20.1622 40.5869 20.1763 40.5586C20.1834 40.541 20.201 40.5163 20.2398 40.4739C20.2751 40.4316 20.3245 40.3822 20.3881 40.3257C20.6422 40.0963 20.8151 39.9375 20.9175 39.8422C21.0304 39.7327 21.1293 39.6022 21.2069 39.4504C21.2951 39.288 21.3375 39.0975 21.3375 38.8892C21.3375 38.6245 21.2634 38.3775 21.1151 38.1551C20.9704 37.9398 20.7657 37.7633 20.5046 37.6363Z" fill="black"/>
<path d="M37.686 25.7285H24.2955C23.946 25.7285 23.6602 26.0144 23.6602 26.3638C23.6602 26.7132 23.946 26.9991 24.2955 26.9991H37.686C38.0354 26.9991 38.3213 26.7132 38.3213 26.3638C38.3213 26.0144 38.0354 25.7285 37.686 25.7285Z" fill="black"/>
<path d="M23.6602 24.399C23.6602 24.7484 23.946 25.0343 24.2955 25.0343H37.686C38.0354 25.0343 38.3213 24.7484 38.3213 24.399C38.3213 24.0496 38.0354 23.7637 37.686 23.7637H24.2955C23.9425 23.7637 23.6602 24.0496 23.6602 24.399Z" fill="black"/>
<path d="M19.5511 28.1745C19.7276 28.1745 19.8829 28.1145 20.017 27.9945C20.1547 27.8709 20.2288 27.698 20.2288 27.4898C20.2288 27.3027 20.1617 27.1368 20.0311 27.0062C19.9006 26.8757 19.7347 26.8086 19.5476 26.8086C19.3606 26.8086 19.1911 26.8757 19.0606 27.0027C18.93 27.1333 18.8594 27.2992 18.8594 27.4862C18.8594 27.7509 18.9758 27.9062 19.0747 27.9945C19.2123 28.118 19.3711 28.1745 19.5511 28.1745Z" fill="black"/>
<path d="M20.5046 22.7749C20.2504 22.6514 19.954 22.5879 19.6257 22.5879C19.2728 22.5879 18.9551 22.662 18.6834 22.8102C18.4116 22.9585 18.2034 23.1491 18.0587 23.382C17.914 23.6149 17.8398 23.8549 17.8398 24.0879C17.8398 24.2397 17.9034 24.3844 18.0198 24.5044C18.1398 24.6279 18.2951 24.6914 18.4681 24.6914C18.6375 24.6914 18.9446 24.6279 19.0751 24.1902C19.1387 24.0032 19.2128 23.8655 19.294 23.7773C19.354 23.7138 19.4669 23.6785 19.6257 23.6785C19.7598 23.6785 19.8622 23.7138 19.9434 23.7879C20.0175 23.8585 20.0528 23.9361 20.0528 24.0349C20.0528 24.0808 20.0422 24.1197 20.021 24.1585C19.9928 24.2114 19.954 24.2608 19.9116 24.3032C19.8587 24.3561 19.7669 24.4408 19.6398 24.5502C19.4846 24.6844 19.361 24.8044 19.2693 24.9032C19.1634 25.0161 19.0787 25.1502 19.0151 25.2985C18.9516 25.4502 18.9163 25.6302 18.9163 25.8314C18.9163 26.0291 18.9763 26.1879 19.0928 26.3008C19.2057 26.4102 19.354 26.4667 19.5163 26.4667C19.8269 26.4667 20.0387 26.2867 20.0987 25.9691C20.1234 25.8526 20.1375 25.7997 20.1446 25.7749C20.1516 25.7502 20.1622 25.7255 20.1763 25.6973C20.1834 25.6797 20.201 25.6549 20.2398 25.6126C20.2751 25.5702 20.3245 25.5208 20.3881 25.4644C20.6422 25.2349 20.8151 25.0761 20.9175 24.9808C21.0304 24.8714 21.1293 24.7408 21.2069 24.5891C21.2951 24.4267 21.3375 24.2361 21.3375 24.0279C21.3375 23.7632 21.2634 23.5161 21.1151 23.2938C20.9704 23.0749 20.7657 22.8985 20.5046 22.7749Z" fill="black"/>
<path d="M47.2663 37.9266C46.8816 37.5419 46.4722 37.1855 46.0416 36.8643V9.84312C46.0416 9.4937 45.7558 9.20782 45.4063 9.20782H41.2099H36.7558V7.36547C36.7558 7.01606 36.4699 6.73017 36.1205 6.73017H32.4216V3.74076C32.4216 3.39135 32.1358 3.10547 31.7864 3.10547H23.7393C23.3899 3.10547 23.104 3.39135 23.104 3.74076V6.73017H19.4016C19.0522 6.73017 18.7664 7.01606 18.7664 7.36547V9.20782H10.1158C9.76635 9.20782 9.48047 9.4937 9.48047 9.84312V49.9796C9.48047 50.329 9.76635 50.6149 10.1158 50.6149H29.1463C29.2275 50.6149 29.3087 50.5972 29.3793 50.569C29.9158 51.6913 30.6464 52.729 31.5534 53.6361C33.6534 55.7361 36.4416 56.8902 39.4099 56.8902C42.3781 56.8902 45.1663 55.7361 47.2663 53.6361C49.3663 51.5361 50.5205 48.7478 50.5205 45.7796C50.5205 42.8113 49.3663 40.0266 47.2663 37.9266ZM44.7711 36.049C43.8534 35.5408 42.8687 35.1702 41.8452 34.9408V10.4819H44.7711V36.049ZM40.5711 10.4784V34.7325C40.1863 34.6937 39.8016 34.6725 39.4099 34.6725C36.4416 34.6725 33.6534 35.8266 31.5534 37.9266C29.6052 39.8749 28.4722 42.4196 28.3169 45.1478H14.9475V10.4784H18.7664V13.2031C18.7664 13.5525 19.0522 13.8384 19.4016 13.8384H36.1169C36.4663 13.8384 36.7522 13.5525 36.7522 13.2031V10.4784H40.5711ZM24.3711 4.37606H31.1475V6.73017H24.3711V4.37606ZM20.0369 8.00076H35.4816V9.83959V12.5643H20.0369V8.00076ZM10.7511 49.3478V10.4784H13.6769V45.7831C13.6769 46.1325 13.9628 46.4184 14.3122 46.4184H28.3169C28.3734 47.4278 28.564 48.409 28.8816 49.3443L10.7511 49.3478ZM39.4099 55.6231C33.9852 55.6231 29.5699 51.2113 29.5699 45.7831C29.5699 40.3584 33.9852 35.9431 39.4099 35.9431C44.8346 35.9431 49.2499 40.3584 49.2499 45.7831C49.2499 51.2078 44.8346 55.6231 39.4099 55.6231Z" fill="black"/>
<path d="M40.044 45.5218V42.5747C40.044 42.2253 39.7581 41.9395 39.4087 41.9395C39.0593 41.9395 38.7734 42.2253 38.7734 42.5747V45.783C38.7734 45.9524 38.8405 46.1147 38.9605 46.2312L41.5546 48.8253C41.6781 48.9489 41.8405 49.0124 42.0028 49.0124C42.1652 49.0124 42.3276 48.9489 42.4511 48.8253C42.6981 48.5783 42.6981 48.1759 42.4511 47.9253L40.044 45.5218Z" fill="black"/>
<path d="M47.7117 45.7836C47.7117 43.5671 46.847 41.4812 45.28 39.9142C43.7129 38.3471 41.627 37.4824 39.4106 37.4824C37.1941 37.4824 35.1082 38.3471 33.5411 39.9142C31.9741 41.4812 31.1094 43.5671 31.1094 45.7836C31.1094 48.0001 31.9741 50.086 33.5411 51.653C35.1082 53.2201 37.1941 54.0848 39.4106 54.0848C41.627 54.0848 43.7129 53.2201 45.28 51.653C46.847 50.086 47.7117 48.0001 47.7117 45.7836ZM44.3835 50.7565C43.2082 51.9318 41.687 52.6412 40.0458 52.786V51.653C40.0458 51.3036 39.76 51.0177 39.4106 51.0177C39.0611 51.0177 38.7753 51.3036 38.7753 51.653V52.786C37.1376 52.6412 35.6164 51.9318 34.4376 50.7565C33.2623 49.5812 32.5529 48.0601 32.4082 46.4189H33.5411C33.8906 46.4189 34.1764 46.133 34.1764 45.7836C34.1764 45.4342 33.8906 45.1483 33.5411 45.1483H32.4082C32.5529 43.5107 33.2623 41.9895 34.4376 40.8107C35.6129 39.6354 37.1341 38.926 38.7753 38.7812V39.9142C38.7753 40.2636 39.0611 40.5495 39.4106 40.5495C39.76 40.5495 40.0458 40.2636 40.0458 39.9142V38.7812C41.6835 38.926 43.2047 39.6354 44.3835 40.8107C45.5588 41.986 46.2682 43.5071 46.4129 45.1483H45.28C44.9306 45.1483 44.6447 45.4342 44.6447 45.7836C44.6447 46.133 44.9306 46.4189 45.28 46.4189H46.4129C46.2682 48.0565 45.5588 49.5777 44.3835 50.7565Z" fill="black"/>
</svg>
