<svg width="60" height="60" viewBox="0 0 60 60" fill="none" xmlns="http://www.w3.org/2000/svg">
<path d="M27.2897 39.192L26.332 40.3756C27.186 41.1689 28.2718 41.6675 29.43 41.7983V42.6889H30.6398V41.8381C32.5683 41.705 33.6717 40.5884 33.6717 39.0589C33.6717 37.437 32.4619 36.8122 30.6398 36.3997V33.8998C31.3425 34.0702 31.9916 34.413 32.5284 34.8973L33.4322 33.6739C32.6548 32.9783 31.6775 32.5461 30.6398 32.4392V31.6133H29.43V32.4242C27.7945 32.6234 26.6911 33.7273 26.6911 35.1631C26.6911 36.732 27.7945 37.317 29.43 37.7412V40.3339C28.6263 40.1543 27.8865 39.7596 27.2897 39.192ZM30.6398 38.0483C31.5844 38.3295 32.0095 38.607 32.0095 39.2202C32.0095 39.8052 31.5445 40.3105 30.6398 40.4169V38.0483ZM28.3664 35.0173C28.3884 34.7346 28.5055 34.4676 28.6987 34.2599C28.8918 34.0522 29.1496 33.9161 29.43 33.8736V36.0805C28.7123 35.8283 28.3664 35.5489 28.3664 35.0173Z" fill="#202939"/>
<path d="M30 45.7509C31.7014 45.751 33.3646 45.2466 34.7793 44.3014C36.194 43.3562 37.2966 42.0127 37.9477 40.4408C38.5988 38.8689 38.7691 37.1392 38.4372 35.4705C38.1052 33.8018 37.2858 32.269 36.0827 31.066C34.8796 29.863 33.3467 29.0438 31.6779 28.712C30.0092 28.3802 28.2796 28.5508 26.7077 29.202C25.1359 29.8533 23.7925 30.9561 22.8475 32.3709C21.9024 33.7856 21.3982 35.4489 21.3984 37.1503C21.4015 39.4306 22.3088 41.6165 23.9213 43.2288C25.5337 44.8411 27.7198 45.7481 30 45.7509ZM30 30.1884C31.3768 30.1883 32.7228 30.5965 33.8676 31.3614C35.0125 32.1262 35.9048 33.2134 36.4318 34.4854C36.9588 35.7574 37.0967 37.1571 36.8282 38.5075C36.5597 39.8579 35.8968 41.0983 34.9233 42.072C33.9498 43.0456 32.7094 43.7087 31.359 43.9774C30.0087 44.2461 28.609 44.1083 27.3369 43.5815C26.0648 43.0547 24.9775 42.1625 24.2125 41.0178C23.4475 39.873 23.0392 38.5272 23.0391 37.1503C23.0412 35.3047 23.7752 33.5353 25.0801 32.2302C26.3851 30.9251 28.1544 30.1908 30 30.1884Z" fill="#202939"/>
<path d="M57.0442 17.0107C57.152 17.0108 57.2587 16.9896 57.3582 16.9484C57.4578 16.9072 57.5482 16.8468 57.6244 16.7706C57.7006 16.6944 57.761 16.604 57.8022 16.5044C57.8434 16.4049 57.8646 16.2982 57.8645 16.1904V12.6134C57.8645 12.4443 57.8122 12.2793 57.7147 12.141C57.6173 12.0027 57.4796 11.8979 57.3203 11.8409L30.2762 2.18418C30.0979 2.1209 29.9033 2.1209 29.725 2.18418L2.68141 11.8409C2.52206 11.8978 2.3842 12.0026 2.2867 12.1409C2.1892 12.2792 2.13681 12.4442 2.13672 12.6134V16.1904C2.13672 16.408 2.22314 16.6166 2.37698 16.7705C2.53082 16.9243 2.73947 17.0107 2.95703 17.0107H4.28219V19.1431H2.95703C2.73947 19.1431 2.53082 19.2295 2.37698 19.3834C2.22314 19.5372 2.13672 19.7458 2.13672 19.9634V23.8221C2.13672 24.0397 2.22314 24.2484 2.37698 24.4022C2.53082 24.556 2.73947 24.6425 2.95703 24.6425H5.97484V27.8243C5.97484 28.0419 6.06127 28.2505 6.21511 28.4044C6.36895 28.5582 6.5776 28.6446 6.79516 28.6446H7.52406V45.657H6.7975C6.57998 45.6571 6.3714 45.7436 6.21759 45.8974C6.06378 46.0512 5.97731 46.2598 5.97719 46.4773V49.6592H2.95703C2.73947 49.6592 2.53082 49.7456 2.37698 49.8994C2.22314 50.0533 2.13672 50.2619 2.13672 50.4795V57.0457C2.13672 57.2633 2.22314 57.472 2.37698 57.6258C2.53082 57.7796 2.73947 57.8661 2.95703 57.8661H57.0442C57.152 57.8661 57.2587 57.8449 57.3582 57.8037C57.4578 57.7625 57.5482 57.7021 57.6244 57.6259C57.7006 57.5497 57.761 57.4593 57.8022 57.3597C57.8434 57.2602 57.8646 57.1535 57.8645 57.0457V50.4781C57.8646 50.3703 57.8434 50.2636 57.8022 50.1641C57.761 50.0645 57.7006 49.9741 57.6244 49.8979C57.5482 49.8217 57.4578 49.7613 57.3582 49.7201C57.2587 49.6789 57.152 49.6577 57.0442 49.6578H54.0264V46.4759C54.0264 46.2583 53.94 46.0497 53.7861 45.8959C53.6323 45.742 53.4237 45.6556 53.2061 45.6556H52.4772V28.6446H53.2061C53.3138 28.6447 53.4205 28.6235 53.5201 28.5823C53.6196 28.5411 53.7101 28.4807 53.7863 28.4045C53.8625 28.3283 53.9229 28.2379 53.9641 28.1383C54.0053 28.0388 54.0265 27.9321 54.0264 27.8243V24.6425H57.0442C57.152 24.6425 57.2587 24.6213 57.3582 24.5801C57.4578 24.5389 57.5482 24.4785 57.6244 24.4023C57.7006 24.3261 57.761 24.2357 57.8022 24.1361C57.8434 24.0366 57.8646 23.9299 57.8645 23.8221V19.9634C57.8646 19.8557 57.8434 19.749 57.8022 19.6494C57.761 19.5499 57.7006 19.4594 57.6244 19.3832C57.5482 19.307 57.4578 19.2466 57.3582 19.2054C57.2587 19.1642 57.152 19.143 57.0442 19.1431H55.7191V17.0107H57.0442ZM3.77734 13.1918L30.0006 3.82809L56.2239 13.1918V15.3701H3.77734V13.1918ZM15.8242 24.6425V27.004H7.61547V24.6425H15.8242ZM42.5383 24.6425V27.8243C42.5382 27.9321 42.5594 28.0388 42.6006 28.1383C42.6418 28.2379 42.7022 28.3283 42.7784 28.4045C42.8546 28.4807 42.945 28.5411 43.0446 28.5823C43.1442 28.6235 43.2509 28.6447 43.3586 28.6446H44.0866V45.657H43.36C43.1424 45.657 42.9338 45.7434 42.78 45.8973C42.6261 46.0511 42.5397 46.2597 42.5397 46.4773V49.6592H17.4639V46.4759C17.4638 46.2584 17.3773 46.0498 17.2235 45.896C17.0697 45.7422 16.8611 45.6557 16.6436 45.6556H15.9147V28.6446H16.6436C16.8612 28.6446 17.0698 28.5582 17.2236 28.4044C17.3775 28.2505 17.4639 28.0419 17.4639 27.8243V24.6425H42.5383ZM9.16328 28.6446H14.2727V45.657H9.16469L9.16328 28.6446ZM7.61641 47.2962H15.8242V49.6578H7.61547L7.61641 47.2962ZM56.2258 56.224H3.77734V51.2984H56.2239L56.2258 56.224ZM44.1789 49.6578V47.2976H52.3867V49.6592L44.1789 49.6578ZM50.8352 45.6556H45.7272V28.6446H50.8366L50.8352 45.6556ZM52.382 27.004H44.178V24.6425H52.3858L52.382 27.004ZM56.2202 23.0018H3.77734V20.7837H56.2239L56.2202 23.0018ZM54.0747 19.1431H5.92281V17.0107H54.0784L54.0747 19.1431Z" fill="#202939"/>
</svg>
