<svg width="58" height="58" viewBox="0 0 58 58" fill="none" xmlns="http://www.w3.org/2000/svg">
<path d="M57.2362 12.8195V5.17641C57.2362 2.74391 55.257 0.764648 52.8244 0.764648H5.17739C2.74488 0.764648 0.765625 2.74391 0.765625 5.17641V52.8235C0.765625 55.256 2.74488 57.2352 5.17739 57.2352H52.8244C55.257 57.2352 57.2362 55.256 57.2362 52.8235V17.6935C57.2362 17.2062 56.8411 16.8112 56.3539 16.8112C55.8666 16.8112 55.4715 17.2062 55.4715 17.6935V52.8235C55.4715 54.2831 54.2841 55.4705 52.8244 55.4705H5.17739C3.71771 55.4705 2.53033 54.2831 2.53033 52.8235V5.17641C2.53033 3.71674 3.71771 2.52935 5.17739 2.52935H52.8244C54.2841 2.52935 55.4715 3.71674 55.4715 5.17641V11.9371H4.64574C4.15846 11.9371 3.76338 12.3322 3.76338 12.8195C3.76338 13.3067 4.15846 13.7018 4.64574 13.7018H56.3539C56.8411 13.7018 57.2362 13.3067 57.2362 12.8195Z" fill="#202939"/>
<path d="M51.9579 8.11529C52.4452 8.11529 52.8402 7.72022 52.8402 7.23294C52.8402 6.74566 52.4452 6.35059 51.9579 6.35059H26.2964C25.8091 6.35059 25.4141 6.74566 25.4141 7.23294C25.4141 7.72022 25.8091 8.11529 26.2964 8.11529H51.9579Z" fill="#202939"/>
<path d="M7.90949 8.11529C8.39677 8.11529 8.79185 7.72022 8.79185 7.23294C8.79185 6.74566 8.39677 6.35059 7.90949 6.35059H5.89017C5.40289 6.35059 5.00781 6.74566 5.00781 7.23294C5.00781 7.72022 5.40289 8.11529 5.89017 8.11529H7.90949Z" fill="#202939"/>
<path d="M13.1126 8.11529C13.5999 8.11529 13.995 7.72022 13.995 7.23294C13.995 6.74566 13.5999 6.35059 13.1126 6.35059H11.0933C10.606 6.35059 10.2109 6.74566 10.2109 7.23294C10.2109 7.72022 10.606 8.11529 11.0933 8.11529H13.1126Z" fill="#202939"/>
<path d="M18.3157 8.11529C18.803 8.11529 19.1981 7.72022 19.1981 7.23294C19.1981 6.74566 18.803 6.35059 18.3157 6.35059H16.2964C15.8091 6.35059 15.4141 6.74566 15.4141 7.23294C15.4141 7.72022 15.8091 8.11529 16.2964 8.11529H18.3157Z" fill="#202939"/>
<path d="M38.4474 38.9736C37.9601 38.9736 37.5651 39.3687 37.5651 39.856V47.1168C37.5651 47.6041 37.9601 47.9992 38.4474 47.9992H47.1602C47.6475 47.9992 48.0426 47.6041 48.0426 47.1168V39.856C48.0426 39.3687 47.6475 38.9736 47.1602 38.9736H43.6859V34.0302C43.6859 33.5429 43.2909 33.1478 42.8036 33.1478H29.8841V30.197H33.8706C34.3579 30.197 34.753 29.802 34.753 29.3147V22.0542C34.753 21.5669 34.3579 21.1719 33.8706 21.1719H24.1329C23.6456 21.1719 23.2505 21.5669 23.2505 22.0542V29.3147C23.2505 29.802 23.6456 30.197 24.1329 30.197H28.1194V33.1478H15.1995C14.7122 33.1478 14.3171 33.5429 14.3171 34.0302V38.9736H10.8433C10.356 38.9736 9.96094 39.3687 9.96094 39.856V47.1168C9.96094 47.6041 10.356 47.9992 10.8433 47.9992H19.5561C20.0434 47.9992 20.4384 47.6041 20.4384 47.1168V39.856C20.4384 39.3687 20.0434 38.9736 19.5561 38.9736H16.0818V34.9125H28.1194V38.9736H24.6456C24.1583 38.9736 23.7632 39.3687 23.7632 39.856V47.1168C23.7632 47.6041 24.1583 47.9992 24.6456 47.9992H33.3579C33.8452 47.9992 34.2403 47.6041 34.2403 47.1168V39.856C34.2403 39.3687 33.8452 38.9736 33.3579 38.9736H29.8841V34.9125H41.9212V38.9736H38.4474ZM25.0152 22.9366H32.9883V28.4323H25.0152V22.9366ZM18.6737 46.2345H11.7256V40.7383H18.6737V46.2345ZM32.4756 46.2345H25.5279V40.7383H32.4756V46.2345ZM46.2779 46.2345H39.3298V40.7383H46.2779V46.2345Z" fill="#202939"/>
</svg>
