<svg width="60" height="60" viewBox="0 0 60 60" fill="none" xmlns="http://www.w3.org/2000/svg">
<g clip-path="url(#clip0_2218_18344)">
<path d="M26 7H34C34.5523 7 35 6.55228 35 6C35 5.44772 34.5523 5 34 5H26C25.4477 5 25 5.44772 25 6C25 6.55228 25.4477 7 26 7Z" fill="black"/>
<path d="M26 11H34C34.5523 11 35 10.5523 35 10C35 9.44772 34.5523 9 34 9H26C25.4477 9 25 9.44772 25 10C25 10.5523 25.4477 11 26 11Z" fill="black"/>
<path d="M40 13H26C25.4477 13 25 13.4477 25 14C25 14.5523 25.4477 15 26 15H40C40.5523 15 41 14.5523 41 14C41 13.4477 40.5523 13 40 13Z" fill="black"/>
<path d="M40 17H26C25.4477 17 25 17.4477 25 18C25 18.5523 25.4477 19 26 19H40C40.5523 19 41 18.5523 41 18C41 17.4477 40.5523 17 40 17Z" fill="black"/>
<path d="M40 21H26C25.4477 21 25 21.4477 25 22C25 22.5523 25.4477 23 26 23H40C40.5523 23 41 22.5523 41 22C41 21.4477 40.5523 21 40 21Z" fill="black"/>
<path d="M56.4073 18.047C56.189 17.4095 55.7643 16.8629 55.2003 16.494C54.7137 16.1726 54.1435 16.0009 53.5603 16H46.0003V7.82902C46.0028 7.0326 45.6863 6.26836 45.1213 5.70702L40.2933 0.879015C39.732 0.314055 38.9677 -0.00251981 38.1713 1.5107e-05H23.0003C21.3435 1.5107e-05 20.0003 1.34316 20.0003 3.00002V16H16.8303C16.0318 15.9982 15.2658 16.3162 14.7033 16.883L5.29331 26.293C5.20048 26.3852 5.12703 26.495 5.07731 26.616L0.662313 37.224C0.397026 37.8373 0.459862 38.5432 0.829313 39.1C1.19943 39.662 1.82737 40.0002 2.50031 40H4.00031V57C4.00031 58.6569 5.34346 60 7.00031 60H44.0003C44.77 59.9988 45.5094 59.7004 46.0643 59.167L55.1173 50.297C55.6841 49.7346 56.0021 48.9685 56.0003 48.17V30H57.6103C58.2545 30.0012 58.8599 29.6921 59.2366 29.1695C59.6133 28.6469 59.7152 27.9748 59.5103 27.364L56.4073 18.047ZM52.7093 18L46.0003 25.5V18H52.7093ZM42.5863 6.00002H40.0003V3.41402L42.5863 6.00002ZM22.0003 3.00002C22.0003 2.44773 22.448 2.00002 23.0003 2.00002H38.0003V6.00002C38.0003 7.10459 38.8957 8.00002 40.0003 8.00002H44.0003V26H22.0003V3.00002ZM20.0003 26H18.0003V18H20.0003V26ZM16.0003 18.414V26H8.41431L16.0003 18.414ZM6.66731 28H44.5803L41.0003 38H2.50031L6.66731 28ZM7.00031 58C6.44803 58 6.00031 57.5523 6.00031 57V40H41.0003C41.8517 39.998 42.6095 39.4601 42.8923 38.657L45.0003 32.763V57C45.0003 57.5523 44.5526 58 44.0003 58H7.00031ZM53.7103 48.876L47.0003 55.46V27.382L54.0003 19.556V48.17C54.0008 48.4344 53.8965 48.6883 53.7103 48.876ZM56.0003 28V23.161L57.6103 28H56.0003Z" fill="black"/>
<path d="M22 49H10C8.89543 49 8 49.8954 8 51V54C8 55.1046 8.89543 56 10 56H22C23.1046 56 24 55.1046 24 54V51C24 49.8954 23.1046 49 22 49ZM22 54H10V51H22V54Z" fill="black"/>
<path d="M42 54H38C37.4477 54 37 54.4477 37 55C37 55.5523 37.4477 56 38 56H42C42.5523 56 43 55.5523 43 55C43 54.4477 42.5523 54 42 54Z" fill="black"/>
<path d="M40.7064 49.2928C40.3159 48.9024 39.6829 48.9024 39.2924 49.2928L37.2924 51.2928C36.9135 51.6852 36.9189 52.3089 37.3046 52.6946C37.6903 53.0803 38.3141 53.0858 38.7064 52.7068L39.9994 51.4138L41.2924 52.7068C41.6848 53.0858 42.3085 53.0803 42.6943 52.6946C43.08 52.3089 43.0854 51.6852 42.7064 51.2928L40.7064 49.2928Z" fill="black"/>
</g>
<defs>
<clipPath id="clip0_2218_18344">
<rect width="60" height="60" fill="white"/>
</clipPath>
</defs>
</svg>
