<svg width="60" height="60" viewBox="0 0 60 60" fill="none" xmlns="http://www.w3.org/2000/svg">
<g clip-path="url(#clip0_2218_18351)">
<path d="M32.8125 42.1875H24.375V36.5625C24.375 34.4944 22.6931 32.8125 20.625 32.8125H19.6875C19.17 32.8125 18.75 33.2316 18.75 33.75V38.9869L15.5494 42.1875H9.375V2.8125H43.125V9.375C43.125 9.89344 43.545 10.3125 44.0625 10.3125H50.625V30H52.5V9.375C52.5 9.11531 52.395 8.88094 52.2244 8.71125L44.7262 1.21313C44.5566 1.0425 44.3222 0.9375 44.0625 0.9375H8.4375C7.92 0.9375 7.5 1.35656 7.5 1.875V42.1875H0.9375V44.0625H12.1875V55.3125H0.9375V57.1875H15.7162L19.2684 58.9641C19.3978 59.0288 19.5422 59.0625 19.6875 59.0625H30.9375C32.4881 59.0625 33.75 57.8006 33.75 56.25V54.375V50.625V46.875V43.125C33.75 42.6066 33.33 42.1875 32.8125 42.1875ZM45 4.13812L49.2994 8.4375H45V4.13812ZM31.875 56.25C31.875 56.7675 31.4541 57.1875 30.9375 57.1875H19.9088L16.3566 55.4109C16.2272 55.3462 16.0828 55.3125 15.9375 55.3125H14.0625V44.0625H15.9375C16.1859 44.0625 16.425 43.9641 16.6003 43.7878L20.3503 40.0378C20.5266 39.8625 20.625 39.6244 20.625 39.375V34.6875C21.6591 34.6875 22.5 35.5284 22.5 36.5625V43.125C22.5 43.6434 22.92 44.0625 23.4375 44.0625H31.875V45.9375H24.375V47.8125H31.875V49.6875H24.375V51.5625H31.875V53.4375H24.375V55.3125H31.875V56.25Z" fill="#202939"/>
<path d="M56.25 49.6875H55.3125V48.75C55.3125 47.1994 54.0506 45.9375 52.5 45.9375H50.625V44.2959C50.625 41.835 51.2072 39.3703 52.3078 37.1681L52.4016 36.9816C52.4663 36.8522 52.5 36.7078 52.5 36.5625V35.625C52.5 33.0403 50.3972 30.9375 47.8125 30.9375C45.2278 30.9375 43.125 33.0403 43.125 35.625V36.5625C43.125 36.7078 43.1587 36.8522 43.2234 36.9816L43.3172 37.1681C44.4178 39.3703 45 41.835 45 44.2959V45.9375H43.125C41.5744 45.9375 40.3125 47.1994 40.3125 48.75V49.6875H39.375C37.8244 49.6875 36.5625 50.9494 36.5625 52.5V54.375C36.5625 54.8934 36.9825 55.3125 37.5 55.3125H38.4375V58.125C38.4375 58.6434 38.8575 59.0625 39.375 59.0625H56.25C56.7675 59.0625 57.1875 58.6434 57.1875 58.125V55.3125H58.125C58.6425 55.3125 59.0625 54.8934 59.0625 54.375V52.5C59.0625 50.9494 57.8006 49.6875 56.25 49.6875ZM45 36.3412V35.625C45 34.0744 46.2619 32.8125 47.8125 32.8125C49.3631 32.8125 50.625 34.0744 50.625 35.625V36.3412C49.3978 38.7994 48.75 41.55 48.75 44.2959V45.9375H46.875V44.2959C46.875 41.5491 46.2272 38.7994 45 36.3412ZM42.1875 48.75C42.1875 48.2325 42.6084 47.8125 43.125 47.8125H52.5C53.0166 47.8125 53.4375 48.2325 53.4375 48.75V49.6875H42.1875V48.75ZM55.3125 57.1875H40.3125V55.3125H55.3125V57.1875ZM57.1875 53.4375H38.4375V52.5C38.4375 51.9825 38.8584 51.5625 39.375 51.5625H56.25C56.7666 51.5625 57.1875 51.9825 57.1875 52.5V53.4375Z" fill="#202939"/>
<path d="M11.25 4.6875H41.25V6.5625H11.25V4.6875Z" fill="#202939"/>
<path d="M11.25 8.4375H41.25V10.3125H11.25V8.4375Z" fill="#202939"/>
<path d="M11.25 12.1875H41.25V14.0625H11.25V12.1875Z" fill="#202939"/>
<path d="M44.0625 26.25C44.0625 20.5641 39.4359 15.9375 33.75 15.9375C28.0641 15.9375 23.4375 20.5641 23.4375 26.25C23.4375 31.9359 28.0641 36.5625 33.75 36.5625C39.4359 36.5625 44.0625 31.9359 44.0625 26.25ZM33.75 34.6875C29.0981 34.6875 25.3125 30.9028 25.3125 26.25C25.3125 21.5972 29.0981 17.8125 33.75 17.8125C38.4019 17.8125 42.1875 21.5972 42.1875 26.25C42.1875 30.9028 38.4019 34.6875 33.75 34.6875Z" fill="black"/>
<path d="M33.4066 29.2698L30.6616 26.5248L29.3359 27.8505L33.0859 31.6005C33.2631 31.7777 33.5022 31.8752 33.7488 31.8752C33.8116 31.8752 33.8744 31.8686 33.9372 31.8555C34.2456 31.7927 34.5025 31.578 34.6197 31.2855L38.3697 21.9105L36.6287 21.2148L33.4066 29.2698Z" fill="black"/>
</g>
<defs>
<clipPath id="clip0_2218_18351">
<rect width="60" height="60" fill="white"/>
</clipPath>
</defs>
</svg>
