<svg width="60" height="60" viewBox="0 0 60 60" fill="none" xmlns="http://www.w3.org/2000/svg">
<g clip-path="url(#clip0_2218_18373)">
<path d="M26.7628 22.026C26.7628 19.1257 25.6248 16.4072 23.5586 14.3715C21.4927 12.3361 18.7549 11.2403 15.8543 11.2824C13.0085 11.3249 10.3458 12.4606 8.35702 14.4803C6.36843 16.4998 5.27332 19.1797 5.27344 22.0261C5.27344 24.499 6.13351 26.9123 7.69541 28.8215C7.95072 29.1337 8.33029 29.3127 8.73682 29.3127H23.2993C23.7058 29.3127 24.0854 29.1337 24.341 28.8215C25.9028 26.9121 26.7628 24.4989 26.7628 22.026ZM16.0181 21.0278C14.9981 21.0278 14.1683 20.1981 14.1683 19.1782C14.1683 18.1582 14.9981 17.3284 16.0181 17.3284C17.0381 17.3284 17.8679 18.1582 17.8679 19.1782C17.8679 20.1981 17.0381 21.0278 16.0181 21.0278ZM15.1993 22.6914C15.4626 22.7527 15.7364 22.7862 16.0181 22.7862C16.3008 22.7862 16.5757 22.7524 16.8399 22.6907C17.3779 22.8343 17.8686 23.1161 18.2673 23.5148C18.8678 24.1153 19.1985 24.9137 19.1985 25.7629V27.5543H12.8379V25.7629C12.8379 24.3194 13.8208 23.0583 15.1993 22.6914ZM23.1029 27.5543H20.9569V25.7629C20.9569 24.4441 20.4433 23.2042 19.5107 22.2715C19.2578 22.0186 18.9807 21.7965 18.6847 21.6061C19.2693 20.9647 19.6262 20.1123 19.6262 19.1782C19.6262 17.1885 18.0076 15.57 16.0181 15.57C14.0286 15.57 12.4099 17.1886 12.4099 19.1782C12.4099 20.113 12.7673 20.9658 13.3526 21.6074C11.9734 22.4968 11.0794 24.0477 11.0794 25.7629V27.5543H8.93329C7.7056 25.9835 7.0318 24.0283 7.0318 22.0261C7.0318 17.0615 10.9186 13.1146 15.8806 13.0407C18.3081 13.0069 20.5969 13.9221 22.3246 15.6242C24.0529 17.3267 25.0046 19.6003 25.0046 22.026C25.0045 24.0283 24.3306 25.9836 23.1029 27.5543Z" fill="#202939"/>
<path d="M57.7141 1.07227H2.28587C1.02548 1.07227 0 2.09774 0 3.35814V11.7033C0 12.189 0.393639 12.5825 0.879181 12.5825C1.36472 12.5825 1.75836 12.189 1.75836 11.7033V9.67124H58.2416V45.3068C58.2416 45.5976 58.005 45.8343 57.7141 45.8343H54.7249V43.695C54.7249 43.2093 54.3314 42.8158 53.8457 42.8158C53.3601 42.8158 52.9665 43.2093 52.9665 43.695V54.8336C52.9665 54.8658 52.9402 54.8922 52.9079 54.8922H48.3491V53.053C48.3491 52.3096 47.7443 51.7049 47.001 51.7049H38.2665C37.5232 51.7049 36.9184 52.3096 36.9184 53.053V54.8922H32.3596C32.3274 54.8922 32.301 54.8658 32.301 54.8336V29.3713C32.301 29.3391 32.3274 29.3127 32.3596 29.3127H52.9078C52.9401 29.3127 52.9664 29.3391 52.9664 29.3713V39.5921C52.9664 40.0778 53.36 40.4713 53.8456 40.4713C54.3313 40.4713 54.7248 40.0778 54.7248 39.5921V29.3713C54.7248 28.3694 53.9097 27.5544 52.9078 27.5544H32.3597C31.3578 27.5544 30.5427 28.3694 30.5427 29.3713V45.8343H26.0185C25.5988 44.5097 24.9353 43.2398 24.0331 42.0992C23.6623 41.6305 22.9709 41.5413 22.4917 41.9007L21.7039 42.4914C20.7074 41.4977 19.4994 40.7291 18.1676 40.249C13.2437 38.475 7.80455 40.9777 5.92814 45.8343H2.28587C1.99504 45.8343 1.75836 45.5976 1.75836 45.3068V15.8062C1.75836 15.3205 1.36472 14.927 0.879181 14.927C0.393639 14.927 0 15.3205 0 15.8062V45.3068C0 46.5672 1.02548 47.5927 2.28587 47.5927H5.43146C5.07346 49.5497 5.32901 51.5646 6.19248 53.4012C7.28653 55.7284 9.2212 57.4899 11.64 58.3615C12.6975 58.7427 13.7941 58.9267 14.8827 58.9267C17.3658 58.9267 19.8035 57.9671 21.6196 56.2031L22.0861 56.6358C22.2997 56.8337 22.572 56.9318 22.8437 56.9318C23.139 56.9318 23.4335 56.816 23.6508 56.5867C24.3482 55.8497 24.9351 55.02 25.3952 54.1206C26.4301 52.0978 26.7623 49.8145 26.4286 47.5927H30.5431V54.8336C30.5431 55.8355 31.3582 56.6506 32.3601 56.6506H37.3292C38.0725 56.6506 38.6773 56.0458 38.6773 55.3025V53.4632H46.5912V55.3025C46.5912 56.0458 47.196 56.6506 47.9393 56.6506H52.9084C53.9103 56.6506 54.7254 55.8355 54.7254 54.8336V47.5927H57.7146C58.975 47.5927 60.0005 46.5672 60.0005 45.3068V3.35814C60 2.09774 58.9745 1.07227 57.7141 1.07227ZM12.2361 56.7073C10.259 55.9949 8.67787 54.5552 7.78357 52.6531C6.8895 50.751 6.78939 48.6147 7.50176 46.6375C8.97245 42.5564 13.4899 40.4327 17.5714 41.9032C18.5801 42.2667 19.5016 42.8328 20.2793 43.5596L14.5503 47.8554C14.2854 48.0538 14.1235 48.3573 14.1062 48.688C14.0888 49.0187 14.2181 49.3375 14.4609 49.5628L20.328 55.0054C18.1939 57.0311 15.0438 57.7198 12.2361 56.7073ZM15.6059 49.2616C15.6057 49.2618 15.6055 49.262 15.6051 49.2623L15.6059 49.2616ZM23.8296 53.3199C23.5426 53.8807 23.1965 54.4091 22.7969 54.8971L16.223 48.7989L23.029 43.6957C25.0445 46.5966 25.3698 50.3093 23.8296 53.3199ZM1.75836 7.91288V3.35814C1.75836 3.0673 1.99504 2.83063 2.28587 2.83063H57.7141C58.005 2.83063 58.2416 3.0673 58.2416 3.35814V7.91288H1.75836Z" fill="#202939"/>
<path d="M36.7328 4.49219H5.91824C5.4327 4.49219 5.03906 4.88571 5.03906 5.37137C5.03906 5.85703 5.4327 6.25055 5.91824 6.25055H36.7329C37.2186 6.25055 37.6121 5.85703 37.6121 5.37137C37.6121 4.88571 37.2185 4.49219 36.7328 4.49219Z" fill="#202939"/>
<path d="M54.0815 4.49219H53.6839C53.1982 4.49219 52.8047 4.88571 52.8047 5.37137C52.8047 5.85703 53.1982 6.25055 53.6839 6.25055H54.0815C54.5672 6.25055 54.9607 5.85703 54.9607 5.37137C54.9607 4.88571 54.567 4.49219 54.0815 4.49219Z" fill="#202939"/>
<path d="M50.7534 4.49219H50.3557C49.8701 4.49219 49.4766 4.88571 49.4766 5.37137C49.4766 5.85703 49.8701 6.25055 50.3557 6.25055H50.7534C51.239 6.25055 51.6325 5.85703 51.6325 5.37137C51.6325 4.88571 51.239 4.49219 50.7534 4.49219Z" fill="#202939"/>
<path d="M47.4251 4.49219H47.0276C46.542 4.49219 46.1484 4.88571 46.1484 5.37137C46.1484 5.85703 46.542 6.25055 47.0276 6.25055H47.4251C47.9108 6.25055 48.3043 5.85703 48.3043 5.37137C48.3043 4.88571 47.9108 4.49219 47.4251 4.49219Z" fill="black"/>
<path d="M22.9832 31.4844H9.05901C8.3157 31.4844 7.71094 32.0891 7.71094 32.8325V36.711C7.71094 37.4544 8.3157 38.0591 9.05901 38.0591H22.9832C23.7266 38.0591 24.3313 37.4544 24.3313 36.711V32.8325C24.3313 32.0891 23.7266 31.4844 22.9832 31.4844ZM22.573 36.3006H9.4693V33.2426H22.573V36.3006Z" fill="black"/>
<path d="M49.4483 32.9399C49.4483 32.1966 48.8435 31.5918 48.1002 31.5918H37.1645C36.4212 31.5918 35.8164 32.1966 35.8164 32.9399V36.4516C35.8164 37.1949 36.4212 37.7996 37.1645 37.7996H48.1002C48.8435 37.7996 49.4483 37.1949 49.4483 36.4516V32.9399ZM47.6899 36.0413H37.5748V33.3502H47.6899V36.0413Z" fill="black"/>
<path d="M38.3673 40.2148H36.6956C36.2099 40.2148 35.8164 40.6084 35.8164 41.094C35.8164 41.5797 36.2099 41.9732 36.6956 41.9732H38.3673C38.853 41.9732 39.2465 41.5797 39.2465 41.094C39.2465 40.6084 38.8529 40.2148 38.3673 40.2148Z" fill="black"/>
<path d="M48.5702 40.2148H41.5784C41.0927 40.2148 40.6992 40.6084 40.6992 41.094C40.6992 41.5797 41.0927 41.9732 41.5784 41.9732H48.5702C49.0559 41.9732 49.4494 41.5797 49.4494 41.094C49.4494 40.6084 49.0558 40.2148 48.5702 40.2148Z" fill="black"/>
<path d="M38.3673 43.9648H36.6956C36.2099 43.9648 35.8164 44.3584 35.8164 44.844C35.8164 45.3297 36.2099 45.7232 36.6956 45.7232H38.3673C38.853 45.7232 39.2465 45.3297 39.2465 44.844C39.2465 44.3584 38.8529 43.9648 38.3673 43.9648Z" fill="black"/>
<path d="M48.5702 43.9648H41.5784C41.0927 43.9648 40.6992 44.3584 40.6992 44.844C40.6992 45.3297 41.0927 45.7232 41.5784 45.7232H48.5702C49.0559 45.7232 49.4494 45.3297 49.4494 44.844C49.4494 44.3584 49.0558 43.9648 48.5702 43.9648Z" fill="black"/>
<path d="M38.3673 47.7168H36.6956C36.2099 47.7168 35.8164 48.1103 35.8164 48.596C35.8164 49.0816 36.2099 49.4752 36.6956 49.4752H38.3673C38.853 49.4752 39.2465 49.0816 39.2465 48.596C39.2465 48.1103 38.8529 47.7168 38.3673 47.7168Z" fill="black"/>
<path d="M48.5702 47.7168H41.5784C41.0927 47.7168 40.6992 48.1103 40.6992 48.596C40.6992 49.0816 41.0927 49.4752 41.5784 49.4752H48.5702C49.0559 49.4752 49.4494 49.0816 49.4494 48.596C49.4494 48.1103 49.0558 47.7168 48.5702 47.7168Z" fill="black"/>
<path d="M33.3792 11.2812C32.8935 11.2812 32.5 11.6748 32.5 12.1604V24.099C32.5 24.713 32.9996 25.2126 33.6136 25.2126H50.3556C50.8412 25.2126 51.2348 24.8191 51.2348 24.3335C51.2348 23.8478 50.8412 23.4543 50.3556 23.4543H34.2584V19.7095L38.7509 16.4396C39.1407 16.692 39.604 16.8403 40.102 16.8403C40.4171 16.8403 40.7174 16.7792 40.9952 16.672L42.3821 18.2088C42.1941 18.5593 42.0867 18.9594 42.0867 19.3844C42.0867 20.7601 43.2061 21.8795 44.5818 21.8795C45.9577 21.8795 47.0771 20.7601 47.0771 19.3844C47.0771 19.1346 47.0392 18.8937 46.9706 18.666L49.2162 16.9067C49.5827 17.1187 50.0067 17.2419 50.4597 17.2419C51.8354 17.2419 52.9548 16.1225 52.9548 14.7467C52.9548 13.371 51.8354 12.2516 50.4597 12.2516C49.0839 12.2516 47.9646 13.371 47.9646 14.7467C47.9646 15.0274 48.0132 15.2963 48.099 15.5482L45.9009 17.2703C45.5177 17.0304 45.0664 16.8893 44.5818 16.8893C44.2732 16.8893 43.9787 16.9482 43.7056 17.0511L42.3094 15.5041C42.4922 15.1574 42.597 14.7634 42.597 14.3449C42.597 12.9692 41.4776 11.8498 40.1019 11.8498C38.7261 11.8498 37.6068 12.9692 37.6068 14.3449C37.6068 14.5816 37.642 14.8097 37.7038 15.0267L34.2582 17.5347V12.1604C34.2584 11.6748 33.8648 11.2812 33.3792 11.2812ZM50.4598 14.0098C50.8661 14.0098 51.1965 14.3402 51.1965 14.7465C51.1965 15.1528 50.8661 15.4833 50.4598 15.4833C50.0535 15.4833 49.723 15.1528 49.723 14.7465C49.723 14.3402 50.0535 14.0098 50.4598 14.0098ZM45.3189 19.3843C45.3189 19.7905 44.9884 20.121 44.5821 20.121C44.1758 20.121 43.8453 19.7905 43.8453 19.3843C43.8453 18.978 44.1758 18.6475 44.5821 18.6475C44.9884 18.6475 45.3189 18.978 45.3189 19.3843ZM40.1021 13.6081C40.5084 13.6081 40.8389 13.9386 40.8389 14.3449C40.8389 14.7512 40.5084 15.0818 40.1021 15.0818C39.6958 15.0818 39.3653 14.7512 39.3653 14.3449C39.3653 13.9386 39.6958 13.6081 40.1021 13.6081Z" fill="black"/>
</g>
<defs>
<clipPath id="clip0_2218_18373">
<rect width="60" height="60" fill="white"/>
</clipPath>
</defs>
</svg>
