<svg width="54" height="60" viewBox="0 0 54 60" fill="none" xmlns="http://www.w3.org/2000/svg">
<path d="M36.2525 16.1484H7.51937C7.03187 16.1484 6.63672 16.5436 6.63672 17.0311C6.63672 17.5186 7.03187 17.9137 7.51937 17.9137H36.2526C36.7401 17.9137 37.1352 17.5186 37.1352 17.0311C37.1352 16.5436 36.74 16.1484 36.2525 16.1484Z" fill="#202939"/>
<path d="M7.51937 11.7917H21.8859C22.3734 11.7917 22.7685 11.3965 22.7685 10.909C22.7685 10.4215 22.3734 10.0264 21.8859 10.0264H7.51937C7.03187 10.0264 6.63672 10.4215 6.63672 10.909C6.63672 11.3966 7.03187 11.7917 7.51937 11.7917Z" fill="#202939"/>
<path d="M36.2525 21.5742H7.51937C7.03187 21.5742 6.63672 21.9694 6.63672 22.4569C6.63672 22.9444 7.03187 23.3395 7.51937 23.3395H36.2526C36.7401 23.3395 37.1352 22.9444 37.1352 22.4569C37.1351 21.9694 36.74 21.5742 36.2525 21.5742Z" fill="#202939"/>
<path d="M14.065 53.8673H4.86965C3.36039 53.8673 2.13238 52.6395 2.13238 51.1302V4.50246C2.13238 2.9932 3.36039 1.7652 4.86965 1.7652H31.3606C31.4461 1.7652 31.5304 1.77305 31.6137 1.7843V7.28906C31.6137 9.7718 33.6336 11.7915 36.1162 11.7915H41.6208C41.6322 11.875 41.6399 11.9592 41.6399 12.0448V27.0754C41.6399 27.5629 42.0351 27.958 42.5226 27.958C43.0101 27.958 43.4052 27.5629 43.4052 27.0754V12.0449C43.4052 11.0767 43.0281 10.1664 42.3435 9.48164L33.9236 1.06172C33.239 0.377109 32.3288 0 31.3606 0H4.86965C2.38691 0 0.367188 2.01984 0.367188 4.50246V51.1302C0.367188 53.6128 2.38703 55.6325 4.86965 55.6325H14.065C14.5525 55.6325 14.9477 55.2374 14.9477 54.7499C14.9477 54.2624 14.5525 53.8673 14.065 53.8673ZM40.3918 10.0263H36.1163C34.607 10.0263 33.379 8.79832 33.379 7.28906V3.01359L40.3918 10.0263Z" fill="#202939"/>
<path d="M53.3628 43.2102L45.8841 30.5868C45.3391 29.6664 44.1529 29.3622 43.232 29.9077L41.4129 30.9854C40.0009 31.8219 39.4041 33.5147 39.8889 35.0148C39.276 35.2369 38.604 35.2334 37.9853 34.9942C36.549 34.5423 35.4571 33.6333 33.6537 34.0894C30.5916 34.869 30.6846 34.83 30.4076 34.9249C28.6146 33.9041 27.5369 33.6004 25.6335 34.3366L23.9369 34.9925C23.1514 35.2961 22.2858 35.2241 21.5599 34.794L21.0969 34.5211C21.3229 33.1673 20.7225 31.7387 19.4513 30.9857C19.4513 30.9857 19.4513 30.9857 19.4512 30.9855L17.6322 29.9079C16.7139 29.364 15.5242 29.6685 14.9802 30.5868L7.50131 43.2103C6.95628 44.1305 7.25956 45.317 8.18018 45.8623L9.99917 46.9399C10.5496 47.2661 11.1545 47.4211 11.7522 47.4211C12.4186 47.4211 13.0757 47.228 13.6375 46.8642L14.0166 47.0879L13.2162 48.2027C12.2624 49.5314 12.5655 51.379 13.8944 52.3329C14.5089 52.774 15.2809 52.9754 16.0793 52.85C16.206 53.5906 16.6117 54.2836 17.2687 54.7554C17.8857 55.1984 18.6542 55.4 19.454 55.2741C19.581 56.014 19.9865 56.7064 20.6431 57.1779C21.5255 57.8113 22.6226 57.8845 23.5368 57.4941C23.7368 58.0137 24.0845 58.4829 24.5696 58.8312C25.8361 59.7402 27.5808 59.5031 28.5649 58.3254L30.6919 59.5854C32.0985 60.4189 33.9134 59.9557 34.7474 58.5475C34.9607 58.1875 35.093 57.7951 35.1414 57.3919L35.1462 57.3948C36.5507 58.2266 38.3697 57.7609 39.2017 56.3568C39.4426 55.95 39.5747 55.5088 39.6068 55.0666C40.8448 55.3779 42.194 54.8579 42.8772 53.7048C43.1014 53.3265 43.2313 52.9179 43.2741 52.5067C44.6009 53.0273 46.1516 52.5241 46.9009 51.2595C47.3039 50.5792 47.418 49.7828 47.2219 49.0167C47.1098 48.5784 46.9035 48.1806 46.6204 47.8446L47.7927 47.1597C48.7845 47.5668 49.9163 47.5016 50.8648 46.9398L52.6835 45.8622C53.6042 45.3172 53.9083 44.1309 53.3628 43.2102ZM10.8989 45.4213L9.07995 44.3435C8.99909 44.2956 8.97225 44.1908 9.02006 44.11L16.499 31.4862C16.5471 31.405 16.6523 31.3786 16.7326 31.4264L18.5515 32.5039C19.3598 32.9829 19.6126 34.0195 19.1425 34.813L13.208 44.8302C12.7343 45.6299 11.6986 45.8948 10.8989 45.4213ZM14.9237 50.8989C14.3877 50.514 14.2651 49.7685 14.6502 49.2322L15.8267 47.5935C16.2014 47.0714 16.9483 46.9286 17.4933 47.3198C18.0283 47.7039 18.151 48.4514 17.7671 48.9864L16.5905 50.6251C16.2065 51.1603 15.4585 51.2827 14.9237 50.8989ZM18.2982 53.3215C17.7632 52.9373 17.6405 52.1896 18.0245 51.6547L19.201 50.0161C19.201 50.0161 19.201 50.0161 19.201 50.016C19.201 50.016 19.201 50.0159 19.2011 50.0159L20.4994 48.2074C20.6855 47.9483 20.9612 47.777 21.276 47.7254C21.3414 47.7147 21.4069 47.7094 21.4719 47.7094C21.7197 47.7094 21.9607 47.7865 22.166 47.9338C22.425 48.1199 22.5964 48.3955 22.6479 48.7103C22.6996 49.0252 22.6257 49.3412 22.4396 49.6003L19.9647 53.0477C19.5801 53.5839 18.8344 53.7066 18.2982 53.3215ZM21.6726 55.7439C21.1378 55.36 21.015 54.6128 21.3983 54.0779C21.3985 54.0777 21.3987 54.0775 21.3988 54.0772L23.8737 50.6299C24.2575 50.0951 25.0056 49.9723 25.5403 50.3562C26.0753 50.7402 26.198 51.4879 25.814 52.0228L24.7144 53.5546C24.7144 53.5546 24.7144 53.5546 24.7143 53.5547L23.3391 55.4702C22.9551 56.0052 22.2076 56.1281 21.6726 55.7439ZM25.5991 57.3972C25.0644 57.0132 24.9415 56.2664 25.3246 55.7314L26.1483 54.5842C26.5322 54.0491 27.2802 53.9268 27.8149 54.3105C28.3498 54.6945 28.4726 55.4422 28.0886 55.9772L27.2656 57.1234C26.8817 57.6585 26.1338 57.7813 25.5991 57.3972ZM45.3825 50.3598C45.0467 50.9266 44.3126 51.1146 43.7457 50.7789C42.7857 50.2102 36.593 46.5414 35.9328 46.1502C35.5132 45.9018 34.9719 46.0402 34.7235 46.4596C34.4751 46.879 34.6135 47.4204 35.0329 47.6688L40.9395 51.1682L40.9396 51.1683C41.5067 51.5041 41.6958 52.236 41.3587 52.8053C41.0227 53.3723 40.2883 53.56 39.7215 53.2245C37.5369 51.9302 35.7631 50.8793 33.8118 49.7232C33.3921 49.4748 32.851 49.6132 32.6025 50.0326C32.3541 50.452 32.4925 50.9934 32.9119 51.2419L37.264 53.8202L37.2649 53.8208C37.8324 54.1577 38.0196 54.8892 37.6832 55.4573C37.3472 56.0244 36.613 56.2123 36.046 55.8764L33.7103 54.4928C33.7101 54.4927 33.7097 54.4925 33.7095 54.4923C33.7092 54.4922 33.709 54.4921 33.7088 54.492L32.0043 53.482C31.5848 53.2335 31.0435 53.3719 30.795 53.7914C30.5466 54.2108 30.685 54.7522 31.1044 55.0007L32.8092 56.0107C32.8095 56.0108 32.8097 56.0111 32.8099 56.0112C33.377 56.347 33.5662 57.0788 33.229 57.6481C32.893 58.2151 32.1589 58.403 31.5918 58.0671L29.603 56.889C30.4555 55.5735 30.1313 53.8007 28.8444 52.877C28.4665 52.6058 28.0457 52.437 27.6153 52.3644C28.0718 51.1437 27.6782 49.7184 26.5697 48.9227C25.9135 48.4514 25.1277 48.2886 24.3862 48.4049C24.2542 47.6332 23.8322 46.9573 23.1955 46.5004C21.9981 45.641 20.3708 45.8061 19.3657 46.823C19.1615 46.4643 18.8795 46.1425 18.5228 45.8864C17.5278 45.1723 16.2359 45.1656 15.2508 45.7671L14.8464 45.5284L20.3976 36.1582L20.6618 36.3141C21.829 37.0055 23.2533 37.1496 24.5733 36.6391L26.2699 35.9832C27.2408 35.608 27.7763 35.5835 28.7366 36.0367C28.1083 36.7426 27.7353 37.6695 27.7353 38.6684V42.5818C27.7353 43.6213 28.5803 44.4675 29.6189 44.4682H29.6215C30.6633 44.4682 31.643 44.0626 32.38 43.3261C32.8096 42.8967 33.1267 42.3848 33.3168 41.8261C34.4564 42.501 43.8721 48.0766 44.9637 48.7234C45.2383 48.8861 45.433 49.1459 45.5121 49.455C45.5912 49.7638 45.5452 50.0852 45.3825 50.3598ZM51.7842 44.3435L49.9651 45.4213C49.1655 45.8947 48.1298 45.6295 47.6563 44.8303L44.8748 40.1352C44.6262 39.7158 44.0846 39.5774 43.6655 39.8256C43.2461 40.074 43.1076 40.6154 43.3559 41.0348L46.1374 45.7301C46.1898 45.8184 46.2467 45.9025 46.3055 45.9844L45.5322 46.4361C45.3758 46.5287 45.2255 46.6307 45.0817 46.7414L33.0907 39.6404C32.5033 39.2927 31.7584 39.7166 31.7584 40.3998C31.7492 40.4525 31.8496 41.3598 31.1321 42.0771C30.7285 42.4804 30.192 42.7025 29.6214 42.7025C29.6209 42.7025 29.6205 42.7025 29.62 42.7025C29.554 42.7025 29.5003 42.6482 29.5003 42.5814V38.6679C29.5003 37.6455 30.2037 36.783 31.1549 36.5422L34.0865 35.8003C35.1502 35.5315 35.7515 36.0995 37.3442 36.6386C38.4498 37.0663 39.6521 37.0399 40.7192 36.5842L41.2519 37.4835C41.5005 37.9031 42.0419 38.0414 42.4612 37.7931C42.8806 37.5446 43.0191 37.0032 42.7708 36.5838L41.7215 34.8128C41.2467 34.0114 41.5112 32.9788 42.3124 32.5038L44.1314 31.4263C44.2109 31.3791 44.316 31.4032 44.3652 31.4862L51.8439 44.1097C51.8922 44.1912 51.8656 44.2954 51.7842 44.3435Z" fill="#202939"/>
</svg>
