<svg width="60" height="60" viewBox="0 0 60 60" fill="none" xmlns="http://www.w3.org/2000/svg">
<path d="M3.48438 6.19336V53.7627H33.591V44.0787H32.0804V47.0894H4.99304V14.678H32.0804V17.6647H33.591V6.19336H3.48438ZM4.99304 7.70403H32.0804V13.1647H4.99304V7.70403ZM4.99304 48.5994H32.0804V52.252H4.99304V48.5994Z" fill="black"/>
<path d="M15.2773 9.67773H21.8013V11.1884H15.2773V9.67773Z" fill="black"/>
<path d="M41.7041 16.9141V22.9494H36.5208C34.0901 19.6681 30.2088 17.5261 25.8234 17.5261C18.4728 17.5261 12.4961 23.5154 12.4961 30.8827C12.4961 38.2514 18.4728 44.2407 25.8234 44.2407C30.2088 44.2407 34.0894 42.0987 36.5208 38.8134H41.7041V44.8487H45.4894L56.5168 30.8827L45.4888 16.9141H41.7041ZM43.2141 18.4287H44.7594L54.5928 30.8834L44.7594 43.3394H43.2141V37.3041H37.5034C38.5514 35.3981 39.1494 33.2101 39.1494 30.8834C39.1494 28.5581 38.5521 26.3667 37.5034 24.4601H43.2141V18.4287ZM37.6388 30.8834C37.6388 37.4361 32.3574 42.7267 25.8228 42.7267C19.2908 42.7267 14.0068 37.4347 14.0068 30.8827C14.0068 24.3307 19.2914 19.0367 25.8228 19.0367C32.3574 19.0367 37.6388 24.3307 37.6388 30.8834Z" fill="black"/>
<path d="M25.068 24.6829C23.3454 24.9916 21.8007 26.5629 21.9294 28.3876C21.9647 29.6856 22.912 30.8423 24.134 31.2343C25.318 31.6549 26.6787 31.6729 27.7074 32.4649C28.2347 32.9443 28.294 33.7776 28.124 34.4296C27.6587 35.4436 26.402 35.7176 25.388 35.6629C24.562 35.6136 23.7627 35.3529 23.034 34.9716C22.798 35.4183 22.5647 35.8636 22.3327 36.3116C23.1827 36.7569 24.1107 37.0616 25.0687 37.1556V39.3329H26.5794V37.1009C28.1074 36.9016 29.6414 35.7323 29.718 34.1009C29.804 32.7049 29.0474 31.2469 27.7214 30.7009C26.69 30.1903 25.5094 30.1449 24.4474 29.7256C23.7807 29.4649 23.3327 28.7596 23.444 28.0409C23.568 26.7909 24.9087 26.0616 26.0687 26.0823C26.9714 26.0823 27.836 26.4883 28.4954 27.0929C28.8327 26.7216 29.17 26.3456 29.506 25.9716C28.7014 25.2423 27.6734 24.7176 26.5794 24.6176V22.4343L25.068 22.4336V24.6829Z" fill="black"/>
</svg>
