<svg width="60" height="60" viewBox="0 0 60 60" fill="none" xmlns="http://www.w3.org/2000/svg">
<g clip-path="url(#clip0_2218_18358)">
<path d="M17.729 53.1816C17.3245 53.1816 16.929 53.3016 16.5927 53.5264C16.2563 53.7511 15.9941 54.0706 15.8393 54.4443C15.6845 54.8181 15.644 55.2294 15.7229 55.6261C15.8018 56.0229 15.9966 56.3874 16.2827 56.6735C16.5688 56.9595 16.9332 57.1543 17.33 57.2332C17.7268 57.3122 18.1381 57.2717 18.5118 57.1168C18.8856 56.962 19.205 56.6999 19.4298 56.3635C19.6545 56.0271 19.7745 55.6316 19.7745 55.2271C19.7739 54.6848 19.5582 54.1649 19.1747 53.7814C18.7913 53.3979 18.2714 53.1822 17.729 53.1816ZM17.729 55.9089C17.5942 55.9089 17.4624 55.8689 17.3503 55.794C17.2381 55.7191 17.1507 55.6126 17.0991 55.488C17.0475 55.3634 17.034 55.2263 17.0603 55.0941C17.0866 54.9618 17.1516 54.8403 17.2469 54.745C17.3423 54.6496 17.4638 54.5847 17.596 54.5584C17.7283 54.5321 17.8654 54.5456 17.99 54.5972C18.1146 54.6488 18.221 54.7362 18.296 54.8483C18.3709 54.9604 18.4109 55.0922 18.4109 55.2271C18.4106 55.4079 18.3387 55.5811 18.2109 55.709C18.0831 55.8368 17.9098 55.9087 17.729 55.9089Z" fill="black"/>
<path d="M16.3654 5.45348H22.5018C22.6826 5.45348 22.856 5.38165 22.9839 5.25378C23.1118 5.12591 23.1836 4.95249 23.1836 4.77166C23.1836 4.59083 23.1118 4.41741 22.9839 4.28954C22.856 4.16168 22.6826 4.08984 22.5018 4.08984H16.3654C16.1846 4.08984 16.0112 4.16168 15.8833 4.28954C15.7554 4.41741 15.6836 4.59083 15.6836 4.77166C15.6836 4.95249 15.7554 5.12591 15.8833 5.25378C16.0112 5.38165 16.1846 5.45348 16.3654 5.45348Z" fill="black"/>
<path d="M12.9553 5.45348H14.3189C14.4997 5.45348 14.6731 5.38165 14.801 5.25378C14.9289 5.12591 15.0007 4.95249 15.0007 4.77166C15.0007 4.59083 14.9289 4.41741 14.801 4.28954C14.6731 4.16168 14.4997 4.08984 14.3189 4.08984H12.9553C12.7744 4.08984 12.601 4.16168 12.4731 4.28954C12.3453 4.41741 12.2734 4.59083 12.2734 4.77166C12.2734 4.95249 12.3453 5.12591 12.4731 5.25378C12.601 5.38165 12.7744 5.45348 12.9553 5.45348Z" fill="black"/>
<path d="M58.6385 27.272H50.4567V25.2266C50.4567 25.0918 50.4167 24.96 50.3417 24.8479C50.2668 24.7358 50.1604 24.6484 50.0358 24.5968C49.9112 24.5452 49.7741 24.5317 49.6419 24.558C49.5097 24.5843 49.3882 24.6492 49.2928 24.7445L44.5201 29.5173C44.4568 29.5806 44.4065 29.6557 44.3722 29.7384C44.338 29.8211 44.3203 29.9098 44.3203 29.9993C44.3203 30.0889 44.338 30.1775 44.3722 30.2602C44.4065 30.3429 44.4568 30.4181 44.5201 30.4814L49.2928 35.2541C49.3882 35.3494 49.5097 35.4143 49.6419 35.4406C49.7741 35.4669 49.9112 35.4534 50.0358 35.4018C50.1604 35.3502 50.2668 35.2629 50.3417 35.1508C50.4167 35.0387 50.4567 34.9069 50.4567 34.7721V32.7266H58.6385C58.8194 32.7266 58.9928 32.6548 59.1206 32.5269C59.2485 32.399 59.3203 32.2256 59.3203 32.0448V27.9539C59.3203 27.773 59.2485 27.5996 59.1206 27.4717C58.9928 27.3439 58.8194 27.272 58.6385 27.272ZM57.9567 31.363H49.7749C49.5941 31.363 49.4206 31.4348 49.2928 31.5627C49.1649 31.6905 49.0931 31.8639 49.0931 32.0448V33.1261L45.9663 29.9993L49.0931 26.8726V27.9539C49.0931 28.1347 49.1649 28.3081 49.2928 28.436C49.4206 28.5639 49.5941 28.6357 49.7749 28.6357H57.9567V31.363Z" fill="black"/>
<path d="M42.2745 17.0453H34.7745V4.09073C34.7734 3.18691 34.4139 2.32041 33.7748 1.68132C33.1357 1.04222 32.2692 0.682705 31.3654 0.681641H4.09268C3.18886 0.682705 2.32237 1.04222 1.68327 1.68132C1.04417 2.32041 0.684658 3.18691 0.683594 4.09073V55.9089C0.684658 56.8127 1.04417 57.6792 1.68327 58.3183C2.32237 58.9574 3.18886 59.3169 4.09268 59.318H31.3654C32.2692 59.3169 33.1357 58.9574 33.7748 58.3183C34.4139 57.6792 34.7734 56.8127 34.7745 55.9089V42.9544H42.2745C42.4553 42.9544 42.6288 42.8825 42.7566 42.7547C42.8845 42.6268 42.9563 42.4534 42.9563 42.2725V17.7271C42.9563 17.5463 42.8845 17.3728 42.7566 17.245C42.6288 17.1171 42.4553 17.0453 42.2745 17.0453ZM33.4109 55.9089C33.4103 56.4512 33.1946 56.9711 32.8111 57.3546C32.4276 57.7381 31.9077 57.9538 31.3654 57.9544H4.09268C3.55038 57.9538 3.03046 57.7381 2.64699 57.3546C2.26352 56.9711 2.04783 56.4512 2.04723 55.9089V4.09073C2.04783 3.54843 2.26352 3.0285 2.64699 2.64503C3.03046 2.26157 3.55038 2.04587 4.09268 2.04528H31.3654C31.9077 2.04587 32.4276 2.26157 32.8111 2.64503C33.1946 3.0285 33.4103 3.54843 33.4109 4.09073V17.0453H32.0472V8.18164C32.0472 8.00081 31.9754 7.82739 31.8475 7.69952C31.7197 7.57166 31.5462 7.49982 31.3654 7.49982H4.09268C3.91186 7.49982 3.73843 7.57166 3.61057 7.69952C3.4827 7.82739 3.41087 8.00081 3.41087 8.18164V51.818C3.41087 51.9988 3.4827 52.1723 3.61057 52.3001C3.73843 52.428 3.91186 52.4998 4.09268 52.4998H31.3654C31.5462 52.4998 31.7197 52.428 31.8475 52.3001C31.9754 52.1723 32.0472 51.9988 32.0472 51.818V42.9544H33.4109V55.9089ZM14.32 21.818H34.8314C34.9744 22.6551 35.3736 23.4271 35.9741 24.0275C36.5745 24.628 37.3465 25.0272 38.1836 25.1702V34.8295C37.3465 34.9724 36.5745 35.3717 35.9741 35.9721C35.3736 36.5726 34.9744 37.3446 34.8314 38.1816H14.32V21.818ZM13.6381 13.6362C13.4573 13.6362 13.2839 13.708 13.156 13.8359C13.0282 13.9638 12.9563 14.1372 12.9563 14.318V45.6816C12.9563 45.8625 13.0282 46.0359 13.156 46.1638C13.2839 46.2916 13.4573 46.3635 13.6381 46.3635C13.819 46.3635 13.9924 46.2916 14.1203 46.1638C14.2481 46.0359 14.32 45.8625 14.32 45.6816V42.9544H30.6836V51.1362H4.7745V8.86346H30.6836V17.0453H14.32V14.318C14.32 14.1372 14.2481 13.9638 14.1203 13.8359C13.9924 13.708 13.819 13.6362 13.6381 13.6362ZM41.5927 41.5907H14.32V39.5453H35.4563C35.6371 39.5453 35.8106 39.4734 35.9384 39.3456C36.0663 39.2177 36.1381 39.0443 36.1381 38.8635C36.139 38.1404 36.4266 37.4472 36.9378 36.9359C37.4491 36.4246 38.1423 36.137 38.8654 36.1362C39.0462 36.1362 39.2197 36.0644 39.3475 35.9365C39.4754 35.8086 39.5472 35.6352 39.5472 35.4544V24.5453C39.5472 24.3644 39.4754 24.191 39.3475 24.0632C39.2197 23.9353 39.0462 23.8635 38.8654 23.8635C38.1423 23.8626 37.4491 23.575 36.9378 23.0638C36.4266 22.5525 36.139 21.8593 36.1381 21.1362C36.1381 20.9554 36.0663 20.7819 35.9384 20.6541C35.8106 20.5262 35.6371 20.4544 35.4563 20.4544H14.32V18.4089H41.5927V41.5907Z" fill="black"/>
<path d="M23.1831 28.6037C23.3671 28.5964 23.5411 28.5179 23.6684 28.3847C23.7956 28.2516 23.8661 28.0741 23.8649 27.89C23.8634 27.2922 23.6609 26.7124 23.2899 26.2437C22.9188 25.7751 22.4009 25.445 21.8195 25.3064V24.5451C21.8195 24.3643 21.7476 24.1908 21.6198 24.063C21.4919 23.9351 21.3185 23.8633 21.1376 23.8633C20.9568 23.8633 20.7834 23.9351 20.6555 24.063C20.5277 24.1908 20.4558 24.3643 20.4558 24.5451V25.3064C19.8929 25.4397 19.3889 25.753 19.0202 26.1988C18.6514 26.6445 18.4382 27.1983 18.4127 27.7762C18.3873 28.3542 18.551 28.9246 18.8791 29.401C19.2073 29.8774 19.6818 30.2338 20.2308 30.4161L20.4558 30.4911V33.2432C20.2448 33.1234 20.0701 32.9488 19.9501 32.7379C19.8301 32.527 19.7693 32.2877 19.774 32.0451C19.7733 31.9572 19.755 31.8704 19.7201 31.7898C19.6852 31.7092 19.6344 31.6364 19.5708 31.5758C19.5072 31.5152 19.432 31.468 19.3498 31.4371C19.2676 31.4061 19.18 31.392 19.0922 31.3956C18.9081 31.4029 18.7341 31.4814 18.6069 31.6146C18.4797 31.7477 18.4092 31.9252 18.4104 32.1093C18.4118 32.7071 18.6144 33.2869 18.9854 33.7555C19.3564 34.2242 19.8744 34.5543 20.4558 34.6929V35.4542C20.4558 35.635 20.5277 35.8084 20.6555 35.9363C20.7834 36.0642 20.9568 36.136 21.1376 36.136C21.3185 36.136 21.4919 36.0642 21.6198 35.9363C21.7476 35.8084 21.8195 35.635 21.8195 35.4542V34.6929C22.3824 34.5596 22.8864 34.2463 23.2551 33.8005C23.6238 33.3548 23.8371 32.801 23.8625 32.223C23.888 31.6451 23.7242 31.0747 23.3961 30.5983C23.068 30.1219 22.5935 29.7655 22.0445 29.5832L21.8195 29.5082V26.7542C22.0248 26.8647 22.1966 27.0285 22.3166 27.2285C22.4366 27.4284 22.5004 27.6571 22.5013 27.8903V27.9542C22.5019 28.042 22.5203 28.1289 22.5552 28.2095C22.5901 28.2901 22.6409 28.3629 22.7045 28.4235C22.7681 28.4841 22.8433 28.5313 22.9255 28.5622C23.0077 28.5932 23.0953 28.6073 23.1831 28.6037ZM19.774 27.89C19.7749 27.6568 19.8388 27.4282 19.9588 27.2283C20.0788 27.0284 20.2505 26.8646 20.4558 26.7542V29.0154C20.2513 28.9067 20.0799 28.7447 19.9599 28.5466C19.8399 28.3485 19.7757 28.1216 19.774 27.89ZM22.5013 32.1093C22.5004 32.3425 22.4366 32.5712 22.3166 32.7711C22.1966 32.9711 22.0248 33.135 21.8195 33.2454V30.9843C22.0239 31.0929 22.1952 31.2549 22.3153 31.4529C22.4353 31.651 22.4995 31.8778 22.5013 32.1093Z" fill="black"/>
</g>
<defs>
<clipPath id="clip0_2218_18358">
<rect width="60" height="60" fill="white"/>
</clipPath>
</defs>
</svg>
