<svg width="60" height="60" viewBox="0 0 60 60" fill="none" xmlns="http://www.w3.org/2000/svg">
<g clip-path="url(#clip0_2218_18387)">
<path d="M56.6514 11.3436L59.7248 8.26972C59.8134 8.18302 59.884 8.0796 59.9324 7.96544C59.9808 7.85128 60.0061 7.72865 60.0068 7.60465C60.0074 7.48066 59.9835 7.35776 59.9364 7.24307C59.8892 7.12839 59.8198 7.02419 59.7321 6.93652C59.6444 6.84885 59.5402 6.77944 59.4255 6.73232C59.3108 6.6852 59.1879 6.6613 59.0639 6.66201C58.9399 6.66271 58.8173 6.68801 58.7032 6.73643C58.589 6.78485 58.4856 6.85544 58.3989 6.9441L55.0658 10.2777C54.9784 10.3651 54.9091 10.469 54.862 10.5833C54.8149 10.6975 54.7909 10.82 54.7913 10.9436C54.7913 10.9731 54.7542 13.9436 53.0937 15.6045L52.0024 16.6959L50.5447 15.2379C50.3688 15.0621 50.1304 14.9633 49.8817 14.9633C49.6331 14.9633 49.3946 15.0621 49.2188 15.2379C49.043 15.4137 48.9442 15.6522 48.9442 15.9009C48.9442 16.1495 49.043 16.388 49.2188 16.5638L55.9484 23.2933L51.5921 27.6495C51.4683 27.7733 51.3816 27.9294 51.3419 28.1C51.3022 28.2705 51.3111 28.4488 51.3676 28.6146C51.424 28.7804 51.5258 28.927 51.6613 29.0379C51.7969 29.1488 51.9608 29.2195 52.1344 29.2421C52.5766 29.298 52.9942 29.4769 53.3396 29.7585C53.6851 30.04 53.9446 30.4129 54.0885 30.8347C54.2325 31.2565 54.2552 31.7102 54.1539 32.1442C54.0527 32.5783 53.8317 32.9751 53.516 33.2897C53.0673 33.7373 52.4594 33.9887 51.8256 33.9887C51.1918 33.9887 50.5839 33.7373 50.1352 33.2897C49.7653 32.9163 49.5306 32.4301 49.4684 31.9082C49.4459 31.7345 49.3752 31.5706 49.2643 31.435C49.1534 31.2995 49.0067 31.1977 48.8409 31.1412C48.6751 31.0848 48.4968 31.0759 48.3262 31.1156C48.1556 31.1553 47.9996 31.242 47.8757 31.3659L43.0007 36.2409L38.5879 31.8279C38.4641 31.7041 38.308 31.6174 38.1374 31.5777C37.9668 31.538 37.7885 31.5469 37.6227 31.6034C37.4569 31.6598 37.3102 31.7616 37.1993 31.8972C37.0884 32.0328 37.0177 32.1967 36.9952 32.3704C36.9384 32.8195 36.7566 33.2436 36.4706 33.5945C36.1846 33.9454 35.8058 34.2089 35.3774 34.3551C34.9489 34.5013 34.4881 34.5243 34.0472 34.4214C33.6064 34.3185 33.2033 34.0939 32.8838 33.7732C32.4292 33.3175 32.1739 32.7001 32.1739 32.0564C32.1739 31.4128 32.4292 30.7954 32.8838 30.3396C33.2631 29.9639 33.757 29.7255 34.2871 29.6623C34.4608 29.6398 34.6247 29.569 34.7602 29.4581C34.8958 29.3472 34.9975 29.2006 35.054 29.0348C35.1104 28.869 35.1193 28.6908 35.0796 28.5202C35.04 28.3496 34.9533 28.1936 34.8295 28.0697L29.8922 23.1326L40.7931 12.2317L38.3643 19.9328C38.2958 20.15 38.3087 20.3846 38.4005 20.593C38.4924 20.8013 38.6569 20.9691 38.8634 21.0651C38.9783 21.1184 41.6961 22.3509 43.4787 20.5448C44.6642 19.3439 46.2667 16.0477 46.8913 14.7079C48.1872 14.6141 51.1355 14.1367 52.7166 11.7675C52.8546 11.5607 52.9048 11.3075 52.8562 11.0637C52.8075 10.8199 52.664 10.6054 52.4572 10.4673C52.2503 10.3293 51.9972 10.2791 51.7533 10.3278C51.5095 10.3764 51.295 10.52 51.157 10.7268C49.712 12.8918 46.3347 12.8556 46.3018 12.8548C46.1176 12.8513 45.9364 12.9018 45.7806 13C45.6248 13.0983 45.5012 13.24 45.425 13.4077C44.8517 14.6828 43.145 18.214 42.1444 19.2277C41.6757 19.7022 40.9752 19.6988 40.436 19.5981L43.7337 9.14043C43.7969 8.94025 43.791 8.72466 43.7171 8.52821C43.6432 8.33175 43.5055 8.16578 43.326 8.05689C43.1466 7.94799 42.9358 7.90247 42.7274 7.92761C42.519 7.95275 42.3251 8.0471 42.1767 8.19554L38.1235 12.2487L38.7391 10.242L42.2944 6.68617L49.4759 4.98121C49.645 4.94107 49.7996 4.85473 49.9224 4.73183L53.0535 1.60011C53.1431 1.51363 53.2145 1.41018 53.2636 1.29581C53.3128 1.18143 53.3386 1.05841 53.3397 0.933928C53.3408 0.809447 53.3171 0.685997 53.2699 0.570782C53.2228 0.455567 53.1532 0.350893 53.0652 0.262869C52.9771 0.174844 52.8725 0.105232 52.7572 0.0580936C52.642 0.0109553 52.5186 -0.0127651 52.3941 -0.0116834C52.2696 -0.0106017 52.1466 0.0152604 52.0322 0.0643939C51.9178 0.113527 51.8144 0.184948 51.7279 0.274489L48.7845 3.21824L41.6029 4.92355C41.4339 4.96366 41.2793 5.04996 41.1564 5.17281L37.2482 9.08183C37.1399 9.19016 37.0598 9.32338 37.0149 9.46984L35.2953 15.0777L27.9035 22.4693C27.7277 22.6451 27.6289 22.8836 27.6289 23.1322C27.6289 23.3808 27.7277 23.6193 27.9035 23.7951L32.4441 28.3357C32.12 28.5214 31.822 28.7493 31.5581 29.0136C31.1585 29.4131 30.8415 29.8875 30.6252 30.4096C30.4089 30.9317 30.2976 31.4913 30.2976 32.0564C30.2976 32.6215 30.4089 33.1811 30.6251 33.7032C30.8413 34.2253 31.1583 34.6997 31.5579 35.0993C32.3649 35.9063 33.4594 36.3597 34.6007 36.3598C35.1658 36.3598 35.7254 36.2485 36.2475 36.0322C36.7696 35.816 37.244 35.499 37.6436 35.0994C37.908 34.8355 38.136 34.5375 38.3217 34.2134L42.3379 38.2296C42.425 38.3167 42.5283 38.3858 42.6421 38.4329C42.7558 38.48 42.8778 38.5043 43.0009 38.5043C43.124 38.5043 43.246 38.48 43.3597 38.4329C43.4735 38.3858 43.5768 38.3167 43.6639 38.2296L48.1442 33.7492C48.327 34.0659 48.5506 34.3572 48.8094 34.6156C49.6104 35.4105 50.6937 35.8556 51.8222 35.8535C52.9507 35.8513 54.0324 35.4021 54.8303 34.6041C55.6283 33.8061 56.0776 32.7245 56.0797 31.596C56.0819 30.4675 55.6367 29.3841 54.8418 28.5831C54.5834 28.3244 54.2921 28.1008 53.9754 27.918L57.9369 23.9561C58.1126 23.7803 58.2114 23.5418 58.2114 23.2932C58.2114 23.0446 58.1126 22.8062 57.9369 22.6303L53.3282 18.0217L54.4197 16.9302C56.241 15.1089 56.5863 12.3734 56.6514 11.3436Z" fill="black"/>
<path d="M32.8107 37.047C32.6859 36.9222 32.5284 36.8352 32.3563 36.7959C32.1842 36.7567 32.0046 36.7668 31.838 36.8251C31.6714 36.8835 31.5246 36.9876 31.4146 37.1257C31.3046 37.2637 31.2359 37.43 31.2162 37.6054C31.1688 38.0544 30.9953 38.4808 30.7157 38.8352C30.4362 39.1897 30.0619 39.4577 29.6363 39.6083C29.2108 39.759 28.7512 39.786 28.3109 39.6863C27.8706 39.5867 27.4675 39.3644 27.1483 39.0451C26.8291 38.7259 26.6068 38.3228 26.5071 37.8825C26.4074 37.4422 26.4345 36.9827 26.5851 36.5571C26.7357 36.1315 27.0038 35.7573 27.3582 35.4777C27.7127 35.1981 28.139 35.0246 28.588 34.9773C28.7634 34.9576 28.9297 34.8888 29.0678 34.7788C29.2058 34.6688 29.31 34.5221 29.3684 34.3555C29.4267 34.1889 29.4369 34.0092 29.3976 33.8371C29.3584 33.665 29.2713 33.5075 29.1465 33.3827L24.0325 28.2687C23.9454 28.1817 23.8421 28.1126 23.7283 28.0655C23.6146 28.0184 23.4927 27.9941 23.3695 27.9941C23.2464 27.9941 23.1245 28.0184 23.0108 28.0655C22.897 28.1126 22.7937 28.1817 22.7066 28.2687L18.745 32.2304C18.5622 31.9137 18.3386 31.6224 18.0798 31.364C17.3529 30.6381 16.3884 30.1989 15.3636 30.1271C14.3388 30.0554 13.3225 30.3559 12.5015 30.9734C11.6805 31.591 11.1099 32.4841 10.8947 33.4886C10.6794 34.4931 10.8339 35.5416 11.3298 36.4413L9.46793 37.0163C9.32198 37.0612 9.18922 37.1411 9.08121 37.2491L5.17254 41.1573C5.04957 41.28 4.96325 41.4346 4.92328 41.6036L3.21856 48.7852L0.274805 51.7286C0.186872 51.8155 0.116978 51.9189 0.0691469 52.0328C0.0213155 52.1468 -0.00351008 52.2691 -0.00390155 52.3927C-0.00429301 52.5163 0.0197574 52.6387 0.0668659 52.753C0.113974 52.8672 0.183211 52.9711 0.270593 53.0585C0.357975 53.1459 0.461777 53.2151 0.576028 53.2623C0.690278 53.3094 0.812722 53.3335 0.936315 53.3331C1.05991 53.3328 1.18221 53.308 1.29618 53.2602C1.41016 53.2124 1.51356 53.1425 1.60043 53.0546L4.73215 49.9234C4.85498 49.8005 4.94128 49.646 4.98141 49.477L6.68672 42.2953L10.2432 38.7392L12.7555 37.9633C12.8079 37.9967 12.8599 38.0306 12.9137 38.0616L8.43328 42.5421C8.28257 42.6924 8.18753 42.8896 8.1638 43.1012C8.14007 43.3128 8.18906 43.5261 8.30271 43.7062C8.41636 43.8862 8.5879 44.0222 8.78912 44.0917C8.99033 44.1613 9.20923 44.1603 9.40981 44.0889L19.6041 40.4712C19.6986 41.006 19.692 41.6871 19.2274 42.1456C18.2139 43.1462 14.6825 44.8526 13.4074 45.4262C13.2399 45.502 13.0982 45.6253 13 45.7807C12.9017 45.9362 12.8512 46.117 12.8545 46.3009C12.8545 46.3347 12.8917 49.7134 10.7265 51.158C10.5197 51.2961 10.3762 51.5106 10.3275 51.7544C10.2789 51.9982 10.3291 52.2514 10.4671 52.4582C10.6051 52.6651 10.8196 52.8086 11.0634 52.8572C11.3073 52.9059 11.5604 52.8557 11.7673 52.7177C14.1367 51.1367 14.6141 48.1885 14.7077 46.8925C16.0475 46.268 19.3438 44.6653 20.5446 43.4799C22.3508 41.6973 21.1188 38.9799 21.0649 38.8646C20.9666 38.6529 20.7928 38.4855 20.5775 38.3952C20.3623 38.3049 20.1211 38.2981 19.9011 38.3762L12.6934 40.9337L15.297 38.3302C15.4208 38.2064 15.5074 38.0504 15.5471 37.8798C15.5868 37.7092 15.5779 37.531 15.5215 37.3652C15.465 37.1994 15.3633 37.0528 15.2278 36.9419C15.0923 36.8309 14.9284 36.7602 14.7547 36.7376C14.2328 36.6753 13.7466 36.4406 13.3732 36.0707C13.1512 35.8487 12.9751 35.5852 12.855 35.2952C12.7348 35.0051 12.673 34.6942 12.673 34.3803C12.673 34.0664 12.7348 33.7555 12.855 33.4655C12.9751 33.1754 13.1512 32.9119 13.3732 32.6899C13.5952 32.4679 13.8587 32.2918 14.1488 32.1717C14.4388 32.0515 14.7497 31.9897 15.0636 31.9897C15.3776 31.9897 15.6884 32.0515 15.9785 32.1717C16.2685 32.2918 16.5321 32.4679 16.7541 32.6899C17.1239 33.0633 17.3586 33.5495 17.4207 34.0714C17.4433 34.2451 17.514 34.409 17.6249 34.5446C17.7358 34.6801 17.8825 34.7819 18.0483 34.8384C18.2141 34.8948 18.3924 34.9037 18.563 34.864C18.7335 34.8243 18.8896 34.7376 19.0134 34.6137L23.3695 30.2579L26.7458 33.6342C26.4135 33.8209 26.1084 34.0525 25.8391 34.3223C25.4406 34.7179 25.124 35.1882 24.9076 35.7064C24.6913 36.2246 24.5793 36.7804 24.5783 37.3419C24.5772 37.9034 24.687 38.4597 24.9014 38.9787C25.1158 39.4977 25.4306 39.9692 25.8276 40.3663C26.2247 40.7633 26.6963 41.0781 27.2153 41.2925C27.7342 41.5069 28.2905 41.6167 28.852 41.6156C29.4135 41.6146 29.9693 41.5026 30.4875 41.2863C31.0057 41.0699 31.4761 40.7533 31.8716 40.3548C32.1414 40.0855 32.373 39.7804 32.5597 39.4481L36.4781 43.3665L33.1794 46.6653C32.9966 46.3486 32.773 46.0572 32.5143 45.7988C32.1182 45.4027 31.6479 45.0885 31.1304 44.8742C30.6128 44.6598 30.0582 44.5495 29.498 44.5495C28.9378 44.5495 28.3831 44.6598 27.8656 44.8742C27.3481 45.0886 26.8778 45.4028 26.4817 45.7989C26.0856 46.195 25.7714 46.6652 25.5571 47.1828C25.3427 47.7003 25.2324 48.255 25.2324 48.8152C25.2324 49.3753 25.3427 49.93 25.5571 50.4475C25.7715 50.9651 26.0857 51.4353 26.4818 51.8314C26.7402 52.0901 27.0315 52.3137 27.3482 52.4964L23.5307 56.3139L16.5254 49.3087C16.4389 49.2195 16.3355 49.1485 16.2212 49.0996C16.1069 49.0508 15.9841 49.0251 15.8598 49.0242C15.7356 49.0232 15.6124 49.047 15.4974 49.0941C15.3824 49.1412 15.2779 49.2107 15.19 49.2985C15.1021 49.3864 15.0325 49.4908 14.9854 49.6058C14.9382 49.7208 14.9144 49.8439 14.9152 49.9682C14.9161 50.0925 14.9417 50.2153 14.9904 50.3296C15.0392 50.4439 15.1102 50.5474 15.1993 50.634L16.6324 52.0671L15.6047 53.0947C13.9296 54.7695 10.9714 54.7923 10.9438 54.7923H10.9407C10.6921 54.7923 10.4537 54.891 10.2779 55.0668L6.94465 58.3996C6.85599 58.4863 6.7854 58.5897 6.73698 58.7039C6.68856 58.818 6.66326 58.9407 6.66256 59.0647C6.66185 59.1887 6.68575 59.3116 6.73287 59.4263C6.77999 59.5409 6.8494 59.6452 6.93707 59.7328C7.02474 59.8205 7.12894 59.89 7.24363 59.9371C7.35831 59.9842 7.48121 60.0082 7.60521 60.0075C7.7292 60.0068 7.85183 59.9815 7.96599 59.9331C8.08015 59.8847 8.18357 59.8141 8.27027 59.7255L11.3439 56.6523C12.3735 56.587 15.1089 56.2421 16.9302 54.4207L17.958 53.3929L22.8674 58.3023C22.9544 58.3893 23.0578 58.4584 23.1715 58.5055C23.2853 58.5526 23.4072 58.5769 23.5303 58.5769C23.6534 58.5769 23.7753 58.5526 23.8891 58.5055C24.0028 58.4584 24.1062 58.3893 24.1932 58.3023L29.7311 52.7643C29.8549 52.6405 29.9415 52.4844 29.9812 52.3138C30.0209 52.1433 30.012 51.965 29.9555 51.7992C29.899 51.6334 29.7973 51.4868 29.6617 51.3759C29.5262 51.265 29.3623 51.1943 29.1886 51.1718C28.7442 51.1167 28.3242 50.938 27.9764 50.656C27.6286 50.3739 27.3671 49.9998 27.2215 49.5764C27.076 49.1529 27.0522 48.6971 27.1531 48.2608C27.254 47.8245 27.4753 47.4254 27.792 47.1087C28.1086 46.7921 28.5078 46.5708 28.9441 46.47C29.3804 46.3692 29.8362 46.3929 30.2596 46.5385C30.6831 46.6841 31.0571 46.9457 31.3392 47.2935C31.6212 47.6413 31.7999 48.0613 31.8548 48.5057C31.8774 48.6794 31.9481 48.8433 32.059 48.9789C32.1699 49.1144 32.3166 49.2162 32.4824 49.2726C32.6482 49.329 32.8265 49.3379 32.9971 49.2982C33.1677 49.2585 33.3237 49.1718 33.4475 49.048L38.4666 44.0289C38.5536 43.9419 38.6227 43.8385 38.6698 43.7248C38.7169 43.611 38.7412 43.4891 38.7412 43.366C38.7412 43.2429 38.7169 43.121 38.6698 43.0072C38.6227 42.8935 38.5536 42.7901 38.4666 42.7031L32.8107 37.047Z" fill="black"/>
</g>
<defs>
<clipPath id="clip0_2218_18387">
<rect width="60" height="60" fill="white"/>
</clipPath>
</defs>
</svg>
