<svg width="60" height="60" viewBox="0 0 60 60" fill="none" xmlns="http://www.w3.org/2000/svg">
<rect width="60" height="60" fill="white"/>
<path d="M30.001 58.3786C23.9775 58.3758 18.1112 56.4552 13.2522 52.8952C8.39323 49.3353 4.79382 44.3207 2.97548 38.5782C1.15714 32.8356 1.2143 26.6633 3.13869 20.9554C5.06308 15.2475 8.75475 10.3005 13.6789 6.83115C18.603 3.36178 24.5037 1.55022 30.5263 1.65892C36.5489 1.76762 42.3805 3.79094 47.1762 7.43574C51.9719 11.0805 55.4826 16.1575 57.1998 21.9311C58.917 27.7048 58.7513 33.8752 56.727 39.5484C56.6543 39.7508 56.5041 39.9161 56.3096 40.0079C56.115 40.0996 55.892 40.1104 55.6895 40.0377C55.4871 39.965 55.3218 39.8149 55.23 39.6203C55.1382 39.4257 55.1275 39.2027 55.2002 39.0002C57.2404 33.2812 57.2735 27.0381 55.294 21.2977C53.3146 15.5573 49.4404 10.6616 44.3088 7.41558C39.1771 4.1696 33.0936 2.76671 27.0587 3.43765C21.0238 4.10858 15.397 6.81339 11.1036 11.1072C6.81018 15.401 4.10594 21.0282 3.43561 27.0631C2.76528 33.0981 4.16877 39.1815 7.41527 44.3128C10.6618 49.4441 15.5579 53.3177 21.2985 55.2966C27.039 57.2755 33.2822 57.2418 39.001 55.2011C39.1019 55.162 39.2096 55.1436 39.3177 55.1468C39.4258 55.15 39.5322 55.1748 39.6306 55.2198C39.7289 55.2648 39.8173 55.3289 39.8905 55.4086C39.9637 55.4882 40.0202 55.5817 40.0568 55.6835C40.0933 55.7853 40.1091 55.8934 40.1032 56.0014C40.0973 56.1094 40.0698 56.2152 40.0224 56.3124C39.9751 56.4096 39.9087 56.4964 39.8273 56.5676C39.7459 56.6388 39.651 56.693 39.5483 56.727C36.4853 57.8253 33.255 58.3841 30.001 58.3786Z" fill="#202939"/>
<path d="M30.001 58.3788C21.7178 58.3788 15.2305 45.9126 15.2305 30.0004C15.2305 14.0883 21.7178 1.62207 30.001 1.62207C38.1488 1.62207 44.7789 14.3518 44.7789 30.0004C44.7789 31.1494 44.7472 32.1986 44.6816 33.2104C44.6747 33.3169 44.6469 33.421 44.5998 33.5168C44.5527 33.6125 44.4872 33.698 44.4071 33.7685C44.3269 33.8389 44.2337 33.8929 44.1327 33.9273C44.0317 33.9617 43.9249 33.9758 43.8184 33.969C43.712 33.9621 43.6079 33.9343 43.5121 33.8872C43.4164 33.8401 43.3309 33.7747 43.2604 33.6945C43.19 33.6144 43.136 33.5211 43.1016 33.4201C43.0672 33.3191 43.0531 33.2123 43.0599 33.1059C43.1232 32.1329 43.154 31.1145 43.154 30.0004C43.154 15.2477 37.2513 3.24369 29.9961 3.24369C22.741 3.24369 16.8488 15.2437 16.8488 30.0004C16.8488 44.7572 22.7507 56.7572 30.001 56.7572C32.1456 56.7572 34.2813 55.6488 36.1802 53.5521C36.3277 53.4061 36.5255 53.3223 36.733 53.3178C36.9404 53.3133 37.1416 53.3886 37.2953 53.528C37.449 53.6674 37.5433 53.8604 37.559 54.0673C37.5746 54.2742 37.5103 54.4792 37.3794 54.6402C35.1667 57.0856 32.6143 58.3788 30.001 58.3788Z" fill="#202939"/>
<path d="M29.9983 58.2977C29.7833 58.2977 29.577 58.2123 29.425 58.0603C29.2729 57.9082 29.1875 57.702 29.1875 57.4869V2.43288C29.1875 2.21784 29.2729 2.01161 29.425 1.85955C29.577 1.70749 29.7833 1.62207 29.9983 1.62207C30.2134 1.62207 30.4196 1.70749 30.5716 1.85955C30.7237 2.01161 30.8091 2.21784 30.8091 2.43288V57.4869C30.8091 57.702 30.7237 57.9082 30.5716 58.0603C30.4196 58.2123 30.2134 58.2977 29.9983 58.2977Z" fill="#202939"/>
<path d="M33.1944 44.4087H6.15065C5.93561 44.4087 5.72938 44.3233 5.57732 44.1713C5.42527 44.0192 5.33984 43.813 5.33984 43.5979C5.33984 43.3829 5.42527 43.1766 5.57732 43.0246C5.72938 42.8725 5.93561 42.7871 6.15065 42.7871H33.1944C33.4095 42.7871 33.6157 42.8725 33.7678 43.0246C33.9198 43.1766 34.0053 43.3829 34.0053 43.5979C34.0053 43.813 33.9198 44.0192 33.7678 44.1713C33.6157 44.3233 33.4095 44.4087 33.1944 44.4087Z" fill="#202939"/>
<path d="M57.5255 30.7691H2.47878C2.26374 30.7691 2.05751 30.6837 1.90545 30.5316C1.75339 30.3795 1.66797 30.1733 1.66797 29.9583C1.66797 29.7432 1.75339 29.537 1.90545 29.3849C2.05751 29.2329 2.26374 29.1475 2.47878 29.1475H57.5255C57.7406 29.1475 57.9468 29.2329 58.0989 29.3849C58.2509 29.537 58.3363 29.7432 58.3363 29.9583C58.3363 30.1733 58.2509 30.3795 58.0989 30.5316C57.9468 30.6837 57.7406 30.7691 57.5255 30.7691Z" fill="#202939"/>
<path d="M53.8539 17.1304H6.15065C5.93561 17.1304 5.72938 17.045 5.57732 16.8929C5.42527 16.7409 5.33984 16.5346 5.33984 16.3196C5.33984 16.1046 5.42527 15.8983 5.57732 15.7463C5.72938 15.5942 5.93561 15.5088 6.15065 15.5088H53.8539C54.0689 15.5088 54.2752 15.5942 54.4272 15.7463C54.5793 15.8983 54.6647 16.1046 54.6647 16.3196C54.6647 16.5346 54.5793 16.7409 54.4272 16.8929C54.2752 17.045 54.0689 17.1304 53.8539 17.1304Z" fill="#202939"/>
<path d="M45.3199 47.4759C42.5736 47.4759 40.2539 44.9121 40.2539 41.8764C40.2539 38.5675 42.3369 36.2559 45.3199 36.2559C48.3028 36.2559 50.385 38.5675 50.385 41.8764C50.385 44.9121 48.0653 47.4759 45.3199 47.4759ZM45.3199 37.8775C43.2596 37.8775 41.8755 39.4845 41.8755 41.8764C41.8755 44.0332 43.4526 45.8542 45.3199 45.8542C47.1872 45.8542 48.7634 44.0332 48.7634 41.8764C48.7634 39.4861 47.3793 37.8775 45.3199 37.8775Z" fill="#202939"/>
<path d="M53.8478 54.9068C53.6352 54.9068 53.4312 54.8234 53.2795 54.6745C53.1279 54.5256 53.0408 54.3231 53.037 54.1106C53.0074 52.9002 52.5067 51.7491 51.6415 50.9022C50.7763 50.0553 49.6147 49.5794 48.404 49.5757H48.1007C47.266 50.0966 46.3019 50.3727 45.318 50.3727C44.3342 50.3727 43.37 50.0966 42.5353 49.5757H42.2321C41.0212 49.5792 39.8595 50.055 38.994 50.9019C38.1286 51.7489 37.6279 52.9001 37.5983 54.1106C37.5909 54.3245 37.5007 54.5271 37.3467 54.6757C37.1927 54.8243 36.9869 54.9071 36.7729 54.9068C36.558 54.903 36.3534 54.814 36.2041 54.6593C36.0548 54.5047 35.973 54.2971 35.9767 54.0822C36.0155 52.4471 36.691 50.8918 37.8593 49.7473C39.0277 48.6027 40.5966 47.9593 42.2321 47.9541H42.7802C42.9467 47.9541 43.1092 48.0053 43.2456 48.1009C43.8533 48.5254 44.5767 48.7531 45.318 48.7531C46.0593 48.7531 46.7828 48.5254 47.3905 48.1009C47.5269 48.0053 47.6893 47.9541 47.8559 47.9541H48.404C50.0392 47.9595 51.6078 48.6029 52.7759 49.7472C53.944 50.8916 54.6195 52.4466 54.6586 54.0814C54.6623 54.2963 54.5805 54.5039 54.4312 54.6585C54.2819 54.8131 54.0773 54.9022 53.8624 54.906L53.8478 54.9068Z" fill="#202939"/>
<path d="M40.6038 57.4372C40.3887 57.4372 40.1825 57.3518 40.0304 57.1998C39.8784 57.0477 39.793 56.8415 39.793 56.6264V53.2786C39.793 53.0635 39.8784 52.8573 40.0304 52.7053C40.1825 52.5532 40.3887 52.4678 40.6038 52.4678C40.8188 52.4678 41.0251 52.5532 41.1771 52.7053C41.3292 52.8573 41.4146 53.0635 41.4146 53.2786V56.6264C41.4146 56.8415 41.3292 57.0477 41.1771 57.1998C41.0251 57.3518 40.8188 57.4372 40.6038 57.4372Z" fill="#202939"/>
<path d="M50.0335 57.4372C49.8184 57.4372 49.6122 57.3518 49.4601 57.1998C49.3081 57.0477 49.2227 56.8415 49.2227 56.6264V53.2786C49.2227 53.0635 49.3081 52.8573 49.4601 52.7053C49.6122 52.5532 49.8184 52.4678 50.0335 52.4678C50.2485 52.4678 50.4547 52.5532 50.6068 52.7053C50.7589 52.8573 50.8443 53.0635 50.8443 53.2786V56.6264C50.8443 56.8415 50.7589 57.0477 50.6068 57.1998C50.4547 57.3518 50.2485 57.4372 50.0335 57.4372Z" fill="#202939"/>
<path d="M45.3192 58.3779C42.7361 58.3781 40.211 57.6123 38.0632 56.1774C35.9153 54.7425 34.2412 52.7029 33.2525 50.3166C32.2637 47.9302 32.0048 45.3043 32.5085 42.7708C33.0122 40.2373 34.2557 37.9101 36.082 36.0833C37.9083 34.2566 40.2352 33.0124 42.7686 32.5082C45.3019 32.0039 47.9279 32.2621 50.3145 33.2502C52.7011 34.2384 54.7411 35.912 56.1766 38.0595C57.612 40.207 58.3784 42.7319 58.3789 45.315C58.3755 48.7779 56.9985 52.098 54.5502 54.5469C52.1019 56.9959 48.7821 58.3736 45.3192 58.3779ZM45.3192 33.8793C43.0566 33.8791 40.8448 34.5499 38.9635 35.8069C37.0822 37.0639 35.6159 38.8505 34.7501 40.9409C33.8843 43.0313 33.6578 45.3314 34.0994 47.5505C34.5409 49.7696 35.6306 51.8079 37.2307 53.4076C38.8307 55.0073 40.8693 56.0966 43.0884 56.5377C45.3076 56.9787 47.6077 56.7518 49.6979 55.8855C51.7881 55.0193 53.5744 53.5526 54.831 51.671C56.0876 49.7895 56.7579 47.5775 56.7573 45.315C56.7536 42.2825 55.5474 39.3753 53.4031 37.231C51.2588 35.0867 48.3516 33.8805 45.3192 33.8768V33.8793Z" fill="#202939"/>
</svg>
