<svg width="60" height="60" viewBox="0 0 60 60" fill="none" xmlns="http://www.w3.org/2000/svg">
<g clip-path="url(#clip0_2218_18366)">
<path d="M5.35672 22.6159L20.536 26.2006C20.5626 26.2901 20.6032 26.377 20.6601 26.4576C20.9402 26.8541 21.4886 26.9487 21.8852 26.6686L24.3209 24.9486C25.064 24.4235 25.9925 24.2576 26.8694 24.4936L33.8108 26.3535C35.807 26.9858 37.2671 28.6583 37.6236 30.7227L38.5462 36.0653C38.735 37.9615 36.3639 37.9683 35.4937 36.6132L31.7338 31.2478C31.5797 31.0277 31.3324 30.8914 31.0642 30.8757C30.7968 30.8612 30.5344 30.9691 30.3558 31.1696C30.2365 31.3035 27.3795 34.445 22.3939 34.1765C21.9083 34.1527 21.4952 34.5224 21.469 35.0071C21.4429 35.4918 21.8149 35.9059 22.2995 35.932C22.3161 35.933 22.3324 35.9331 22.3489 35.9339L21.6724 37.0384C21.4188 37.4523 21.5488 37.9934 21.9628 38.247C22.1061 38.3348 22.2646 38.3765 22.4211 38.3765C22.7169 38.3765 23.0057 38.2273 23.1715 37.9566L24.4532 35.8645C27.5861 35.4961 29.7816 34.0143 30.8777 33.0891L34.0535 37.6209C36.2721 40.7577 40.7161 39.3236 40.2785 35.766L39.3559 30.4234C39.0404 28.596 38.0665 27.0028 36.6633 25.9025L54.1865 22.5274C54.6631 22.4357 54.9751 21.9747 54.8833 21.4981C54.7914 21.0216 54.3308 20.7095 53.854 20.8013L46.4932 22.2191V18.6874C51.631 18.6701 55.8055 14.4859 55.8055 9.34409C55.8055 4.19177 51.6139 0 46.4616 0C41.3092 0 37.1175 4.19177 37.1175 9.34409C37.1175 13.9064 40.4051 17.7131 44.7353 18.5256V22.5577L34.089 24.6081L27.3251 22.7958C25.9425 22.4241 24.4779 22.6853 23.3066 23.5126L21.6766 24.6637L14.7801 23.035V8.01531C14.7801 7.05395 15.5622 6.27178 16.5236 6.27178H34.4036C34.889 6.27178 35.2825 5.87835 35.2825 5.3928C35.2825 4.90726 34.889 4.51383 34.4036 4.51383H16.5236C14.5929 4.51383 13.0222 6.0845 13.0222 8.01531V22.6199L5.76093 20.9051C5.28851 20.7929 4.81503 21.0859 4.70346 21.5584C4.59177 22.0307 4.8843 22.5042 5.35672 22.6159ZM38.8754 9.34409C38.8754 5.16111 42.2786 1.75795 46.4616 1.75795C50.6445 1.75795 54.0476 5.16111 54.0476 9.34409C54.0476 13.5271 50.6444 16.9301 46.4616 16.9301C46.2064 16.9301 45.9542 16.917 45.7054 16.8923C45.7037 16.892 45.7019 16.892 45.7001 16.8919C41.8733 16.5089 38.8754 13.2702 38.8754 9.34409Z" fill="#202939"/>
<path d="M54.2533 36.8875H48.2858C46.8838 35.6752 44.756 35.7287 43.4192 37.0559C42.7399 37.7303 42.364 38.629 42.3605 39.5863C42.358 40.2585 42.5402 40.9027 42.8821 41.4624C41.3161 41.7845 39.925 43.4027 40.0815 45.1998C39.2024 45.1264 38.0446 45.469 37.2926 46.2298C36.527 46.9899 36.178 48.0128 36.2446 49.0132C35.2448 48.9395 34.2195 49.2811 33.4539 50.0413C32.0516 51.4336 32.0434 53.7071 33.4357 55.1094L34.9025 56.5868C34.7033 56.8573 34.5239 57.1333 34.3587 57.3961C33.8836 58.1514 32.9075 58.4521 32.0856 58.0948C31.8751 58.004 31.6861 57.8755 31.5238 57.7132C30.9898 57.1793 30.8392 56.3872 31.1398 55.695C31.1399 55.6945 31.1402 55.694 31.1404 55.6936C31.3337 55.2483 31.1295 54.7308 30.6844 54.5374C30.239 54.3441 29.7216 54.548 29.528 54.9932C29.528 54.9933 29.5279 54.9934 29.5278 54.9937C29.1271 55.9168 28.0497 56.3419 27.1255 55.9406C26.385 55.6923 25.7273 54.4318 26.1787 53.5394C26.3721 53.0942 26.1683 52.5765 25.7232 52.3829C25.278 52.1894 24.7602 52.3932 24.5666 52.8383C24.1649 53.7613 23.0869 54.1863 22.162 53.7844C21.4221 53.5358 20.765 52.2752 21.2164 51.3831C21.4097 50.9378 21.2055 50.4203 20.7603 50.2269C20.3152 50.0337 19.7974 50.2377 19.6039 50.6827C19.2441 51.4944 18.2557 52.0335 17.202 51.6302C16.2959 51.2369 15.8698 50.1918 16.2335 49.2798L20.8062 41.8155C21.0599 41.4015 20.9298 40.8604 20.5158 40.6068C20.1018 40.3531 19.5607 40.4833 19.3072 40.8972L18.6986 41.8908L16.7987 39.991C16.165 39.3574 15.3258 38.9524 14.4355 38.8504L5.17444 37.7894C4.69217 37.7341 4.25643 38.0803 4.20112 38.5627C4.1458 39.0449 4.492 39.4807 4.97438 39.536L14.2356 40.597C14.7329 40.6539 15.2018 40.8802 15.5557 41.2343L17.7541 43.4328L14.6991 48.4196C13.825 50.1684 14.663 52.4515 16.502 53.2432C17.3097 53.5881 18.5071 53.6671 19.4696 53.192C19.761 54.081 20.4228 54.9279 21.4632 55.3979C22.4503 55.8268 23.5275 55.7745 24.4311 55.3452C24.7231 56.2364 25.3824 57.0813 26.4259 57.5538C27.4132 57.9824 28.4899 57.93 29.3929 57.501C29.5628 58.0372 29.8617 58.5377 30.2808 58.9568C30.601 59.2768 30.9739 59.5301 31.3866 59.7082C31.8429 59.9068 32.3236 60.0015 32.7999 60.0015C34.0038 60.0013 35.1781 59.3961 35.847 58.3322C35.971 58.135 36.0849 57.9601 36.1989 57.7963C36.8022 58.2043 37.5033 58.409 38.2049 58.409C40.0537 58.4586 41.9841 56.6792 41.7798 54.5887C43.6895 54.7894 45.6553 53.0949 45.6273 51.0283C45.6277 50.944 45.624 50.8605 45.6185 50.7773C46.4867 50.8613 47.6861 50.4883 48.4073 49.7472C49.6063 48.557 49.7852 46.7227 48.942 45.3392C49.5841 45.1986 50.1951 44.8812 50.6951 44.3848C51.3744 43.7103 51.7504 42.8116 51.7539 41.8544C51.7574 40.8971 51.3878 39.9959 50.7133 39.3166L50.0476 38.6461H54.2535C54.7389 38.6461 55.1324 38.2527 55.1324 37.7671C55.1324 37.2816 54.7388 36.8875 54.2533 36.8875ZM39.4911 56.1217C38.7766 56.8309 37.6185 56.8268 36.9091 56.1125L34.6833 53.8707C33.974 53.1561 33.9781 51.998 34.6925 51.2886C35.4071 50.5793 36.5654 50.5837 37.2746 51.2979L39.5004 53.5397C40.2097 54.2541 40.2056 55.4124 39.4911 56.1217ZM43.8693 51.0213C43.8675 51.5089 43.676 51.9668 43.3298 52.3104C42.9837 52.6541 42.5255 52.8382 42.0369 52.8405C41.5492 52.8386 41.0915 52.6473 40.7477 52.3011L38.522 50.0593C37.8128 49.3449 37.8169 48.1866 38.5313 47.4772C39.1399 46.8514 40.3495 46.7341 41.1134 47.4865L43.3392 49.7284C43.6828 50.0744 43.871 50.5336 43.8693 51.0213ZM47.1687 48.499C46.8243 48.8409 46.3678 49.029 45.8825 49.029C45.8802 49.029 45.8779 49.029 45.8757 49.029C45.388 49.0272 44.9302 48.8358 44.5865 48.4896L42.3607 46.2477C42.0171 45.9017 41.8287 45.4425 41.8306 44.9548C41.8078 43.5795 43.5616 42.5178 44.8372 43.5704L47.178 45.9168C47.8872 46.6314 47.8831 47.7898 47.1687 48.499ZM49.4565 43.1365C48.7794 43.8089 47.7043 43.8389 46.9898 43.2323C46.9898 43.2323 44.7072 40.9439 44.6486 40.8854C44.305 40.5393 44.1167 40.0801 44.1185 39.5925C44.1203 39.1047 44.3118 38.6469 44.6579 38.3033C45.3723 37.5942 46.5307 37.5984 47.2399 38.3126L49.4657 40.5544C49.8094 40.9005 49.9977 41.3597 49.9958 41.8474C49.9941 42.3351 49.8025 42.793 49.4565 43.1365Z" fill="#202939"/>
<path d="M46.1303 13.4026L46.459 13.0737L46.7878 13.4026C47.8159 14.4305 49.4888 14.4306 50.517 13.4025C51.0151 12.9044 51.2893 12.2423 51.2893 11.538C51.2893 10.8335 51.015 10.1715 50.517 9.67339L50.1882 9.34465L50.5171 9.0158C51.5451 7.98775 51.5451 6.31477 50.5171 5.2866C49.4891 4.25867 47.8161 4.25867 46.7879 5.2866L46.4592 5.61546L46.1304 5.2866C45.1023 4.25867 43.4294 4.25855 42.4012 5.28672C41.3732 6.31477 41.3732 7.98775 42.4012 9.01592L42.73 9.34465L42.4012 9.67339C41.9031 10.1715 41.6289 10.8335 41.6289 11.538C41.6289 12.2423 41.9031 12.9044 42.4012 13.4026C42.9153 13.9166 43.5905 14.1736 44.2658 14.1736C44.9411 14.1736 45.6162 13.9166 46.1303 13.4026ZM43.3866 11.538C43.3866 11.3031 43.478 11.0824 43.6441 10.9165L44.5943 9.96626C44.9376 9.62288 44.9376 9.06643 44.5943 8.72316L43.6441 7.77305C43.3014 7.43025 43.3014 6.87251 43.6441 6.52994C43.8154 6.35848 44.0406 6.27293 44.2657 6.27293C44.4907 6.27293 44.7159 6.3586 44.8872 6.52994L45.8374 7.48017C46.1807 7.82332 46.7373 7.82332 47.0804 7.48017L48.0307 6.52994C48.3735 6.18714 48.9312 6.18738 49.2736 6.52983C49.6163 6.87263 49.6163 7.43036 49.2736 7.77293L48.3234 8.72316C47.9801 9.06655 47.9801 9.623 48.3234 9.96626L49.2736 10.9165C49.4397 11.0824 49.5311 11.3031 49.5311 11.538C49.5311 11.7727 49.4397 11.9935 49.2736 12.1595C48.931 12.5024 48.3733 12.5023 48.0305 12.1595L47.0803 11.2093C46.737 10.8661 46.1805 10.8661 45.8373 11.2093L44.8871 12.1595C44.5444 12.5024 43.9867 12.5022 43.6441 12.1596C43.4782 11.9935 43.3866 11.7727 43.3866 11.538Z" fill="#202939"/>
<path d="M24.6719 10.6016C24.1865 10.6016 23.793 10.995 23.793 11.4805C23.793 11.9661 24.1865 12.3595 24.6719 12.3595H34.841C35.3264 12.3595 35.72 11.9661 35.72 11.4805C35.72 10.995 35.3264 10.6016 34.841 10.6016H24.6719Z" fill="#202939"/>
<path d="M37.0899 14.957H22.418C21.9326 14.957 21.5391 15.3505 21.5391 15.836C21.5391 16.3216 21.9326 16.715 22.418 16.715H37.0899C37.5753 16.715 37.9689 16.3216 37.9689 15.836C37.9689 15.3505 37.5753 14.957 37.0899 14.957Z" fill="#202939"/>
<path d="M37.0899 19.0703H22.418C21.9326 19.0703 21.5391 19.4637 21.5391 19.9493C21.5391 20.4348 21.9326 20.8283 22.418 20.8283H37.0899C37.5753 20.8283 37.9689 20.4348 37.9689 19.9493C37.9689 19.4637 37.5753 19.0703 37.0899 19.0703Z" fill="black"/>
</g>
<defs>
<clipPath id="clip0_2218_18366">
<rect width="60" height="60" fill="white"/>
</clipPath>
</defs>
</svg>
