<svg width="60" height="60" viewBox="0 0 60 60" fill="none" xmlns="http://www.w3.org/2000/svg">
<path d="M2.89242 37.9525L7.14914 35.786C9.01008 34.8389 10.1844 32.9535 10.2138 30.8655L10.2236 30.1731C10.2509 28.2367 11.7227 26.6142 13.6474 26.3992L15.2796 26.2167C17.4579 25.9732 19.3061 24.4699 19.988 22.3868L21.6082 17.4371C22.0416 16.1133 23.1377 15.1545 24.4583 14.8717L25.1442 15.0375C25.2137 15.0543 25.2831 15.0623 25.3515 15.0623C25.6207 15.0623 25.8709 14.9357 26.0355 14.7298C28.7673 14.3546 30.8789 12.0068 30.8789 9.17367V1.77281C34.1462 1.87219 37.331 2.52422 40.3581 3.71801C40.8097 3.89602 41.3201 3.67441 41.4982 3.22277C41.6763 2.77125 41.4546 2.26078 41.003 2.08266C37.4987 0.700664 33.7969 0 30 0C23.4377 0 17.018 2.17465 11.8177 6.13863C11.972 5.67562 12.0567 5.18121 12.0567 4.66699C12.0567 2.09367 9.96316 0 7.38973 0C4.81629 0 2.72273 2.09367 2.72273 4.66699C2.72273 5.31293 2.8548 5.92863 3.09316 6.48867C1.32551 6.88394 0 8.46422 0 10.3493V13.6639C0 15.1929 1.24395 16.437 2.77301 16.437H3.23555C1.11504 20.6193 0 25.2771 0 30C0 33.8508 0.719531 37.5991 2.13844 41.1409C2.27602 41.4844 2.6059 41.6932 2.95453 41.6932C3.06328 41.6932 3.17402 41.6728 3.28113 41.6299C3.73172 41.4493 3.95063 40.9378 3.77016 40.4872C3.43629 39.654 3.14367 38.8085 2.89242 37.9525ZM7.38973 1.75781C8.99379 1.75781 10.2989 3.06293 10.2989 4.66699C10.2989 6.27105 8.99391 7.57617 7.38973 7.57617C5.78555 7.57617 4.48055 6.27117 4.48055 4.66699C4.48055 3.06281 5.78566 1.75781 7.38973 1.75781ZM1.75781 13.6639V10.3493C1.75781 9.13676 2.74418 8.15039 3.95672 8.15039H4.28824C5.11336 8.88586 6.19992 9.33398 7.38973 9.33398C8.57953 9.33398 9.66598 8.88586 10.4912 8.15039H10.8227C12.0353 8.15039 13.0216 9.13676 13.0216 10.3493V13.6639C13.0216 14.2236 12.5662 14.6791 12.0064 14.6791H2.77301C2.2132 14.6791 1.75781 14.2236 1.75781 13.6639ZM5.2227 16.437H6.85559L6.93316 16.5865C7.08949 16.8881 7.39629 17.061 7.71422 17.061C7.85051 17.061 7.98867 17.0292 8.11805 16.9622C8.33707 16.8486 8.48777 16.6557 8.5541 16.437H12.0066C13.5356 16.437 14.7796 15.193 14.7796 13.6639V12.4343C15.0939 12.362 15.3574 12.1213 15.4384 11.7865C15.5524 11.3147 15.2625 10.8397 14.7907 10.7256L14.7796 10.7229V10.3493C14.7796 9.09176 14.1892 7.97027 13.272 7.245C17.8612 3.87117 23.413 1.95234 29.1213 1.77316V9.17355C29.1213 11.2976 27.3933 13.0256 25.2693 13.0256C25.0143 13.0256 24.7628 13.0437 24.5154 13.077L24.0894 12.9739C23.6713 12.873 23.2516 13.0891 23.0817 13.4678C21.6198 14.0854 20.4551 15.3104 19.9378 16.8904L18.3176 21.8399C17.8493 23.2703 16.5804 24.3026 15.0846 24.4697L13.4524 24.6521C13.3406 24.6647 13.2304 24.6816 13.1208 24.7004L12.6689 23.829C12.4455 23.3981 11.9148 23.2297 11.4841 23.4533C11.0532 23.6768 10.885 24.2072 11.1084 24.6381L11.44 25.2775C9.68414 26.216 8.49574 28.0557 8.46633 30.1481L8.45648 30.8406C8.43633 32.2743 7.62996 33.5689 6.35215 34.2193L2.44336 36.2087C1.98855 34.1849 1.75781 32.1091 1.75781 30C1.75781 25.2516 2.95465 20.5737 5.2227 16.437Z" fill="#202939"/>
<path d="M60.0009 18.1346C60.0009 16.2496 58.6754 14.6692 56.9077 14.274C57.1461 13.714 57.2781 13.0984 57.2781 12.4523C57.2781 9.87902 55.1845 7.78535 52.6111 7.78535C51.9052 7.78535 51.2357 7.94379 50.6354 8.22562C48.8748 6.55711 46.9195 5.10574 44.8134 3.90726C44.3914 3.66703 43.8549 3.81445 43.6148 4.23644C43.3748 4.65832 43.5221 5.19492 43.9439 5.43504C45.8338 6.51047 47.5953 7.80176 49.1917 9.28078C48.4183 10.114 47.9441 11.2287 47.9441 12.4525C47.9441 12.5918 47.9514 12.7295 47.9635 12.8658L45.1602 13.3618C42.4175 13.8464 40.0331 15.5007 38.6182 17.9004L37.1158 20.447C35.6219 22.9819 35.3786 26.0074 36.4483 28.7479L36.6958 29.3814C37.1985 30.6671 38.0267 31.7934 39.0705 32.6647L38.3109 33.2498C37.9263 33.546 37.8546 34.0979 38.1509 34.4824C38.324 34.7072 38.5845 34.8251 38.8478 34.8251C39.0351 34.8251 39.2238 34.7655 39.3835 34.6424L40.5842 33.7175C40.5972 33.7076 40.6088 33.6966 40.6211 33.686C41.0583 33.9074 41.5162 34.0915 41.9916 34.2307C42.1976 34.2908 42.3958 34.3789 42.5832 34.4944C42.7641 34.6049 42.9312 34.7416 43.08 34.9009L44.6855 36.6189C45.3004 37.2759 46.093 37.7102 46.9793 37.8748C47.5211 37.9746 48.0175 38.2605 48.3767 38.6791C48.7355 39.0986 48.9419 39.6333 48.9579 40.1849L48.9651 40.4288C48.9834 41.0566 48.7606 41.6595 48.338 42.1256L45.2114 45.5718C44.9223 45.8892 44.6843 46.2492 44.5033 46.6433L42.9003 50.1512C42.422 51.1989 42.3986 52.4102 42.8356 53.4739L43.4017 54.8555C39.3609 57.0347 34.7746 58.2421 30.0009 58.2421C24.9434 58.2421 19.982 56.8897 15.6531 54.3314C11.4489 51.8468 7.93938 48.2965 5.5041 44.0646C5.26199 43.6438 4.72445 43.4992 4.30398 43.7412C3.88328 43.9833 3.73844 44.5206 3.98055 44.9413C6.56688 49.4357 10.2939 53.2061 14.7589 55.8447C19.3585 58.563 24.6291 59.9999 30.0009 59.9999C41.8518 59.9999 52.618 52.9999 57.4292 42.1668C57.6262 41.7231 57.4263 41.2038 56.9826 41.0068C56.5394 40.8098 56.0196 41.0097 55.8227 41.4534C53.4811 46.7259 49.6411 51.0336 44.9364 53.9652L44.4617 52.8066C44.2083 52.19 44.222 51.4882 44.4991 50.8814L46.1011 47.3756C46.206 47.1476 46.3439 46.9388 46.5122 46.7539L49.6401 43.3064C50.3695 42.5017 50.7537 41.4614 50.7221 40.3774L50.7149 40.1337C50.6874 39.1821 50.3313 38.2597 49.7116 37.5354C49.0908 36.8118 48.2336 36.3183 47.299 36.1461C46.7856 36.0509 46.3258 35.799 45.9695 35.4182L44.3644 33.7005C44.1072 33.4253 43.8163 33.1877 43.5026 32.996C43.1839 32.7996 42.8411 32.6472 42.4846 32.5432C40.6 31.9915 39.048 30.5701 38.333 28.7413L38.0857 28.1082C37.2135 25.8737 37.4119 23.4064 38.6301 21.3396L40.1324 18.7931C40.1554 18.7542 40.1806 18.7171 40.2041 18.6786L41.2952 18.9424C41.3647 18.9592 41.434 18.9673 41.5025 18.9673C41.8989 18.9673 42.2588 18.697 42.3561 18.2947C42.4701 17.8229 42.1802 17.348 41.7084 17.2338L41.415 17.1629C42.5166 16.0939 43.9216 15.3655 45.4663 15.0926L47.0269 14.8164C45.9414 15.5227 45.2215 16.7457 45.2215 18.1345V18.1786C44.9069 18.2507 44.6437 18.4931 44.5627 18.8282C44.4487 19.3 44.7387 19.7749 45.2105 19.8889L45.2215 19.8916V21.4491C45.2215 22.978 46.4655 24.2221 47.9945 24.2221H51.2999C51.3176 24.2516 51.3366 24.2805 51.358 24.3084C51.5312 24.5332 51.7916 24.651 52.055 24.651C52.2422 24.651 52.4309 24.5913 52.5907 24.4683L52.9104 24.222H57.2281C57.3692 24.222 57.5079 24.2112 57.6434 24.1908C58.0404 26.0883 58.243 28.0376 58.243 29.9999C58.243 32.6228 57.8841 35.218 57.1761 37.7135C57.0436 38.1805 57.3147 38.6665 57.7817 38.799C57.862 38.8218 57.9427 38.8327 58.022 38.8327C58.4051 38.8327 58.7574 38.5802 58.8671 38.1934C59.6194 35.5418 60.0009 32.7851 60.0009 29.9999C60.0009 27.7459 59.7504 25.5071 59.257 23.3365C59.718 22.8411 60.0009 22.1777 60.0009 21.4493V18.1346ZM55.5203 12.4522C55.5203 14.0563 54.2152 15.3614 52.6111 15.3614C51.0071 15.3614 49.702 14.0563 49.702 12.4522C49.702 10.8482 51.0071 9.54305 52.6111 9.54305C54.2152 9.54305 55.5203 10.8482 55.5203 12.4522ZM47.9944 22.4644C47.4347 22.4644 46.9792 22.009 46.9792 21.4492V18.1346C46.9792 16.9221 47.9656 15.9357 49.1781 15.9357H49.5097C50.3348 16.6712 51.4213 17.1193 52.6111 17.1193C53.8009 17.1193 54.8874 16.6712 55.7126 15.9357H56.0441C57.2567 15.9357 58.243 16.9221 58.243 18.1346V21.4493C58.243 22.009 57.7877 22.4645 57.2279 22.4645L47.9944 22.4644Z" fill="#202939"/>
<path d="M12.3828 45.8065C12.3828 47.3355 13.6268 48.5795 15.1558 48.5795H20.4296C20.4698 48.6598 20.5114 48.7395 20.5558 48.8177L22.3065 51.8952C23.2074 53.4801 24.8995 54.4647 26.7226 54.4647H29.4547C29.9584 54.4647 30.4634 54.3448 30.9164 54.1176L33.4421 52.8464C34.3415 52.3945 34.9712 51.5689 35.1698 50.5816C35.3684 49.5937 35.1065 48.5883 34.4511 47.823L33.3778 46.5707C33.146 46.3011 33.0184 45.9559 33.0184 45.5989V41.5042C33.0184 40.37 32.4424 39.3363 31.4779 38.7388L28.9453 37.1689C28.7363 37.0395 28.561 36.8586 28.4389 36.6466C28.3155 36.4314 28.2464 36.1877 28.239 35.9417C28.2097 34.9491 27.7378 34.0372 26.9445 33.4395C26.1509 32.8417 25.1437 32.6399 24.1802 32.886L23.305 33.1107C23.1368 33.1537 22.9742 33.2096 22.8175 33.2773C21.9995 32.5711 20.9355 32.1426 19.7725 32.1426C18.8533 32.1426 17.9961 32.4108 17.2728 32.8715C17.0097 32.6605 16.637 32.6111 16.3182 32.7763C15.8873 32.9997 15.719 33.5302 15.9425 33.9611L15.9984 34.0688C15.4375 34.8389 15.1055 35.7859 15.1055 36.8095C15.1055 37.4554 15.2376 38.0711 15.476 38.6311C13.7083 39.0263 12.3828 40.6067 12.3828 42.4918V45.8065ZM24.6163 34.5888C25.0589 34.4757 25.522 34.5686 25.8869 34.8434C26.2516 35.1181 26.4685 35.5373 26.482 35.9935C26.4978 36.5277 26.6473 37.0559 26.915 37.5223C27.1824 37.9867 27.5647 38.3813 28.0197 38.6629L29.828 39.7839L29.5057 40.0322C29.1212 40.3285 29.0496 40.8803 29.3458 41.2649C29.519 41.4897 29.7794 41.6075 30.0427 41.6075C30.23 41.6075 30.4187 41.5478 30.5785 41.4248L31.163 40.9744C31.2257 41.1407 31.2605 41.3192 31.2605 41.504V45.5986C31.2605 46.3761 31.539 47.1282 32.0439 47.7154L33.1162 48.9664C33.4174 49.3181 33.5379 49.7805 33.4464 50.2348C33.3552 50.6886 33.0658 51.0679 32.6523 51.2758L30.1271 52.5467C29.9185 52.6513 29.686 52.7066 29.4547 52.7066H26.7226C25.5304 52.7066 24.4238 52.0628 23.8345 51.0261L22.4427 48.5793H24.3893C25.9183 48.5793 27.1623 47.3354 27.1623 45.8063V44.0561L27.3767 43.8909C27.7613 43.5947 27.8329 43.0428 27.5367 42.6583C27.4353 42.5267 27.3037 42.4327 27.1593 42.3766C27.1066 40.5426 25.8007 39.0181 24.0691 38.6309C24.3075 38.0709 24.4395 37.4553 24.4395 36.8092C24.4395 36.0729 24.2675 35.3763 23.9625 34.7563L24.6163 34.5888ZM22.6817 36.8096C22.6817 38.4136 21.3766 39.7188 19.7725 39.7188C18.1685 39.7188 16.8634 38.4136 16.8634 36.8096C16.8634 35.2055 18.1685 33.9004 19.7725 33.9004C21.3766 33.9004 22.6817 35.2054 22.6817 36.8096ZM14.1406 42.4919C14.1406 41.2793 15.127 40.293 16.3395 40.293H16.6711C17.4962 41.0284 18.5827 41.4766 19.7725 41.4766C20.9623 41.4766 22.0488 41.0284 22.874 40.293H23.2055C24.4181 40.293 25.4045 41.2793 25.4045 42.4919V45.8065C25.4045 46.3662 24.9491 46.8217 24.3893 46.8217H15.1558C14.5961 46.8217 14.1406 46.3663 14.1406 45.8065V42.4919Z" fill="#202939"/>
<path d="M14.9647 31.0451C15.101 31.0451 15.2393 31.0134 15.3686 30.9463C15.7995 30.7228 15.9677 30.1925 15.7443 29.7616L15.0851 28.4902C14.8617 28.0592 14.331 27.891 13.9003 28.1145C13.4694 28.338 13.3011 28.8684 13.5246 29.2993L14.1838 30.5706C14.3401 30.8723 14.6469 31.0451 14.9647 31.0451Z" fill="#202939"/>
<path d="M9.35165 21.2484C9.50798 21.55 9.8149 21.7228 10.1327 21.7228C10.269 21.7228 10.4073 21.6911 10.5365 21.6241C10.9674 21.4006 11.1357 20.8702 10.9122 20.4393L10.2531 19.1679C10.0297 18.7369 9.49896 18.5687 9.06829 18.7922C8.6374 19.0157 8.46911 19.5461 8.69259 19.977L9.35165 21.2484Z" fill="#202939"/>
<path d="M43.9143 28.9336L42.7136 29.8586C42.3291 30.1548 42.2575 30.7067 42.5538 31.0913C42.727 31.3159 42.9874 31.4338 43.2507 31.4338C43.438 31.4338 43.6266 31.3742 43.7865 31.2511L44.9872 30.3262C45.3717 30.0299 45.4433 29.4781 45.147 29.0935C44.8507 28.709 44.2989 28.6375 43.9143 28.9336Z" fill="#202939"/>
<path d="M36.3422 35.8758C36.0461 35.4913 35.494 35.4196 35.1095 35.716L33.9089 36.6408C33.5245 36.937 33.4529 37.4889 33.7491 37.8735C33.9222 38.0981 34.1827 38.216 34.446 38.216C34.6333 38.216 34.822 38.1564 34.9818 38.0333L36.1824 37.1085C36.5669 36.8122 36.6385 36.2604 36.3422 35.8758Z" fill="#202939"/>
<path d="M48.3167 25.5421L47.116 26.467C46.7315 26.7633 46.6599 27.3151 46.9561 27.6997C47.1293 27.9244 47.3897 28.0423 47.6531 28.0423C47.8403 28.0423 48.029 27.9826 48.1888 27.8596L49.3895 26.9346C49.774 26.6384 49.8456 26.0865 49.5494 25.7019C49.253 25.3174 48.7012 25.2458 48.3167 25.5421Z" fill="#202939"/>
<path d="M36.1176 17.666C36.514 17.666 36.8739 17.3958 36.9712 16.9935C37.0852 16.5217 36.7953 16.0467 36.3235 15.9326L34.8552 15.5776C34.3827 15.4634 33.9084 15.7535 33.7943 16.2253C33.6803 16.6971 33.9702 17.1721 34.442 17.2862L35.9103 17.6412C35.9799 17.6579 36.0493 17.666 36.1176 17.666Z" fill="#202939"/>
<path d="M29.0593 15.9844L30.5274 16.3395C30.5969 16.3563 30.6664 16.3644 30.7347 16.3644C31.1311 16.3644 31.491 16.0943 31.5883 15.6918C31.7024 15.22 31.4124 14.745 30.9406 14.6309L29.4725 14.2759C29.0002 14.1616 28.5256 14.4518 28.4116 14.9236C28.2974 15.3955 28.5875 15.8704 29.0593 15.9844Z" fill="#202939"/>
<path d="M18.2936 13.3809L19.7619 13.7359C19.8314 13.7526 19.9007 13.7607 19.9692 13.7607C20.3656 13.7607 20.7255 13.4905 20.8228 13.0882C20.9368 12.6164 20.6469 12.1414 20.1751 12.0273L18.7068 11.6723C18.2346 11.5582 17.76 11.8482 17.6459 12.32C17.5318 12.7918 17.8218 13.2668 18.2936 13.3809Z" fill="#202939"/>
</svg>
