<svg width="46" height="60" viewBox="0 0 46 60" fill="none" xmlns="http://www.w3.org/2000/svg">
<path d="M43.6671 8.45449H41.7279V6.51527C41.7279 5.51262 40.9123 4.69699 39.9096 4.69699H28.3488C28.0384 4.13754 27.442 3.75762 26.7581 3.75762H13.4616C13.0495 1.62 11.1657 0 8.90965 0C6.65367 0 4.76977 1.62 4.35785 3.7575H2.33391C1.33125 3.7575 0.515625 4.57313 0.515625 5.57578V30C0.515625 30.6839 0.895547 31.2803 1.455 31.5907V54.4242C1.455 55.4269 2.27063 56.2425 3.27328 56.2425H5.2125V58.1817C5.2125 59.1844 6.02812 60.0001 7.03078 60.0001H43.667C44.6696 60.0001 45.4853 59.1844 45.4853 58.1817V10.2728C45.4854 9.27012 44.6698 8.45449 43.6671 8.45449ZM2.27344 5.5759C2.27344 5.5425 2.30051 5.51543 2.33391 5.51543H4.27313V14.0305C4.27313 16.5871 6.35309 18.6669 8.90965 18.6669C11.4662 18.6669 13.5461 16.587 13.5461 14.0304V10.2728C13.5461 8.75215 12.3089 7.51512 10.7884 7.51512C9.26789 7.51512 8.03074 8.75227 8.03074 10.2728V12.1515C8.03074 12.6369 8.42426 13.0304 8.90965 13.0304C9.39504 13.0304 9.78855 12.6369 9.78855 12.1515V10.2728C9.78855 9.72141 10.2371 9.27293 10.7884 9.27293C11.3396 9.27293 11.7882 9.72152 11.7882 10.2728V14.0303C11.7882 15.6176 10.4968 16.909 8.90953 16.909C7.32223 16.909 6.03094 15.6176 6.03094 14.0304V4.63992C6.03094 4.63875 6.03105 4.6377 6.03105 4.63652C6.03105 4.6357 6.03094 4.635 6.03094 4.6343C6.03223 3.04793 7.32305 1.75781 8.90965 1.75781C10.1905 1.75781 11.2781 2.59887 11.6505 3.7575H8.90918C8.42379 3.7575 8.03027 4.15102 8.03027 4.63641C8.03027 5.1218 8.42379 5.51531 8.90918 5.51531H26.758C26.7914 5.51531 26.8185 5.54238 26.8185 5.57578V30C26.8185 30.0334 26.7914 30.0605 26.758 30.0605H2.33391C2.30051 30.0605 2.27344 30.0334 2.27344 30V5.5759ZM43.7276 58.1816C43.7276 58.215 43.7005 58.2422 43.6671 58.2422H7.0309C6.9975 58.2422 6.97043 58.2151 6.97043 58.1816V56.2424H31.6164C32.353 56.2424 33.0456 55.9555 33.5664 55.4346L40.9202 48.081C41.4411 47.5601 41.728 46.8676 41.728 46.131V14.9699C41.728 14.4845 41.3345 14.091 40.8491 14.091C40.3637 14.091 39.9702 14.4845 39.9702 14.9699V46.0302H33.334C32.3313 46.0302 31.5157 46.8458 31.5157 47.8485V54.4847H3.27352C3.24012 54.4847 3.21305 54.4576 3.21305 54.4242V31.8183H26.7582C27.7609 31.8183 28.5765 31.0027 28.5765 30V6.45481H39.9097C39.9431 6.45481 39.9702 6.48188 39.9702 6.51527V11.2123C39.9702 11.6977 40.3637 12.0912 40.8491 12.0912C41.3345 12.0912 41.728 11.6977 41.728 11.2123V10.2123H43.6672C43.7006 10.2123 43.7277 10.2394 43.7277 10.2728V58.1816H43.7276ZM33.2733 53.2418V47.8485C33.2733 47.8151 33.3004 47.788 33.3337 47.788H38.7273L33.2733 53.2418Z" fill="#202939"/>
<path d="M17.3633 13.9697H22.0603C22.5457 13.9697 22.9392 13.5762 22.9392 13.0908C22.9392 12.6054 22.5457 12.2119 22.0603 12.2119H17.3633C16.8779 12.2119 16.4844 12.6054 16.4844 13.0908C16.4844 13.5762 16.8779 13.9697 17.3633 13.9697Z" fill="#202939"/>
<path d="M17.3633 18.667H22.0603C22.5457 18.667 22.9392 18.2735 22.9392 17.7881C22.9392 17.3027 22.5457 16.9092 22.0603 16.9092H17.3633C16.8779 16.9092 16.4844 17.3027 16.4844 17.7881C16.4844 18.2735 16.8779 18.667 17.3633 18.667Z" fill="#202939"/>
<path d="M7.03125 23.3643H22.0615C22.5469 23.3643 22.9404 22.9707 22.9404 22.4854C22.9404 22 22.5469 21.6064 22.0615 21.6064H7.03125C6.54586 21.6064 6.15234 22 6.15234 22.4854C6.15234 22.9707 6.54574 23.3643 7.03125 23.3643Z" fill="#202939"/>
<path d="M35.2108 21.6064H33.332C32.8466 21.6064 32.4531 22 32.4531 22.4854C32.4531 22.9707 32.8466 23.3643 33.332 23.3643H35.2108C35.6962 23.3643 36.0897 22.9707 36.0897 22.4854C36.0897 22 35.6963 21.6064 35.2108 21.6064Z" fill="#202939"/>
<path d="M35.2108 12.2119H33.332C32.8466 12.2119 32.4531 12.6054 32.4531 13.0908C32.4531 13.5762 32.8466 13.9697 33.332 13.9697H35.2108C35.6962 13.9697 36.0897 13.5762 36.0897 13.0908C36.0897 12.6054 35.6963 12.2119 35.2108 12.2119Z" fill="#202939"/>
<path d="M35.2108 16.9092H33.332C32.8466 16.9092 32.4531 17.3027 32.4531 17.7881C32.4531 18.2735 32.8466 18.667 33.332 18.667H35.2108C35.6962 18.667 36.0897 18.2735 36.0897 17.7881C36.0897 17.3027 35.6963 16.9092 35.2108 16.9092Z" fill="#202939"/>
<path d="M35.2108 26.3027H33.332C32.8466 26.3027 32.4531 26.6962 32.4531 27.1816C32.4531 27.667 32.8466 28.0605 33.332 28.0605H35.2108C35.6962 28.0605 36.0897 27.667 36.0897 27.1816C36.0897 26.6962 35.6963 26.3027 35.2108 26.3027Z" fill="#202939"/>
<path d="M9.84762 34.7578H7.96875C7.48336 34.7578 7.08984 35.1513 7.08984 35.6367C7.08984 36.1221 7.48336 36.5156 7.96875 36.5156H9.84762C10.333 36.5156 10.7265 36.1221 10.7265 35.6367C10.7265 35.1513 10.3331 34.7578 9.84762 34.7578Z" fill="#202939"/>
<path d="M9.84762 44.1514H7.96875C7.48336 44.1514 7.08984 44.5449 7.08984 45.0303C7.08984 45.5157 7.48336 45.9092 7.96875 45.9092H9.84762C10.333 45.9092 10.7265 45.5157 10.7265 45.0303C10.7265 44.5449 10.3331 44.1514 9.84762 44.1514Z" fill="#202939"/>
<path d="M9.84762 39.4541H7.96875C7.48336 39.4541 7.08984 39.8476 7.08984 40.333C7.08984 40.8184 7.48336 41.2119 7.96875 41.2119H9.84762C10.333 41.2119 10.7265 40.8184 10.7265 40.333C10.7265 39.8476 10.3331 39.4541 9.84762 39.4541Z" fill="#202939"/>
<path d="M35.2134 34.7578H14.5469C14.0615 34.7578 13.668 35.1513 13.668 35.6367C13.668 36.1221 14.0615 36.5156 14.5469 36.5156H35.2134C35.6988 36.5156 36.0923 36.1221 36.0923 35.6367C36.0923 35.1513 35.6989 34.7578 35.2134 34.7578Z" fill="#202939"/>
<path d="M27.6984 44.1514H14.5469C14.0615 44.1514 13.668 44.5449 13.668 45.0303C13.668 45.5157 14.0615 45.9092 14.5469 45.9092H27.6984C28.1838 45.9092 28.5773 45.5157 28.5773 45.0303C28.5773 44.5449 28.1838 44.1514 27.6984 44.1514Z" fill="#202939"/>
<path d="M35.2134 39.4541H14.5469C14.0615 39.4541 13.668 39.8476 13.668 40.333C13.668 40.8184 14.0615 41.2119 14.5469 41.2119H35.2134C35.6988 41.2119 36.0923 40.8184 36.0923 40.333C36.0923 39.8476 35.6989 39.4541 35.2134 39.4541Z" fill="#202939"/>
</svg>
