<svg width="37" height="37" viewBox="0 0 37 37" fill="none" xmlns="http://www.w3.org/2000/svg">
<circle cx="18.002" cy="18.75" r="18" fill="#F8F8F8"/>
<path fill-rule="evenodd" clip-rule="evenodd" d="M15.5283 12.786C16.1681 12.7565 16.3721 12.75 18.002 12.75C19.6318 12.75 19.8358 12.7571 20.475 12.786C21.1143 12.8149 21.5507 12.9169 21.9325 13.0647C22.3323 13.2158 22.695 13.452 22.995 13.7575C23.3005 14.0569 23.5361 14.4191 23.6867 14.8195C23.835 15.2013 23.9365 15.6376 23.966 16.2758C23.9954 16.9167 24.002 17.1207 24.002 18.75C24.002 20.3798 23.9949 20.5838 23.966 21.2236C23.937 21.8618 23.835 22.2982 23.6867 22.68C23.5361 23.0804 23.3001 23.4432 22.995 23.7431C22.695 24.0485 22.3323 24.2842 21.9325 24.4347C21.5507 24.5831 21.1143 24.6845 20.4761 24.714C19.8358 24.7435 19.6318 24.75 18.002 24.75C16.3721 24.75 16.1681 24.7429 15.5283 24.714C14.8901 24.6851 14.4538 24.5831 14.072 24.4347C13.6715 24.2842 13.3088 24.0481 13.0089 23.7431C12.7036 23.4435 12.4674 23.0808 12.3167 22.6805C12.1689 22.2987 12.0674 21.8624 12.038 21.2242C12.0085 20.5833 12.002 20.3793 12.002 18.75C12.002 17.1202 12.009 16.9162 12.038 16.2769C12.0669 15.6376 12.1689 15.2013 12.3167 14.8195C12.4676 14.4191 12.704 14.0565 13.0094 13.7569C13.3089 13.4517 13.6713 13.2155 14.0714 13.0647C14.4532 12.9169 14.8896 12.8155 15.5278 12.786H15.5283ZM20.4265 13.866C19.7938 13.8371 19.604 13.8311 18.002 13.8311C16.4 13.8311 16.2101 13.8371 15.5774 13.866C14.9921 13.8927 14.6747 13.9904 14.463 14.0727C14.1832 14.1818 13.983 14.3111 13.773 14.5211C13.574 14.7148 13.4208 14.9505 13.3247 15.2111C13.2423 15.4227 13.1447 15.7402 13.118 16.3255C13.089 16.9582 13.083 17.148 13.083 18.75C13.083 20.352 13.089 20.5418 13.118 21.1745C13.1447 21.7598 13.2423 22.0773 13.3247 22.2889C13.4207 22.5491 13.574 22.7853 13.773 22.9789C13.9667 23.178 14.2029 23.3313 14.463 23.4273C14.6747 23.5096 14.9921 23.6073 15.5774 23.634C16.2101 23.6629 16.3994 23.6689 18.002 23.6689C19.6045 23.6689 19.7938 23.6629 20.4265 23.634C21.0118 23.6073 21.3292 23.5096 21.5409 23.4273C21.8207 23.3182 22.0209 23.1889 22.2309 22.9789C22.43 22.7853 22.5832 22.5491 22.6792 22.2889C22.7616 22.0773 22.8592 21.7598 22.886 21.1745C22.9149 20.5418 22.9209 20.352 22.9209 18.75C22.9209 17.148 22.9149 16.9582 22.886 16.3255C22.8592 15.7402 22.7616 15.4227 22.6792 15.2111C22.5701 14.9313 22.4409 14.7311 22.2309 14.5211C22.0372 14.322 21.8014 14.1688 21.5409 14.0727C21.3292 13.9904 21.0118 13.8927 20.4265 13.866ZM17.2356 20.5996C17.6636 20.7778 18.1402 20.8018 18.5839 20.6677C19.0277 20.5335 19.4111 20.2494 19.6686 19.864C19.9262 19.4785 20.042 19.0156 19.9962 18.5542C19.9503 18.0929 19.7458 17.6618 19.4174 17.3345C19.2081 17.1254 18.955 16.9652 18.6763 16.8655C18.3977 16.7659 18.1004 16.7293 17.8059 16.7583C17.5114 16.7874 17.2269 16.8814 16.9731 17.0335C16.7193 17.1857 16.5024 17.3922 16.3379 17.6383C16.1735 17.8843 16.0657 18.1638 16.0222 18.4565C15.9788 18.7493 16.0008 19.048 16.0866 19.3312C16.1725 19.6144 16.32 19.8751 16.5187 20.0944C16.7174 20.3137 16.9622 20.4863 17.2356 20.5996ZM15.8212 16.5693C16.1076 16.2829 16.4476 16.0557 16.8218 15.9007C17.1959 15.7458 17.597 15.666 18.002 15.666C18.407 15.666 18.808 15.7458 19.1822 15.9007C19.5563 16.0557 19.8963 16.2829 20.1827 16.5693C20.4691 16.8556 20.6962 17.1956 20.8512 17.5698C21.0062 17.944 21.086 18.345 21.086 18.75C21.086 19.155 21.0062 19.556 20.8512 19.9302C20.6962 20.3044 20.4691 20.6444 20.1827 20.9307C19.6043 21.5091 18.8199 21.834 18.002 21.834C17.184 21.834 16.3996 21.5091 15.8212 20.9307C15.2429 20.3524 14.9179 19.5679 14.9179 18.75C14.9179 17.9321 15.2429 17.1476 15.8212 16.5693ZM21.77 16.1253C21.8409 16.0583 21.8977 15.9778 21.937 15.8885C21.9763 15.7992 21.9973 15.703 21.9987 15.6054C22.0001 15.5079 21.982 15.411 21.9453 15.3206C21.9086 15.2302 21.8542 15.1481 21.7852 15.0791C21.7162 15.0101 21.6341 14.9557 21.5437 14.919C21.4533 14.8823 21.3564 14.8642 21.2589 14.8656C21.1614 14.867 21.0651 14.888 20.9758 14.9273C20.8865 14.9666 20.806 15.0234 20.739 15.0944C20.6088 15.2324 20.5376 15.4157 20.5403 15.6054C20.5431 15.7951 20.6197 15.9763 20.7539 16.1105C20.888 16.2446 21.0692 16.3212 21.2589 16.324C21.4486 16.3267 21.6319 16.2555 21.77 16.1253Z" fill="#202939"/>
</svg>
