<svg width="99" height="33" viewBox="0 0 99 33" fill="none" xmlns="http://www.w3.org/2000/svg">
<path d="M0 0.339539L29.7591 32.6864H0V0.339539Z" fill="#274BF1"/>
<g filter="url(#filter0_b_70_11013)">
<path d="M0 0H18.2178C23.9345 0 28.5688 4.6343 28.5688 10.351C28.5688 16.0677 23.9345 20.702 18.2178 20.702H0V0Z" fill="url(#paint0_linear_70_11013)"/>
<path d="M0.32516 0.32516H18.2178C23.7549 0.32516 28.2436 4.81388 28.2436 10.351C28.2436 15.8881 23.7549 20.3768 18.2178 20.3768H0.32516V0.32516Z" stroke="url(#paint1_linear_70_11013)" stroke-width="0.650319"/>
</g>
<path d="M36.2627 15.9962C36.2627 13.1983 36.8986 11.0942 38.1703 9.68372C39.4652 8.27325 41.1993 7.56801 43.3729 7.56801C43.6041 7.56801 43.7775 7.57957 43.8931 7.60269V9.7184C43.7775 9.69528 43.6041 9.68372 43.3729 9.68372C41.8699 9.68372 40.6791 10.2155 39.8004 11.2792C38.9218 12.3428 38.4825 13.9151 38.4825 15.9962V25.0139H36.2627V15.9962Z" fill="black"/>
<path d="M44.4215 16.3777C44.4215 14.7591 44.803 13.2677 45.5661 11.9035C46.3522 10.5161 47.4159 9.41781 48.757 8.60852C50.0981 7.79924 51.5895 7.39459 53.2312 7.39459C54.7804 7.39459 56.214 7.76455 57.5319 8.50447C58.873 9.22127 59.9482 10.2502 60.7575 11.5913C61.5668 12.9093 61.9946 14.4123 62.0408 16.1002V16.4124C62.0408 16.6898 62.0293 16.8979 62.0061 17.0367H46.7453C46.7915 18.1697 47.1037 19.2102 47.6818 20.1582C48.2598 21.0831 49.0344 21.823 50.0056 22.378C50.9767 22.9098 52.0519 23.1757 53.2312 23.1757C54.3179 23.1757 55.3237 22.956 56.2486 22.5167C57.1967 22.0542 57.9828 21.4415 58.6071 20.6785H61.3125C60.5032 22.0889 59.3702 23.2104 57.9135 24.0428C56.4799 24.8752 54.9307 25.2914 53.2658 25.2914C51.6241 25.2914 50.1212 24.8983 48.757 24.1121C47.4159 23.3029 46.3522 22.2161 45.5661 20.8519C44.803 19.4876 44.4215 17.9962 44.4215 16.3777ZM59.6823 15.1637C59.4049 13.5452 58.6765 12.2041 57.4973 11.1404C56.318 10.0537 54.9075 9.5103 53.2658 9.5103C51.601 9.5103 50.1674 10.0537 48.9651 11.1404C47.7627 12.2272 47.0228 13.5683 46.7453 15.1637H59.6823Z" fill="black"/>
<path d="M79.196 15.8921V25.0139H76.9762V15.8921C76.9762 13.788 76.4906 12.2041 75.5195 11.1404C74.5484 10.0537 73.2304 9.5103 71.5656 9.5103C69.9007 9.5103 68.5828 10.0537 67.6116 11.1404C66.6405 12.2041 66.1549 13.788 66.1549 15.8921V25.0139H63.9351V15.8921C63.9351 13.0712 64.6288 10.9555 66.0162 9.54498C67.4035 8.11139 69.2533 7.39459 71.5656 7.39459C73.8778 7.39459 75.7276 8.11139 77.1149 9.54498C78.5023 10.9555 79.196 13.0712 79.196 15.8921Z" fill="black"/>
<path d="M90.052 7.39459C91.6705 7.39459 93.1619 7.79924 94.5262 8.60852C95.9135 9.39469 97.0003 10.4814 97.7864 11.8688C98.5957 13.233 99.0004 14.7244 99.0004 16.343C99.0004 17.9616 98.5957 19.4645 97.7864 20.8519C97.0003 22.2161 95.9135 23.3029 94.5262 24.1121C93.1619 24.8983 91.6705 25.2914 90.052 25.2914C88.4334 25.2914 86.942 24.8983 85.5778 24.1121C84.2136 23.3029 83.1268 22.2161 82.3175 20.8519C81.5082 19.4645 81.1036 17.9616 81.1036 16.343C81.1036 14.7244 81.5082 13.233 82.3175 11.8688C83.1268 10.4814 84.2136 9.39469 85.5778 8.60852C86.942 7.79924 88.4334 7.39459 90.052 7.39459ZM90.0867 9.5103C88.838 9.5103 87.6935 9.81089 86.653 10.4121C85.6356 11.0133 84.8263 11.8457 84.2251 12.9093C83.6239 13.9498 83.3233 15.0944 83.3233 16.343C83.3233 17.5916 83.6239 18.7362 84.2251 19.7767C84.8263 20.8172 85.6471 21.6496 86.6877 22.2739C87.7282 22.8751 88.8612 23.1757 90.0867 23.1757C91.3121 23.1757 92.4336 22.8751 93.451 22.2739C94.4915 21.6727 95.3008 20.8519 95.8788 19.8114C96.48 18.7477 96.7806 17.5916 96.7806 16.343C96.7806 15.0944 96.48 13.9498 95.8788 12.9093C95.3008 11.8457 94.503 11.0133 93.4857 10.4121C92.4683 9.81089 91.3353 9.5103 90.0867 9.5103Z" fill="black"/>
<defs>
<filter id="filter0_b_70_11013" x="-2.97153" y="-2.97153" width="34.5114" height="26.6451" filterUnits="userSpaceOnUse" color-interpolation-filters="sRGB">
<feFlood flood-opacity="0" result="BackgroundImageFix"/>
<feGaussianBlur in="BackgroundImageFix" stdDeviation="1.48576"/>
<feComposite in2="SourceAlpha" operator="in" result="effect1_backgroundBlur_70_11013"/>
<feBlend mode="normal" in="SourceGraphic" in2="effect1_backgroundBlur_70_11013" result="shape"/>
</filter>
<linearGradient id="paint0_linear_70_11013" x1="11.2381" y1="4.14036" x2="14.2844" y2="20.702" gradientUnits="userSpaceOnUse">
<stop stop-color="#00E8BE"/>
<stop offset="1" stop-color="#00B0E8" stop-opacity="0"/>
</linearGradient>
<linearGradient id="paint1_linear_70_11013" x1="27.239" y1="8.91507" x2="22.2865" y2="2.97201" gradientUnits="userSpaceOnUse">
<stop stop-color="white"/>
<stop offset="1" stop-color="white" stop-opacity="0"/>
</linearGradient>
</defs>
</svg>
