<svg width="218" height="61" viewBox="0 0 218 61" fill="none" xmlns="http://www.w3.org/2000/svg">
<g clip-path="url(#clip0_2229_21453)">
<path d="M51.8179 59.9463H0.107422V40.0234H30.7932C31.9829 40.0234 33.1726 39.9206 34.3212 39.6738L51.8179 59.9463Z" fill="#274BF1"/>
<path d="M34.3212 39.6726C33.1726 39.9193 31.9829 40.0221 30.7932 40.0221H0.107422V0.0117188L34.3212 39.6726Z" fill="#367AE4"/>
<path d="M50.7513 20.0169C50.7513 25.5476 48.5155 30.5644 44.9054 34.1624C42.0747 36.9792 38.4031 38.9735 34.3212 39.6726L0.107422 0.0117188H30.7932C41.7876 0.0117188 50.7513 8.99658 50.7513 20.0169Z" fill="#6BBBD8"/>
<path d="M71.6934 59.144V55.2992C71.6934 54.1067 71.9669 53.2089 72.5138 52.6058C73.0471 52.0027 73.7787 51.7012 74.7086 51.7012C74.8043 51.7012 74.8795 51.708 74.9342 51.7217V52.6264C74.8795 52.6127 74.8043 52.6058 74.7086 52.6058C74.0659 52.6058 73.5599 52.832 73.1907 53.2843C72.8215 53.7366 72.6369 54.4083 72.6369 55.2992V59.144H71.6934Z" fill="#F8F8F8"/>
<path fill-rule="evenodd" clip-rule="evenodd" d="M78.6076 58.1583C77.8692 57.4181 77.5 56.5203 77.5 55.4648C77.5 54.4094 77.8624 53.5048 78.5871 52.7509C79.3119 52.0107 80.2007 51.6406 81.2537 51.6406C82.2793 51.6406 83.1476 51.9833 83.8587 52.6686C84.5834 53.3677 84.9595 54.2586 84.9868 55.3415C85.0005 55.4511 85.0005 55.5814 84.9868 55.7321H78.5051C78.5324 56.4723 78.8059 57.096 79.3256 57.6031C79.8452 58.1103 80.4879 58.3639 81.2537 58.3639C82.1972 58.3639 82.9562 58.0075 83.5305 57.2947H84.6792C84.3373 57.8978 83.8587 58.3776 83.2433 58.7339C82.628 59.0766 81.9716 59.2479 81.2742 59.2479C80.2212 59.2479 79.3324 58.8847 78.6076 58.1583ZM78.5051 54.9508H84.0023C83.8929 54.2518 83.5852 53.6761 83.0792 53.2238C82.5733 52.7714 81.9716 52.5453 81.2742 52.5453C80.5631 52.5453 79.9546 52.7714 79.4486 53.2238C78.929 53.6761 78.6145 54.2518 78.5051 54.9508Z" fill="#F8F8F8"/>
<path fill-rule="evenodd" clip-rule="evenodd" d="M91.8767 59.2479C90.8375 59.2479 89.9418 58.8779 89.1897 58.1377C88.4512 57.3975 88.082 56.4997 88.082 55.4443C88.082 54.3889 88.4512 53.4911 89.1897 52.7509C89.9418 52.0107 90.8375 51.6406 91.8767 51.6406C92.9297 51.6406 93.8254 52.0107 94.5638 52.7509C95.3022 53.4911 95.6714 54.3889 95.6714 55.4443V59.1451H94.7279V57.562C94.4817 58.0554 94.0989 58.4598 93.5792 58.7751C93.0596 59.0903 92.4921 59.2479 91.8767 59.2479ZM89.8666 57.5003C90.4272 58.076 91.1041 58.3639 91.8972 58.3639C92.6904 58.3639 93.3673 58.0829 93.9279 57.5209C94.4749 56.9589 94.7484 56.2667 94.7484 55.4443C94.7484 54.6356 94.4749 53.9502 93.9279 53.3883C93.3809 52.8263 92.704 52.5453 91.8972 52.5453C91.0904 52.5453 90.4136 52.8263 89.8666 53.3883C89.3059 53.9502 89.0256 54.6356 89.0256 55.4443C89.0256 56.253 89.3059 56.9383 89.8666 57.5003Z" fill="#F8F8F8"/>
<path d="M102.647 59.2479C101.594 59.2479 100.698 58.8779 99.9596 58.1377C99.2075 57.3975 98.8383 56.4997 98.8519 55.4443C98.8383 54.3889 99.2075 53.4911 99.9596 52.7509C100.698 52.0107 101.594 51.6406 102.647 51.6406C103.371 51.6406 104.035 51.8325 104.636 52.2163C105.238 52.6001 105.689 53.1004 105.99 53.7172H104.964C104.404 52.9359 103.638 52.5453 102.667 52.5453C101.86 52.5453 101.177 52.8263 100.616 53.3883C100.055 53.9502 99.775 54.6356 99.775 55.4443C99.775 56.253 100.055 56.9383 100.616 57.5003C101.177 58.076 101.86 58.3639 102.667 58.3639C103.624 58.3639 104.39 57.9595 104.964 57.1508H106.011C105.71 57.7813 105.258 58.2885 104.657 58.6723C104.055 59.0561 103.385 59.2479 102.647 59.2479Z" fill="#F8F8F8"/>
<path d="M112.43 51.6401C113.415 51.6401 114.201 51.9416 114.789 52.5447C115.377 53.1478 115.671 54.0525 115.671 55.2587V59.1446H114.748V55.2587C114.748 54.354 114.536 53.6755 114.112 53.2232C113.702 52.7709 113.141 52.5447 112.43 52.5447C111.733 52.5447 111.179 52.764 110.769 53.2026C110.345 53.655 110.133 54.3129 110.133 55.1764V59.1446H109.189V48.8027H110.133V52.8531C110.625 52.0444 111.391 51.6401 112.43 51.6401Z" fill="#F8F8F8"/>
<path d="M119.795 57.4785V59.1439H118.852V57.4785H119.795Z" fill="#F8F8F8"/>
<path d="M129.064 59.144V55.2992C129.064 54.1067 129.338 53.2089 129.885 52.6058C130.432 52.0027 131.17 51.7012 132.1 51.7012C132.196 51.7012 132.264 51.708 132.305 51.7217V52.6264C132.264 52.6127 132.196 52.6058 132.1 52.6058C131.458 52.6058 130.952 52.832 130.582 53.2843C130.199 53.7366 130.008 54.4083 130.008 55.2992V59.144H129.064Z" fill="#F8F8F8"/>
<path fill-rule="evenodd" clip-rule="evenodd" d="M135.978 58.1583C135.253 57.4181 134.891 56.5203 134.891 55.4648C134.891 54.4094 135.253 53.5048 135.978 52.7509C136.703 52.0107 137.591 51.6406 138.644 51.6406C139.656 51.6406 140.525 51.9833 141.249 52.6686C141.974 53.3677 142.35 54.2586 142.377 55.3415C142.391 55.4511 142.384 55.5814 142.357 55.7321H135.875C135.903 56.4723 136.176 57.096 136.696 57.6031C137.215 58.1103 137.865 58.3639 138.644 58.3639C139.574 58.3639 140.333 58.0075 140.921 57.2947H142.07C141.728 57.8978 141.249 58.3776 140.634 58.7339C140.019 59.0766 139.355 59.2479 138.644 59.2479C137.591 59.2479 136.703 58.8847 135.978 58.1583ZM135.875 54.9508H141.372C141.263 54.2518 140.955 53.6761 140.449 53.2238C139.943 52.7714 139.342 52.5453 138.644 52.5453C137.947 52.5453 137.338 52.7714 136.819 53.2238C136.313 53.6761 135.998 54.2518 135.875 54.9508Z" fill="#F8F8F8"/>
<path d="M147.977 59.2479C147.266 59.2479 146.657 59.0561 146.152 58.6723C145.646 58.2748 145.393 57.7539 145.393 57.1097H146.316C146.316 57.5072 146.473 57.8224 146.787 58.0555C147.102 58.2885 147.505 58.4118 147.998 58.4255C148.517 58.4255 148.921 58.309 149.208 58.076C149.481 57.843 149.618 57.5277 149.618 57.1302C149.618 56.7464 149.474 56.4449 149.187 56.2256C148.914 56.0063 148.579 55.8486 148.182 55.7527C147.786 55.6567 147.382 55.5539 146.972 55.4443C146.575 55.3346 146.24 55.1222 145.967 54.8069C145.68 54.4917 145.536 54.0805 145.536 53.5733C145.536 52.9976 145.769 52.5316 146.234 52.1752C146.685 51.8188 147.252 51.6406 147.936 51.6406C148.62 51.6406 149.187 51.8188 149.639 52.1752C150.09 52.5316 150.315 53.025 150.315 53.6555H149.413C149.413 53.2992 149.269 53.0113 148.982 52.792C148.709 52.5864 148.36 52.4836 147.936 52.4836C147.526 52.4836 147.177 52.5864 146.89 52.792C146.616 52.9976 146.48 53.2786 146.48 53.635C146.48 53.9777 146.616 54.2449 146.89 54.4368C147.177 54.6424 147.519 54.7864 147.916 54.8686C148.312 54.9645 148.709 55.0742 149.105 55.1976C149.502 55.3209 149.844 55.5402 150.131 55.8555C150.418 56.1845 150.562 56.6162 150.562 57.1508C150.575 57.8087 150.343 58.3227 149.864 58.6928C149.386 59.0629 148.757 59.2479 147.977 59.2479Z" fill="#F8F8F8"/>
<path d="M157.046 52.6479H155.2V55.6291C155.2 57.2054 155.815 58.0827 157.046 58.2609V59.1861C156.198 59.0901 155.521 58.7543 155.015 58.1786C154.523 57.5892 154.27 56.7463 154.256 55.6497V52.6479H153.148V51.7638H154.256V49.4199H155.2V51.7638H157.046V52.6479Z" fill="#F8F8F8"/>
<path d="M160.86 57.4785V59.1439H159.916V57.4785H160.86Z" fill="#F8F8F8"/>
<path d="M170.15 59.144V55.2992C170.15 54.1067 170.424 53.2089 170.971 52.6058C171.518 52.0027 172.249 51.7012 173.166 51.7012C173.261 51.7012 173.337 51.708 173.391 51.7217V52.6264C173.337 52.6127 173.261 52.6058 173.166 52.6058C172.523 52.6058 172.017 52.832 171.648 53.2843C171.279 53.7366 171.094 54.4083 171.094 55.2992V59.144H170.15Z" fill="#F8F8F8"/>
<path fill-rule="evenodd" clip-rule="evenodd" d="M177.064 58.1583C176.339 57.4181 175.977 56.5203 175.977 55.4648C175.977 54.4094 176.332 53.5048 177.043 52.7509C177.768 52.0107 178.657 51.6406 179.71 51.6406C180.735 51.6406 181.61 51.9833 182.335 52.6686C183.046 53.3677 183.416 54.2586 183.443 55.3415C183.457 55.4511 183.457 55.5814 183.443 55.7321H176.961C176.988 56.4723 177.262 57.096 177.782 57.6031C178.301 58.1103 178.944 58.3639 179.71 58.3639C180.653 58.3639 181.412 58.0075 181.987 57.2947H183.135C182.793 57.8978 182.315 58.3776 181.699 58.7339C181.084 59.0766 180.428 59.2479 179.73 59.2479C178.677 59.2479 177.788 58.8847 177.064 58.1583ZM176.961 54.9508H182.458C182.349 54.2518 182.041 53.6761 181.535 53.2238C181.029 52.7714 180.428 52.5453 179.73 52.5453C179.019 52.5453 178.411 52.7714 177.905 53.2238C177.385 53.6761 177.071 54.2518 176.961 54.9508Z" fill="#F8F8F8"/>
<path d="M192.161 59.1451V55.2592C192.161 54.3546 191.956 53.6761 191.546 53.2238C191.136 52.7714 190.575 52.5453 189.864 52.5453C189.153 52.5453 188.592 52.7714 188.182 53.2238C187.772 53.6761 187.567 54.3546 187.567 55.2592V59.1451H186.623V55.2592C186.623 54.053 186.917 53.1484 187.505 52.5453C188.093 51.9422 188.879 51.6406 189.864 51.6406C190.848 51.6406 191.635 51.9422 192.223 52.5453C192.811 53.1484 193.105 54.053 193.105 55.2592V59.1451H192.161Z" fill="#F8F8F8"/>
<path fill-rule="evenodd" clip-rule="evenodd" d="M197.371 58.1583C196.633 57.4181 196.264 56.5203 196.264 55.4648C196.264 54.4094 196.626 53.5048 197.351 52.7509C198.076 52.0107 198.964 51.6406 200.017 51.6406C201.029 51.6406 201.898 51.9833 202.622 52.6686C203.347 53.3677 203.723 54.2586 203.751 55.3415C203.764 55.4511 203.764 55.5814 203.751 55.7321H197.248C197.289 56.4723 197.57 57.096 198.089 57.6031C198.609 58.1103 199.252 58.3639 200.017 58.3639C200.961 58.3639 201.72 58.0075 202.294 57.2947H203.443C203.101 57.8978 202.622 58.3776 202.007 58.7339C201.392 59.0766 200.735 59.2479 200.038 59.2479C198.985 59.2479 198.096 58.8847 197.371 58.1583ZM197.248 54.9508H202.745C202.636 54.2518 202.328 53.6761 201.822 53.2238C201.33 52.7714 200.735 52.5453 200.038 52.5453C199.327 52.5453 198.711 52.7714 198.192 53.2238C197.686 53.6761 197.371 54.2518 197.248 54.9508Z" fill="#F8F8F8"/>
<path d="M216.281 51.7637H217.225L214.661 59.1448H213.717L211.707 53.1412L209.697 59.1448H208.753L206.189 51.7637H207.133L209.225 57.8906L211.215 51.7637H212.199L214.189 57.8906L216.281 51.7637Z" fill="#F8F8F8"/>
<path d="M71.2617 42.799V23.0199C71.2617 16.8792 72.6634 12.26 75.4667 9.16226C78.2836 6.0645 82.0715 4.51562 86.8302 4.51562C87.3362 4.51562 87.7122 4.54304 87.9584 4.59787V9.2445C87.7122 9.18967 87.3362 9.16226 86.8302 9.16226C83.5347 9.16226 80.9297 10.3273 79.0152 12.6575C77.0871 15.0014 76.123 18.4555 76.123 23.0199V42.799H71.2617Z" fill="#F8F8F8"/>
<path fill-rule="evenodd" clip-rule="evenodd" d="M97.7443 37.699C93.9975 33.8885 92.1309 29.2693 92.1446 23.8413C92.1446 18.4134 94.0043 13.7736 97.7238 9.92198C101.43 6.07035 105.99 4.14453 111.405 4.14453C116.67 4.14453 121.162 5.93328 124.882 9.51078C128.601 13.0883 130.536 17.6664 130.686 23.2451C130.741 23.7934 130.714 24.4787 130.604 25.3011H97.211C97.3751 29.0979 98.7973 32.2916 101.478 34.8822C104.158 37.4591 107.467 38.7476 111.405 38.7476C116.273 38.7476 120.198 36.9246 123.179 33.2785H129.107C127.329 36.3763 124.861 38.8367 121.702 40.6597C118.53 42.4827 115.125 43.3942 111.487 43.3942C106.072 43.3942 101.491 41.4958 97.7443 37.699ZM97.211 21.189H125.538C124.977 17.639 123.391 14.6851 120.779 12.3275C118.181 9.96996 115.084 8.79117 111.487 8.79117C107.85 8.79117 104.712 9.96996 102.072 12.3275C99.4468 14.6851 97.8264 17.639 97.211 21.189Z" fill="#F8F8F8"/>
<path d="M166.438 42.798V22.7722C166.438 18.1667 165.372 14.6851 163.238 12.3275C161.119 9.96996 158.24 8.79117 154.603 8.79117C150.952 8.79117 148.066 9.96996 145.947 12.3275C143.814 14.6851 142.747 18.1667 142.747 22.7722V42.798H137.906V22.7722C137.906 16.5904 139.424 11.9438 142.46 8.83229C145.496 5.70712 149.543 4.14453 154.603 4.14453C159.663 4.14453 163.71 5.70712 166.746 8.83229C169.782 11.9438 171.3 16.5904 171.3 22.7722V42.798H166.438Z" fill="#F8F8F8"/>
<path fill-rule="evenodd" clip-rule="evenodd" d="M184.243 9.88086C188.059 6.05664 192.674 4.14453 198.089 4.14453C203.504 4.14453 208.119 6.05664 211.934 9.88086C215.75 13.7188 217.657 18.3449 217.657 23.7591C217.657 29.187 215.75 33.8199 211.934 37.6579C208.119 41.4821 203.504 43.3942 198.089 43.3942C192.674 43.3942 188.059 41.4821 184.243 37.6579C180.414 33.8199 178.5 29.187 178.5 23.7591C178.5 18.3449 180.414 13.7188 184.243 9.88086ZM208.591 13.1088C205.788 10.2304 202.314 8.79117 198.171 8.79117C194.014 8.79117 190.506 10.2304 187.648 13.1088C184.79 16.0147 183.361 19.5648 183.361 23.7591C183.361 27.926 184.804 31.4692 187.689 34.3888C190.575 37.2946 194.069 38.7476 198.171 38.7476C202.26 38.7476 205.726 37.3083 208.57 34.4299C211.401 31.5377 212.816 27.9808 212.816 23.7591C212.816 19.5648 211.408 16.0147 208.591 13.1088Z" fill="#F8F8F8"/>
</g>
<defs>
<clipPath id="clip0_2229_21453">
<rect width="217.631" height="60.0362" fill="white" transform="translate(0.107422 0.0332031)"/>
</clipPath>
</defs>
</svg>
