<svg width="18" height="16" viewBox="0 0 18 16" fill="none" xmlns="http://www.w3.org/2000/svg">
<path d="M6.77062 5.10496C6.84452 5.03173 6.90313 4.94465 6.94311 4.84874C6.98308 4.75283 7.00362 4.64999 7.00353 4.54613C7.00345 4.44228 6.98274 4.33946 6.94261 4.24362C6.90248 4.14778 6.84371 4.06079 6.7697 3.98768C6.69569 3.91458 6.60788 3.85679 6.51136 3.81766C6.41484 3.77852 6.3115 3.75881 6.20731 3.75966C6.10311 3.76051 6.00011 3.7819 5.90424 3.8226C5.80837 3.8633 5.72153 3.92251 5.64873 3.99682C4.99074 4.65929 4.54459 5.50131 4.36666 6.41645C4.18873 7.33159 4.28701 8.27877 4.64909 9.13825C5.01116 9.99772 5.62077 10.7309 6.40086 11.2451C7.18095 11.7594 8.09649 12.0316 9.03175 12.0273C9.96699 12.0231 10.8801 11.7426 11.6554 11.2212C12.4307 10.6999 13.0336 9.96114 13.3877 9.09836C13.7419 8.23562 13.8315 7.28759 13.6451 6.37412C13.4588 5.46063 13.0049 4.62272 12.3409 3.96628C12.2672 3.89352 12.1799 3.83593 12.0838 3.79681C11.9878 3.7577 11.885 3.73781 11.7813 3.73829C11.6775 3.73877 11.5749 3.75961 11.4793 3.79962C11.3836 3.83962 11.2969 3.89801 11.2238 3.97145C11.1508 4.04489 11.093 4.13194 11.0538 4.22764C11.0146 4.32334 10.9946 4.4258 10.9951 4.52918C10.9956 4.63256 11.0165 4.73483 11.0566 4.83016C11.0968 4.92549 11.1554 5.012 11.229 5.08477C11.6718 5.52218 11.9746 6.08066 12.099 6.68955C12.2234 7.29846 12.1638 7.93044 11.9278 8.50561C11.6918 9.08074 11.2901 9.57328 10.7732 9.92084C10.2564 10.2684 9.64782 10.4554 9.02436 10.4583C8.4009 10.4611 7.79058 10.2797 7.2706 9.93682C6.75062 9.59397 6.34431 9.10515 6.10305 8.53217C5.86179 7.95921 5.79643 7.3278 5.91521 6.71779C6.03399 6.10778 6.33159 5.54657 6.77037 5.10513L6.77062 5.10496Z" fill="url(#paint0_linear_4546_10239)"/>
<path d="M12.3272 0.0254944C11.8084 0.0264299 11.295 0.129913 10.8165 0.329956C10.3381 0.529998 9.9043 0.822626 9.54014 1.1909C9.39259 1.33899 9.19216 1.42269 8.98276 1.42363C8.77336 1.42459 8.57212 1.3427 8.42323 1.19595C7.67869 0.46239 6.67263 0.0531085 5.62572 0.0578866C4.57881 0.0626649 3.57655 0.481112 2.83878 1.22144C1.63071 2.43765 0.811539 3.98353 0.484816 5.66367C0.158094 7.3438 0.338489 9.08279 1.0032 10.6607C1.66791 12.2387 2.7871 13.5849 4.21927 14.529C5.65146 15.4731 7.33234 15.9729 9.04943 15.965C10.7666 15.9572 12.4427 15.4422 13.8662 14.4851C15.2897 13.5279 16.3965 12.1716 17.0467 10.5877C17.6969 9.00376 17.8614 7.26319 17.5192 5.5861C17.1771 3.90901 16.3439 2.37065 15.1247 1.16549C14.7572 0.800565 14.3207 0.511905 13.8405 0.316224C13.3603 0.120542 12.8459 0.0217271 12.3272 0.0254944ZM14.0127 2.28373C15.0113 3.26997 15.6941 4.5292 15.9746 5.90219C16.2552 7.27518 16.121 8.70022 15.589 9.99721C15.0569 11.2942 14.151 12.4047 12.9856 13.1886C11.8203 13.9723 10.4479 14.3941 9.04204 14.4005C7.63622 14.4069 6.26005 13.9977 5.08756 13.2246C3.91508 12.4515 2.99894 11.3491 2.45501 10.0571C1.91108 8.7651 1.76378 7.34127 2.03174 5.96578C2.2997 4.59029 2.97089 3.32488 3.96042 2.32958C4.40312 1.88539 5.00451 1.63432 5.63268 1.63145C6.26086 1.62858 6.86453 1.87414 7.31131 2.31427C7.75797 2.75443 8.36158 3.00002 8.98974 2.99717C9.61785 2.99432 10.2191 2.74324 10.6618 2.29904C11.1041 1.8542 11.7056 1.60267 12.334 1.5998C12.9623 1.59693 13.5661 1.84294 14.0125 2.28373" fill="url(#paint1_linear_4546_10239)"/>
<path d="M9.00978 8.70925C9.71851 8.70925 10.293 8.13665 10.293 7.43031C10.293 6.72397 9.71851 6.15137 9.00978 6.15137C8.30107 6.15137 7.72656 6.72397 7.72656 7.43031C7.72656 8.13665 8.30107 8.70925 9.00978 8.70925Z" fill="url(#paint2_linear_4546_10239)"/>
<defs>
<linearGradient id="paint0_linear_4546_10239" x1="9.01008" y1="16.8019" x2="9.01008" y2="0.0745037" gradientUnits="userSpaceOnUse">
<stop stop-color="#00CD9E"/>
<stop offset="1" stop-color="#38A3DC"/>
</linearGradient>
<linearGradient id="paint1_linear_4546_10239" x1="9.00975" y1="16.794" x2="9.00975" y2="0.0732093" gradientUnits="userSpaceOnUse">
<stop stop-color="#00CD9E"/>
<stop offset="1" stop-color="#38A3DC"/>
</linearGradient>
<linearGradient id="paint2_linear_4546_10239" x1="9.00978" y1="16.8075" x2="9.00978" y2="0.0738177" gradientUnits="userSpaceOnUse">
<stop stop-color="#00AB9E"/>
<stop offset="1" stop-color="#38A3DC"/>
</linearGradient>
</defs>
</svg>
