<svg width="55" height="45" viewBox="0 0 55 45" fill="none" xmlns="http://www.w3.org/2000/svg">
<path d="M24.4444 17C24.4444 20.6667 23.6461 24.0278 22.0496 27.0833C20.453 30.0833 18.5811 32.6944 16.4339 34.9167C14.2317 37.1944 11.8093 39.25 9.16667 41.0833C6.52402 42.8611 4.4044 44.1667 2.80781 45L0 40.0833C2.25726 38.75 4.4044 37.3889 6.44144 36C8.53353 34.5556 10.1301 33.1944 11.2312 31.9167C12.7177 30.25 13.9014 28.5278 14.7823 26.75C15.6632 24.9167 16.2137 22.5278 16.4339 19.5833H12.47C9.0015 19.5833 6.3038 18.6944 4.37688 16.9167C2.44995 15.1389 1.48649 12.6667 1.48649 9.5C1.48649 7.22222 2.36737 5.08333 4.12913 3.08333C5.89089 1.02778 8.28579 0 11.3138 0C15.9935 0 19.3519 1.58333 21.3889 4.75C23.4259 7.86111 24.4444 11.9444 24.4444 17ZM55 17C55 20.6667 54.2017 24.0278 52.6051 27.0833C51.0085 30.0833 49.1366 32.6944 46.9895 34.9167C44.7873 37.1944 42.3649 39.25 39.7222 41.0833C37.0796 42.8611 34.96 44.1667 33.3634 45L30.5556 40.0833C32.8128 38.75 34.96 37.3889 36.997 36C39.0891 34.5556 40.6857 33.1944 41.7868 31.9167C43.2733 30.25 44.457 28.5278 45.3378 26.75C46.2187 24.9167 46.7693 22.5278 46.9895 19.5833H43.0255C39.5571 19.5833 36.8594 18.6944 34.9324 16.9167C33.0055 15.1389 32.042 12.6667 32.042 9.5C32.042 7.22222 32.9229 5.08333 34.6847 3.08333C36.4464 1.02778 38.8413 0 41.8694 0C46.549 0 49.9074 1.58333 51.9444 4.75C53.9815 7.86111 55 11.9444 55 17Z" fill="#F2F3F4"/>
</svg>
