<svg width="16" height="18" viewBox="0 0 16 18" fill="none" xmlns="http://www.w3.org/2000/svg">
<path d="M13.0007 17.125C12.3618 17.125 11.8201 16.9028 11.3757 16.4583C10.9312 16.0139 10.709 15.4722 10.709 14.8333C10.709 14.7361 10.7159 14.6283 10.7298 14.51C10.7437 14.3922 10.7715 14.2917 10.8132 14.2083L4.64648 10.5833C4.42426 10.8056 4.17426 10.9792 3.89648 11.1042C3.61871 11.2292 3.3201 11.2917 3.00065 11.2917C2.36176 11.2917 1.8201 11.0694 1.37565 10.625C0.931207 10.1806 0.708984 9.63889 0.708984 9C0.708984 8.36111 0.931207 7.81944 1.37565 7.375C1.8201 6.93056 2.36176 6.70833 3.00065 6.70833C3.3201 6.70833 3.61871 6.77083 3.89648 6.89583C4.17426 7.02083 4.42426 7.19444 4.64648 7.41667L10.8132 3.79167C10.7715 3.70833 10.7437 3.6075 10.7298 3.48917C10.7159 3.37139 10.709 3.26389 10.709 3.16667C10.709 2.52778 10.9312 1.98611 11.3757 1.54167C11.8201 1.09722 12.3618 0.875 13.0007 0.875C13.6395 0.875 14.1812 1.09722 14.6257 1.54167C15.0701 1.98611 15.2923 2.52778 15.2923 3.16667C15.2923 3.80556 15.0701 4.34722 14.6257 4.79167C14.1812 5.23611 13.6395 5.45833 13.0007 5.45833C12.6812 5.45833 12.3826 5.39583 12.1048 5.27083C11.827 5.14583 11.577 4.97222 11.3548 4.75L5.18815 8.375C5.22982 8.45833 5.2576 8.55556 5.27148 8.66667C5.28537 8.77778 5.29232 8.88889 5.29232 9C5.29232 9.09722 5.28537 9.20472 5.27148 9.3225C5.2576 9.44083 5.22982 9.54167 5.18815 9.625L11.3548 13.25C11.577 13.0278 11.827 12.8542 12.1048 12.7292C12.3826 12.6042 12.6812 12.5417 13.0007 12.5417C13.6395 12.5417 14.1812 12.7639 14.6257 13.2083C15.0701 13.6528 15.2923 14.1944 15.2923 14.8333C15.2923 15.4722 15.0701 16.0139 14.6257 16.4583C14.1812 16.9028 13.6395 17.125 13.0007 17.125ZM13.0007 4.20833C13.2923 4.20833 13.539 4.1075 13.7407 3.90583C13.9418 3.70472 14.0423 3.45833 14.0423 3.16667C14.0423 2.875 13.9418 2.62833 13.7407 2.42667C13.539 2.22556 13.2923 2.125 13.0007 2.125C12.709 2.125 12.4626 2.22556 12.2615 2.42667C12.0598 2.62833 11.959 2.875 11.959 3.16667C11.959 3.45833 12.0598 3.70472 12.2615 3.90583C12.4626 4.1075 12.709 4.20833 13.0007 4.20833ZM3.00065 10.0417C3.29232 10.0417 3.53898 9.94083 3.74065 9.73917C3.94176 9.53806 4.04232 9.29167 4.04232 9C4.04232 8.70833 3.94176 8.46194 3.74065 8.26083C3.53898 8.05917 3.29232 7.95833 3.00065 7.95833C2.70898 7.95833 2.4626 8.05917 2.26148 8.26083C2.05982 8.46194 1.95898 8.70833 1.95898 9C1.95898 9.29167 2.05982 9.53806 2.26148 9.73917C2.4626 9.94083 2.70898 10.0417 3.00065 10.0417ZM13.0007 15.875C13.2923 15.875 13.539 15.7742 13.7407 15.5725C13.9418 15.3714 14.0423 15.125 14.0423 14.8333C14.0423 14.5417 13.9418 14.2953 13.7407 14.0942C13.539 13.8925 13.2923 13.7917 13.0007 13.7917C12.709 13.7917 12.4626 13.8925 12.2615 14.0942C12.0598 14.2953 11.959 14.5417 11.959 14.8333C11.959 15.125 12.0598 15.3714 12.2615 15.5725C12.4626 15.7742 12.709 15.875 13.0007 15.875Z" fill="#646F86"/>
</svg>
