<svg width="25" height="24" viewBox="0 0 25 24" fill="none" xmlns="http://www.w3.org/2000/svg">
<path d="M20.2598 6.75L20.2598 20.25H6.75977V6.75H20.2598Z" stroke="#6BBBD8" stroke-width="1.5" stroke-linecap="round"/>
<path d="M6.00977 1.75L5.25977 1.75L5.25977 3.25L6.00977 3.25L6.00977 1.75ZM19.0425 3.4744C18.7522 3.76989 18.7564 4.24474 19.0519 4.53502C19.3474 4.8253 19.8222 4.82108 20.1125 4.5256L19.0425 3.4744ZM20.1125 0.474402C19.8222 0.178918 19.3474 0.174699 19.0519 0.464978C18.7564 0.755258 18.7522 1.23011 19.0425 1.5256L20.1125 0.474402ZM21.0098 1.75L6.00977 1.75L6.00977 3.25L21.0098 3.25L21.0098 1.75ZM20.2598 2.5C20.2598 2.44186 20.2695 2.398 20.2769 2.37261C20.2843 2.34725 20.2915 2.33321 20.2922 2.33171C20.2925 2.33114 20.2811 2.3524 20.2448 2.39694C20.1717 2.48684 20.0557 2.60181 19.9045 2.73599C19.7563 2.86745 19.5985 2.99646 19.447 3.12107C19.3123 3.23194 19.1494 3.36553 19.0425 3.4744L20.1125 4.5256C20.1504 4.48701 20.239 4.41189 20.4 4.2795C20.5442 4.16087 20.7264 4.01208 20.9001 3.85793C21.0707 3.70648 21.2584 3.52801 21.4086 3.34336C21.484 3.25061 21.5641 3.13931 21.628 3.01425C21.6891 2.89458 21.7598 2.71553 21.7598 2.5L20.2598 2.5ZM19.0425 1.5256C19.1494 1.63447 19.3123 1.76806 19.447 1.87893C19.5985 2.00354 19.7563 2.13255 19.9045 2.26401C20.0557 2.39818 20.1717 2.51315 20.2448 2.60306C20.2811 2.6476 20.2925 2.66886 20.2922 2.66829C20.2915 2.66678 20.2843 2.65275 20.2769 2.62739C20.2695 2.602 20.2598 2.55814 20.2598 2.5L21.7598 2.5C21.7598 2.28447 21.6891 2.10542 21.628 1.98575C21.5641 1.86068 21.484 1.74939 21.4086 1.65664C21.2584 1.47199 21.0707 1.29352 20.9001 1.14207C20.7264 0.98792 20.5442 0.839133 20.4 0.720495C20.239 0.588114 20.1504 0.512989 20.1125 0.474402L19.0425 1.5256Z" fill="#6BBBD8"/>
<path d="M3.25977 6V5.25H1.75977V6H3.25977ZM1.53536 19.0327C1.23988 18.7424 0.765024 18.7466 0.474745 19.0421C0.184465 19.3376 0.188684 19.8124 0.484168 20.1027L1.53536 19.0327ZM4.53536 20.1027C4.83085 19.8124 4.83507 19.3376 4.54479 19.0421C4.25451 18.7466 3.77965 18.7424 3.48417 19.0327L4.53536 20.1027ZM3.25977 21L3.25977 6H1.75977L1.75977 21H3.25977ZM2.50977 20.25C2.56791 20.25 2.61177 20.2598 2.63715 20.2672C2.66252 20.2746 2.67655 20.2817 2.67805 20.2825C2.67862 20.2828 2.65736 20.2713 2.61283 20.2351C2.52292 20.162 2.40795 20.0459 2.27378 19.8947C2.14231 19.7465 2.01331 19.5888 1.88869 19.4373C1.77782 19.3025 1.64423 19.1396 1.53536 19.0327L0.484168 20.1027C0.522755 20.1406 0.59788 20.2293 0.730261 20.3902C0.848899 20.5344 0.997686 20.7166 1.15184 20.8903C1.30328 21.061 1.48176 21.2486 1.66641 21.3988C1.75915 21.4742 1.87045 21.5543 1.99551 21.6182C2.11518 21.6793 2.29424 21.75 2.50977 21.75L2.50977 20.25ZM3.48417 19.0327C3.3753 19.1396 3.24171 19.3025 3.13084 19.4373C3.00622 19.5888 2.87722 19.7465 2.74575 19.8947C2.61158 20.0459 2.49661 20.162 2.4067 20.2351C2.36217 20.2713 2.34091 20.2828 2.34148 20.2825C2.34298 20.2817 2.35701 20.2746 2.38238 20.2672C2.40776 20.2598 2.45162 20.25 2.50977 20.25L2.50977 21.75C2.72529 21.75 2.90435 21.6793 3.02402 21.6182C3.14908 21.5543 3.26038 21.4742 3.35312 21.3988C3.53777 21.2486 3.71625 21.061 3.86769 20.8903C4.02185 20.7166 4.17063 20.5344 4.28927 20.3902C4.42165 20.2293 4.49678 20.1406 4.53536 20.1027L3.48417 19.0327Z" fill="#6BBBD8"/>
</svg>
