<svg width="37" height="37" viewBox="0 0 37 37" fill="none" xmlns="http://www.w3.org/2000/svg">
<circle cx="18.5" cy="18.75" r="18" fill="#274BF1"/>
<path d="M25.7613 14.1734C25.2185 14.414 24.6353 14.5765 24.0223 14.6499C24.6548 14.2715 25.1281 13.6757 25.3537 12.974C24.7594 13.327 24.109 13.5754 23.4307 13.7086C22.9746 13.2216 22.3704 12.8988 21.712 12.7903C21.0536 12.6818 20.3778 12.7938 19.7896 13.1087C19.2013 13.4237 18.7335 13.924 18.4588 14.5321C18.184 15.1402 18.1177 15.8219 18.2701 16.4715C17.0659 16.4111 15.8879 16.0981 14.8125 15.5529C13.7371 15.0077 12.7883 14.2424 12.0278 13.3068C11.7678 13.7554 11.6183 14.2755 11.6183 14.8294C11.618 15.328 11.7408 15.819 11.9757 16.2588C12.2107 16.6986 12.5506 17.0736 12.9653 17.3505C12.4844 17.3352 12.0141 17.2052 11.5935 16.9715V17.0105C11.5935 17.7098 11.8354 18.3877 12.2782 18.9289C12.721 19.4702 13.3375 19.8416 14.023 19.9802C13.5769 20.1009 13.1092 20.1187 12.6552 20.0322C12.8486 20.6339 13.2253 21.1601 13.7326 21.5371C14.24 21.9141 14.8525 22.123 15.4844 22.1346C14.4116 22.9768 13.0868 23.4336 11.7229 23.4316C11.4813 23.4316 11.2399 23.4175 11 23.3893C12.3844 24.2794 13.9959 24.7518 15.6418 24.75C21.2132 24.75 24.2589 20.1355 24.2589 16.1335C24.2589 16.0035 24.2557 15.8721 24.2498 15.7421C24.8422 15.3137 25.3536 14.7832 25.76 14.1754L25.7613 14.1734Z" fill="white"/>
</svg>
