<svg width="24" height="25" viewBox="0 0 24 25" fill="none" xmlns="http://www.w3.org/2000/svg">
<path d="M17.0024 9.57617C19.1784 9.58828 20.3569 9.68478 21.1256 10.4535C22.0047 11.3326 22.0047 12.7474 22.0047 15.5772V16.5776C22.0047 19.4073 22.0047 20.8222 21.1256 21.7013C20.2465 22.5803 18.8317 22.5803 16.002 22.5803H7.99833C5.16862 22.5803 3.75376 22.5803 2.87468 21.7013C1.99561 20.8222 1.99561 19.4073 1.99561 16.5776L1.99561 15.5772C1.99561 12.7474 1.99561 11.3326 2.87468 10.4535C3.64342 9.68478 4.82186 9.58828 6.99787 9.57617" stroke="#1C274C" stroke-width="1.50068" stroke-linecap="round"/>
<path d="M11.9999 15.5762L11.9999 2.57028M11.9999 2.57028L15.0013 6.07186M11.9999 2.57028L8.99854 6.07186" stroke="#1C274C" stroke-width="1.50068" stroke-linecap="round" stroke-linejoin="round"/>
</svg>
